%TF.GenerationSoftware,KiCad,Pcbnew,9.0.3*%
%TF.CreationDate,2025-10-02T16:46:52+09:00*%
%TF.ProjectId,STAG-Charge-Injector,53544147-2d43-4686-9172-67652d496e6a,rev?*%
%TF.SameCoordinates,Original*%
%TF.FileFunction,Paste,Bot*%
%TF.FilePolarity,Positive*%
%FSLAX46Y46*%
G04 Gerber Fmt 4.6, Leading zero omitted, Abs format (unit mm)*
G04 Created by KiCad (PCBNEW 9.0.3) date 2025-10-02 16:46:52*
%MOMM*%
%LPD*%
G01*
G04 APERTURE LIST*
G04 Aperture macros list*
%AMRoundRect*
0 Rectangle with rounded corners*
0 $1 Rounding radius*
0 $2 $3 $4 $5 $6 $7 $8 $9 X,Y pos of 4 corners*
0 Add a 4 corners polygon primitive as box body*
4,1,4,$2,$3,$4,$5,$6,$7,$8,$9,$2,$3,0*
0 Add four circle primitives for the rounded corners*
1,1,$1+$1,$2,$3*
1,1,$1+$1,$4,$5*
1,1,$1+$1,$6,$7*
1,1,$1+$1,$8,$9*
0 Add four rect primitives between the rounded corners*
20,1,$1+$1,$2,$3,$4,$5,0*
20,1,$1+$1,$4,$5,$6,$7,0*
20,1,$1+$1,$6,$7,$8,$9,0*
20,1,$1+$1,$8,$9,$2,$3,0*%
G04 Aperture macros list end*
%ADD10C,0.010000*%
%ADD11RoundRect,0.125000X0.125000X0.125000X-0.125000X0.125000X-0.125000X-0.125000X0.125000X-0.125000X0*%
%ADD12RoundRect,0.125000X0.125000X-0.125000X0.125000X0.125000X-0.125000X0.125000X-0.125000X-0.125000X0*%
%ADD13RoundRect,0.125000X-0.125000X-0.125000X0.125000X-0.125000X0.125000X0.125000X-0.125000X0.125000X0*%
%ADD14RoundRect,0.125000X-0.125000X0.125000X-0.125000X-0.125000X0.125000X-0.125000X0.125000X0.125000X0*%
%ADD15RoundRect,0.200000X-0.200000X-0.200000X0.200000X-0.200000X0.200000X0.200000X-0.200000X0.200000X0*%
%ADD16R,1.100000X2.800000*%
G04 APERTURE END LIST*
D10*
%TO.C,J2*%
X65850000Y-79990000D02*
X65770000Y-79990000D01*
X65743000Y-79953000D01*
X65711000Y-79918000D01*
X65676000Y-79887000D01*
X65636000Y-79860000D01*
X65594000Y-79839000D01*
X65550000Y-79822000D01*
X65504000Y-79811000D01*
X65457000Y-79806000D01*
X65409000Y-79806000D01*
X65362000Y-79812000D01*
X65317000Y-79824000D01*
X65272000Y-79841000D01*
X65231000Y-79863000D01*
X65192000Y-79890000D01*
X65156000Y-79921000D01*
X65125000Y-79957000D01*
X65098000Y-79996000D01*
X65076000Y-80037000D01*
X65059000Y-80082000D01*
X65047000Y-80127000D01*
X65041000Y-80174000D01*
X65041000Y-80222000D01*
X65046000Y-80269000D01*
X65057000Y-80315000D01*
X65074000Y-80359000D01*
X65095000Y-80401000D01*
X65122000Y-80441000D01*
X65153000Y-80476000D01*
X65188000Y-80508000D01*
X65225000Y-80535000D01*
X65225000Y-83590000D01*
X64550000Y-83590000D01*
X64550000Y-76790000D01*
X65850000Y-76790000D01*
X65850000Y-79990000D01*
G36*
X65850000Y-79990000D02*
G01*
X65770000Y-79990000D01*
X65743000Y-79953000D01*
X65711000Y-79918000D01*
X65676000Y-79887000D01*
X65636000Y-79860000D01*
X65594000Y-79839000D01*
X65550000Y-79822000D01*
X65504000Y-79811000D01*
X65457000Y-79806000D01*
X65409000Y-79806000D01*
X65362000Y-79812000D01*
X65317000Y-79824000D01*
X65272000Y-79841000D01*
X65231000Y-79863000D01*
X65192000Y-79890000D01*
X65156000Y-79921000D01*
X65125000Y-79957000D01*
X65098000Y-79996000D01*
X65076000Y-80037000D01*
X65059000Y-80082000D01*
X65047000Y-80127000D01*
X65041000Y-80174000D01*
X65041000Y-80222000D01*
X65046000Y-80269000D01*
X65057000Y-80315000D01*
X65074000Y-80359000D01*
X65095000Y-80401000D01*
X65122000Y-80441000D01*
X65153000Y-80476000D01*
X65188000Y-80508000D01*
X65225000Y-80535000D01*
X65225000Y-83590000D01*
X64550000Y-83590000D01*
X64550000Y-76790000D01*
X65850000Y-76790000D01*
X65850000Y-79990000D01*
G37*
X69450000Y-83590000D02*
X68775000Y-83590000D01*
X68775000Y-80535000D01*
X68812000Y-80508000D01*
X68847000Y-80476000D01*
X68878000Y-80441000D01*
X68905000Y-80401000D01*
X68926000Y-80359000D01*
X68943000Y-80315000D01*
X68954000Y-80269000D01*
X68959000Y-80222000D01*
X68959000Y-80174000D01*
X68953000Y-80127000D01*
X68941000Y-80082000D01*
X68924000Y-80037000D01*
X68902000Y-79996000D01*
X68875000Y-79957000D01*
X68844000Y-79921000D01*
X68808000Y-79890000D01*
X68769000Y-79863000D01*
X68728000Y-79841000D01*
X68683000Y-79824000D01*
X68638000Y-79812000D01*
X68591000Y-79806000D01*
X68543000Y-79806000D01*
X68496000Y-79811000D01*
X68450000Y-79822000D01*
X68406000Y-79839000D01*
X68364000Y-79860000D01*
X68324000Y-79887000D01*
X68289000Y-79918000D01*
X68257000Y-79953000D01*
X68230000Y-79990000D01*
X68150000Y-79990000D01*
X68150000Y-76790000D01*
X69450000Y-76790000D01*
X69450000Y-83590000D01*
G36*
X69450000Y-83590000D02*
G01*
X68775000Y-83590000D01*
X68775000Y-80535000D01*
X68812000Y-80508000D01*
X68847000Y-80476000D01*
X68878000Y-80441000D01*
X68905000Y-80401000D01*
X68926000Y-80359000D01*
X68943000Y-80315000D01*
X68954000Y-80269000D01*
X68959000Y-80222000D01*
X68959000Y-80174000D01*
X68953000Y-80127000D01*
X68941000Y-80082000D01*
X68924000Y-80037000D01*
X68902000Y-79996000D01*
X68875000Y-79957000D01*
X68844000Y-79921000D01*
X68808000Y-79890000D01*
X68769000Y-79863000D01*
X68728000Y-79841000D01*
X68683000Y-79824000D01*
X68638000Y-79812000D01*
X68591000Y-79806000D01*
X68543000Y-79806000D01*
X68496000Y-79811000D01*
X68450000Y-79822000D01*
X68406000Y-79839000D01*
X68364000Y-79860000D01*
X68324000Y-79887000D01*
X68289000Y-79918000D01*
X68257000Y-79953000D01*
X68230000Y-79990000D01*
X68150000Y-79990000D01*
X68150000Y-76790000D01*
X69450000Y-76790000D01*
X69450000Y-83590000D01*
G37*
%TD*%
D11*
%TO.C,C17*%
X64800000Y-52900000D03*
D12*
X63900000Y-52900000D03*
%TD*%
D11*
%TO.C,C14*%
X64850000Y-59250000D03*
D12*
X63950000Y-59250000D03*
%TD*%
D11*
%TO.C,C32*%
X64800000Y-38250000D03*
D12*
X63900000Y-38250000D03*
%TD*%
D11*
%TO.C,C16*%
X64850000Y-57450000D03*
D12*
X63950000Y-57450000D03*
%TD*%
D11*
%TO.C,C2*%
X64850000Y-71250000D03*
D12*
X63950000Y-71250000D03*
%TD*%
D11*
%TO.C,C11*%
X64850000Y-62350000D03*
D12*
X63950000Y-62350000D03*
%TD*%
D13*
%TO.C,C64*%
X69150000Y-38250000D03*
D14*
X70050000Y-38250000D03*
%TD*%
D11*
%TO.C,C20*%
X64800000Y-50200000D03*
D12*
X63900000Y-50200000D03*
%TD*%
D11*
%TO.C,C10*%
X64850000Y-63250000D03*
D12*
X63950000Y-63250000D03*
%TD*%
D11*
%TO.C,C4*%
X64850000Y-69450000D03*
D12*
X63950000Y-69450000D03*
%TD*%
D13*
%TO.C,C38*%
X69150000Y-67250000D03*
D14*
X70050000Y-67250000D03*
%TD*%
D11*
%TO.C,C5*%
X64850000Y-68150000D03*
D12*
X63950000Y-68150000D03*
%TD*%
D13*
%TO.C,C63*%
X69150000Y-39150000D03*
D14*
X70050000Y-39150000D03*
%TD*%
D11*
%TO.C,C7*%
X64850000Y-66350000D03*
D12*
X63950000Y-66350000D03*
%TD*%
D13*
%TO.C,C59*%
X69150000Y-43150000D03*
D14*
X70050000Y-43150000D03*
%TD*%
D13*
%TO.C,C61*%
X69150000Y-40950000D03*
D14*
X70050000Y-40950000D03*
%TD*%
D13*
%TO.C,C50*%
X69150000Y-52050000D03*
D14*
X70050000Y-52050000D03*
%TD*%
D11*
%TO.C,C18*%
X64800000Y-52000000D03*
D12*
X63900000Y-52000000D03*
%TD*%
D11*
%TO.C,C13*%
X64850000Y-60150000D03*
D12*
X63950000Y-60150000D03*
%TD*%
D13*
%TO.C,C34*%
X69150000Y-71250000D03*
D14*
X70050000Y-71250000D03*
%TD*%
D11*
%TO.C,C19*%
X64800000Y-51100000D03*
D12*
X63900000Y-51100000D03*
%TD*%
D13*
%TO.C,C54*%
X69150000Y-48050000D03*
D14*
X70050000Y-48050000D03*
%TD*%
D11*
%TO.C,C24*%
X64800000Y-46250000D03*
D12*
X63900000Y-46250000D03*
%TD*%
D13*
%TO.C,C51*%
X69150000Y-51150000D03*
D14*
X70050000Y-51150000D03*
%TD*%
D11*
%TO.C,C15*%
X64850000Y-58350000D03*
D12*
X63950000Y-58350000D03*
%TD*%
D13*
%TO.C,C42*%
X69150000Y-63250000D03*
D14*
X70050000Y-63250000D03*
%TD*%
D13*
%TO.C,C60*%
X69150000Y-42250000D03*
D14*
X70050000Y-42250000D03*
%TD*%
D13*
%TO.C,C45*%
X69150000Y-60150000D03*
D14*
X70050000Y-60150000D03*
%TD*%
D11*
%TO.C,C23*%
X64800000Y-47150000D03*
D12*
X63900000Y-47150000D03*
%TD*%
D13*
%TO.C,C41*%
X69150000Y-64150000D03*
D14*
X70050000Y-64150000D03*
%TD*%
D11*
%TO.C,C28*%
X64800000Y-42250000D03*
D12*
X63900000Y-42250000D03*
%TD*%
D13*
%TO.C,C46*%
X69150000Y-59250000D03*
D14*
X70050000Y-59250000D03*
%TD*%
D11*
%TO.C,C29*%
X64800000Y-40950000D03*
D12*
X63900000Y-40950000D03*
%TD*%
D11*
%TO.C,C9*%
X64850000Y-64150000D03*
D12*
X63950000Y-64150000D03*
%TD*%
D11*
%TO.C,C27*%
X64800000Y-43150000D03*
D12*
X63900000Y-43150000D03*
%TD*%
D13*
%TO.C,C36*%
X69150000Y-69450000D03*
D14*
X70050000Y-69450000D03*
%TD*%
D13*
%TO.C,C49*%
X69150000Y-52970000D03*
D14*
X70050000Y-52970000D03*
%TD*%
D15*
%TO.C,R1*%
X67500000Y-74700000D03*
X68900000Y-74700000D03*
%TD*%
D13*
%TO.C,C56*%
X69150000Y-46250000D03*
D14*
X70050000Y-46250000D03*
%TD*%
D13*
%TO.C,C53*%
X69150000Y-48950000D03*
D14*
X70050000Y-48950000D03*
%TD*%
D13*
%TO.C,C40*%
X69150000Y-65450000D03*
D14*
X70050000Y-65450000D03*
%TD*%
D13*
%TO.C,C55*%
X69150000Y-47150000D03*
D14*
X70050000Y-47150000D03*
%TD*%
D13*
%TO.C,C52*%
X69150000Y-50250000D03*
D14*
X70050000Y-50250000D03*
%TD*%
D13*
%TO.C,C62*%
X69150000Y-40050000D03*
D14*
X70050000Y-40050000D03*
%TD*%
D16*
%TO.C,J2*%
X67000000Y-78190000D03*
%TD*%
D13*
%TO.C,C35*%
X69150000Y-70350000D03*
D14*
X70050000Y-70350000D03*
%TD*%
D13*
%TO.C,C48*%
X69150000Y-57450000D03*
D14*
X70050000Y-57450000D03*
%TD*%
D11*
%TO.C,C6*%
X64850000Y-67250000D03*
D12*
X63950000Y-67250000D03*
%TD*%
D13*
%TO.C,C57*%
X69150000Y-44950000D03*
D14*
X70050000Y-44950000D03*
%TD*%
D13*
%TO.C,C39*%
X69150000Y-66350000D03*
D14*
X70050000Y-66350000D03*
%TD*%
D11*
%TO.C,C21*%
X64800000Y-48950000D03*
D12*
X63900000Y-48950000D03*
%TD*%
D11*
%TO.C,C8*%
X64850000Y-65450000D03*
D12*
X63950000Y-65450000D03*
%TD*%
D11*
%TO.C,C22*%
X64800000Y-48050000D03*
D12*
X63900000Y-48050000D03*
%TD*%
D13*
%TO.C,C58*%
X69150000Y-44050000D03*
D14*
X70050000Y-44050000D03*
%TD*%
D11*
%TO.C,C26*%
X64800000Y-44050000D03*
D12*
X63900000Y-44050000D03*
%TD*%
D11*
%TO.C,C12*%
X64850000Y-61450000D03*
D12*
X63950000Y-61450000D03*
%TD*%
D11*
%TO.C,C1*%
X64850000Y-72150000D03*
D12*
X63950000Y-72150000D03*
%TD*%
D13*
%TO.C,C33*%
X69150000Y-72150000D03*
D14*
X70050000Y-72150000D03*
%TD*%
D13*
%TO.C,C47*%
X69150000Y-58350000D03*
D14*
X70050000Y-58350000D03*
%TD*%
D11*
%TO.C,C25*%
X64800000Y-44950000D03*
D12*
X63900000Y-44950000D03*
%TD*%
D13*
%TO.C,C43*%
X69150000Y-62350000D03*
D14*
X70050000Y-62350000D03*
%TD*%
D13*
%TO.C,C44*%
X69150000Y-61450000D03*
D14*
X70050000Y-61450000D03*
%TD*%
D11*
%TO.C,C3*%
X64850000Y-70350000D03*
D12*
X63950000Y-70350000D03*
%TD*%
D11*
%TO.C,C30*%
X64800000Y-40050000D03*
D12*
X63900000Y-40050000D03*
%TD*%
D11*
%TO.C,C31*%
X64800000Y-39150000D03*
D12*
X63900000Y-39150000D03*
%TD*%
D13*
%TO.C,C37*%
X69150000Y-68150000D03*
D14*
X70050000Y-68150000D03*
%TD*%
M02*
