M48
; DRILL file {KiCad 9.0.3} date 2025-10-02T16:46:49+0900
; FORMAT={-:-/ absolute / metric / decimal}
; #@! TF.CreationDate,2025-10-02T16:46:49+09:00
; #@! TF.GenerationSoftware,Kicad,Pcbnew,9.0.3
; #@! TF.FileFunction,Plated,1,2,PTH
FMAT,2
METRIC
; #@! TA.AperFunction,Plated,PTH,ViaDrill
T1C0.300
%
G90
G05
T1
X61.95Y-73.7
X61.95Y-75.3
X61.95Y-76.9
X61.95Y-78.5
X61.95Y-80.1
X62.65Y-38.3
X62.65Y-39.15
X62.65Y-40.05
X62.65Y-40.9
X62.65Y-42.35
X62.65Y-43.2
X62.65Y-44.05
X62.65Y-44.85
X62.65Y-46.3
X62.65Y-47.15
X62.65Y-48.05
X62.65Y-48.9
X62.65Y-50.35
X62.65Y-51.2
X62.65Y-52.05
X62.65Y-52.85
X62.7Y-57.5
X62.7Y-58.35
X62.7Y-59.25
X62.7Y-60.1
X62.7Y-61.55
X62.7Y-62.4
X62.7Y-63.25
X62.7Y-64.05
X62.7Y-65.5
X62.7Y-66.35
X62.7Y-67.25
X62.7Y-68.1
X62.7Y-69.55
X62.7Y-70.4
X62.7Y-71.25
X62.7Y-72.05
X62.75Y-74.5
X62.75Y-76.1
X62.75Y-77.7
X62.75Y-79.3
X62.75Y-80.9
X63.55Y-73.7
X63.55Y-75.3
X63.55Y-76.9
X63.55Y-78.5
X63.55Y-80.1
X63.55Y-81.7
X70.45Y-73.7
X70.45Y-75.3
X70.45Y-76.9
X70.45Y-78.5
X70.45Y-80.1
X70.45Y-81.7
X71.25Y-74.5
X71.25Y-76.1
X71.25Y-77.7
X71.25Y-79.3
X71.25Y-80.9
X71.3Y-57.55
X71.3Y-58.35
X71.3Y-59.2
X71.3Y-60.05
X71.3Y-61.5
X71.3Y-62.35
X71.3Y-63.25
X71.3Y-64.1
X71.3Y-65.55
X71.3Y-66.35
X71.3Y-67.2
X71.3Y-68.05
X71.3Y-69.5
X71.3Y-70.35
X71.3Y-71.25
X71.3Y-72.1
X71.33Y-38.35
X71.33Y-39.15
X71.33Y-40.0
X71.33Y-40.85
X71.33Y-42.3
X71.33Y-43.15
X71.33Y-44.05
X71.33Y-44.9
X71.33Y-46.35
X71.33Y-47.15
X71.33Y-48.0
X71.33Y-48.85
X71.33Y-50.3
X71.33Y-51.15
X71.33Y-52.05
X71.33Y-52.9
X72.05Y-73.7
X72.05Y-75.3
X72.05Y-76.9
X72.05Y-78.5
X72.05Y-80.1
M30
