%TF.GenerationSoftware,KiCad,Pcbnew,9.0.3*%
%TF.CreationDate,2025-10-02T16:46:52+09:00*%
%TF.ProjectId,STAG-Charge-Injector,53544147-2d43-4686-9172-67652d496e6a,rev?*%
%TF.SameCoordinates,Original*%
%TF.FileFunction,Copper,L2,Bot*%
%TF.FilePolarity,Positive*%
%FSLAX46Y46*%
G04 Gerber Fmt 4.6, Leading zero omitted, Abs format (unit mm)*
G04 Created by KiCad (PCBNEW 9.0.3) date 2025-10-02 16:46:52*
%MOMM*%
%LPD*%
G01*
G04 APERTURE LIST*
G04 Aperture macros list*
%AMRoundRect*
0 Rectangle with rounded corners*
0 $1 Rounding radius*
0 $2 $3 $4 $5 $6 $7 $8 $9 X,Y pos of 4 corners*
0 Add a 4 corners polygon primitive as box body*
4,1,4,$2,$3,$4,$5,$6,$7,$8,$9,$2,$3,0*
0 Add four circle primitives for the rounded corners*
1,1,$1+$1,$2,$3*
1,1,$1+$1,$4,$5*
1,1,$1+$1,$6,$7*
1,1,$1+$1,$8,$9*
0 Add four rect primitives between the rounded corners*
20,1,$1+$1,$2,$3,$4,$5,0*
20,1,$1+$1,$4,$5,$6,$7,0*
20,1,$1+$1,$6,$7,$8,$9,0*
20,1,$1+$1,$8,$9,$2,$3,0*%
%AMFreePoly0*
4,1,51,0.653536,1.403536,0.655000,1.400000,0.655000,-1.800000,0.653536,-1.803536,0.650000,-1.805000,0.570000,-1.805000,0.566464,-1.803536,0.565889,-1.802846,0.539081,-1.764124,0.507513,-1.729596,0.471968,-1.698988,0.433462,-1.673317,0.391003,-1.651594,0.347559,-1.635796,0.302150,-1.624937,0.255734,-1.620000,0.208320,-1.620000,0.161899,-1.625925,0.116488,-1.636785,0.073109,-1.653545,
0.031595,-1.676279,-0.006908,-1.701948,-0.041460,-1.733539,-0.073051,-1.768091,-0.098720,-1.806595,-0.121454,-1.848109,-0.138214,-1.891488,-0.149074,-1.936899,-0.155000,-1.983319,-0.155000,-2.030734,-0.150062,-2.077150,-0.139203,-2.122559,-0.123405,-2.166003,-0.101682,-2.208462,-0.076011,-2.246968,-0.045403,-2.282513,-0.010875,-2.314081,0.027846,-2.340889,0.029919,-2.344106,0.030000,-2.345000,
0.030000,-5.400000,0.028536,-5.403536,0.025000,-5.405000,-0.650000,-5.405000,-0.653536,-5.403536,-0.655000,-5.400000,-0.655000,1.400000,-0.653536,1.403536,-0.650000,1.405000,0.650000,1.405000,0.653536,1.403536,0.653536,1.403536,$1*%
%AMFreePoly1*
4,1,51,0.653536,1.403536,0.655000,1.400000,0.655000,-5.400000,0.653536,-5.403536,0.650000,-5.405000,-0.025000,-5.405000,-0.028536,-5.403536,-0.030000,-5.400000,-0.030000,-2.345000,-0.028536,-2.341464,-0.027846,-2.340889,0.010875,-2.314081,0.045403,-2.282513,0.076011,-2.246968,0.101682,-2.208462,0.123405,-2.166003,0.139203,-2.122559,0.150062,-2.077150,0.155000,-2.030734,0.155000,-1.983319,
0.149074,-1.936899,0.138214,-1.891488,0.121454,-1.848109,0.098720,-1.806595,0.073051,-1.768091,0.041460,-1.733539,0.006908,-1.701948,-0.031595,-1.676279,-0.073109,-1.653545,-0.116488,-1.636785,-0.161899,-1.625925,-0.208320,-1.620000,-0.255734,-1.620000,-0.302150,-1.624937,-0.347559,-1.635796,-0.391003,-1.651594,-0.433462,-1.673317,-0.471968,-1.698988,-0.507513,-1.729596,-0.539081,-1.764124,
-0.565889,-1.802846,-0.569106,-1.804919,-0.570000,-1.805000,-0.650000,-1.805000,-0.653536,-1.803536,-0.655000,-1.800000,-0.655000,1.400000,-0.653536,1.403536,-0.650000,1.405000,0.650000,1.405000,0.653536,1.403536,0.653536,1.403536,$1*%
G04 Aperture macros list end*
%TA.AperFunction,SMDPad,CuDef*%
%ADD10RoundRect,0.125000X0.125000X0.125000X-0.125000X0.125000X-0.125000X-0.125000X0.125000X-0.125000X0*%
%TD*%
%TA.AperFunction,SMDPad,CuDef*%
%ADD11RoundRect,0.125000X0.125000X-0.125000X0.125000X0.125000X-0.125000X0.125000X-0.125000X-0.125000X0*%
%TD*%
%TA.AperFunction,SMDPad,CuDef*%
%ADD12RoundRect,0.125000X-0.125000X-0.125000X0.125000X-0.125000X0.125000X0.125000X-0.125000X0.125000X0*%
%TD*%
%TA.AperFunction,SMDPad,CuDef*%
%ADD13RoundRect,0.125000X-0.125000X0.125000X-0.125000X-0.125000X0.125000X-0.125000X0.125000X0.125000X0*%
%TD*%
%TA.AperFunction,SMDPad,CuDef*%
%ADD14RoundRect,0.200000X-0.200000X-0.200000X0.200000X-0.200000X0.200000X0.200000X-0.200000X0.200000X0*%
%TD*%
%TA.AperFunction,SMDPad,CuDef*%
%ADD15R,1.100000X2.800000*%
%TD*%
%TA.AperFunction,SMDPad,CuDef*%
%ADD16FreePoly0,0.000000*%
%TD*%
%TA.AperFunction,SMDPad,CuDef*%
%ADD17FreePoly1,0.000000*%
%TD*%
%TA.AperFunction,ViaPad*%
%ADD18C,0.600000*%
%TD*%
%TA.AperFunction,Conductor*%
%ADD19C,0.300000*%
%TD*%
%TA.AperFunction,Conductor*%
%ADD20C,0.500000*%
%TD*%
G04 APERTURE END LIST*
D10*
%TO.P,C17,1*%
%TO.N,Pulse_IN*%
X64800000Y-52900000D03*
D11*
%TO.P,C17,2*%
%TO.N,Net-(C17-Pad2)*%
X63900000Y-52900000D03*
%TD*%
D10*
%TO.P,C14,1*%
%TO.N,Pulse_IN*%
X64850000Y-59250000D03*
D11*
%TO.P,C14,2*%
%TO.N,Net-(C14-Pad2)*%
X63950000Y-59250000D03*
%TD*%
D10*
%TO.P,C32,1*%
%TO.N,Pulse_IN*%
X64800000Y-38250000D03*
D11*
%TO.P,C32,2*%
%TO.N,Net-(C32-Pad2)*%
X63900000Y-38250000D03*
%TD*%
D10*
%TO.P,C16,1*%
%TO.N,Pulse_IN*%
X64850000Y-57450000D03*
D11*
%TO.P,C16,2*%
%TO.N,Net-(C16-Pad2)*%
X63950000Y-57450000D03*
%TD*%
D10*
%TO.P,C2,1*%
%TO.N,Pulse_IN*%
X64850000Y-71250000D03*
D11*
%TO.P,C2,2*%
%TO.N,Net-(C2-Pad2)*%
X63950000Y-71250000D03*
%TD*%
D10*
%TO.P,C11,1*%
%TO.N,Pulse_IN*%
X64850000Y-62350000D03*
D11*
%TO.P,C11,2*%
%TO.N,Net-(C11-Pad2)*%
X63950000Y-62350000D03*
%TD*%
D12*
%TO.P,C64,1*%
%TO.N,Pulse_IN*%
X69150000Y-38250000D03*
D13*
%TO.P,C64,2*%
%TO.N,Net-(C64-Pad2)*%
X70050000Y-38250000D03*
%TD*%
D10*
%TO.P,C20,1*%
%TO.N,Pulse_IN*%
X64800000Y-50200000D03*
D11*
%TO.P,C20,2*%
%TO.N,Net-(C20-Pad2)*%
X63900000Y-50200000D03*
%TD*%
D10*
%TO.P,C10,1*%
%TO.N,Pulse_IN*%
X64850000Y-63250000D03*
D11*
%TO.P,C10,2*%
%TO.N,Net-(C10-Pad2)*%
X63950000Y-63250000D03*
%TD*%
D10*
%TO.P,C4,1*%
%TO.N,Pulse_IN*%
X64850000Y-69450000D03*
D11*
%TO.P,C4,2*%
%TO.N,Net-(C4-Pad2)*%
X63950000Y-69450000D03*
%TD*%
D12*
%TO.P,C38,1*%
%TO.N,Pulse_IN*%
X69150000Y-67250000D03*
D13*
%TO.P,C38,2*%
%TO.N,Net-(C38-Pad2)*%
X70050000Y-67250000D03*
%TD*%
D10*
%TO.P,C5,1*%
%TO.N,Pulse_IN*%
X64850000Y-68150000D03*
D11*
%TO.P,C5,2*%
%TO.N,Net-(C5-Pad2)*%
X63950000Y-68150000D03*
%TD*%
D12*
%TO.P,C63,1*%
%TO.N,Pulse_IN*%
X69150000Y-39150000D03*
D13*
%TO.P,C63,2*%
%TO.N,Net-(C63-Pad2)*%
X70050000Y-39150000D03*
%TD*%
D10*
%TO.P,C7,1*%
%TO.N,Pulse_IN*%
X64850000Y-66350000D03*
D11*
%TO.P,C7,2*%
%TO.N,Net-(C7-Pad2)*%
X63950000Y-66350000D03*
%TD*%
D12*
%TO.P,C59,1*%
%TO.N,Pulse_IN*%
X69150000Y-43150000D03*
D13*
%TO.P,C59,2*%
%TO.N,Net-(C59-Pad2)*%
X70050000Y-43150000D03*
%TD*%
D12*
%TO.P,C61,1*%
%TO.N,Pulse_IN*%
X69150000Y-40950000D03*
D13*
%TO.P,C61,2*%
%TO.N,Net-(C61-Pad2)*%
X70050000Y-40950000D03*
%TD*%
D12*
%TO.P,C50,1*%
%TO.N,Pulse_IN*%
X69150000Y-52050000D03*
D13*
%TO.P,C50,2*%
%TO.N,Net-(C50-Pad2)*%
X70050000Y-52050000D03*
%TD*%
D10*
%TO.P,C18,1*%
%TO.N,Pulse_IN*%
X64800000Y-52000000D03*
D11*
%TO.P,C18,2*%
%TO.N,Net-(C18-Pad2)*%
X63900000Y-52000000D03*
%TD*%
D10*
%TO.P,C13,1*%
%TO.N,Pulse_IN*%
X64850000Y-60150000D03*
D11*
%TO.P,C13,2*%
%TO.N,Net-(C13-Pad2)*%
X63950000Y-60150000D03*
%TD*%
D12*
%TO.P,C34,1*%
%TO.N,Pulse_IN*%
X69150000Y-71250000D03*
D13*
%TO.P,C34,2*%
%TO.N,Net-(C34-Pad2)*%
X70050000Y-71250000D03*
%TD*%
D10*
%TO.P,C19,1*%
%TO.N,Pulse_IN*%
X64800000Y-51100000D03*
D11*
%TO.P,C19,2*%
%TO.N,Net-(C19-Pad2)*%
X63900000Y-51100000D03*
%TD*%
D12*
%TO.P,C54,1*%
%TO.N,Pulse_IN*%
X69150000Y-48050000D03*
D13*
%TO.P,C54,2*%
%TO.N,Net-(C54-Pad2)*%
X70050000Y-48050000D03*
%TD*%
D10*
%TO.P,C24,1*%
%TO.N,Pulse_IN*%
X64800000Y-46250000D03*
D11*
%TO.P,C24,2*%
%TO.N,Net-(C24-Pad2)*%
X63900000Y-46250000D03*
%TD*%
D12*
%TO.P,C51,1*%
%TO.N,Pulse_IN*%
X69150000Y-51150000D03*
D13*
%TO.P,C51,2*%
%TO.N,Net-(C51-Pad2)*%
X70050000Y-51150000D03*
%TD*%
D10*
%TO.P,C15,1*%
%TO.N,Pulse_IN*%
X64850000Y-58350000D03*
D11*
%TO.P,C15,2*%
%TO.N,Net-(C15-Pad2)*%
X63950000Y-58350000D03*
%TD*%
D12*
%TO.P,C42,1*%
%TO.N,Pulse_IN*%
X69150000Y-63250000D03*
D13*
%TO.P,C42,2*%
%TO.N,Net-(C42-Pad2)*%
X70050000Y-63250000D03*
%TD*%
D12*
%TO.P,C60,1*%
%TO.N,Pulse_IN*%
X69150000Y-42250000D03*
D13*
%TO.P,C60,2*%
%TO.N,Net-(C60-Pad2)*%
X70050000Y-42250000D03*
%TD*%
D12*
%TO.P,C45,1*%
%TO.N,Pulse_IN*%
X69150000Y-60150000D03*
D13*
%TO.P,C45,2*%
%TO.N,Net-(C45-Pad2)*%
X70050000Y-60150000D03*
%TD*%
D10*
%TO.P,C23,1*%
%TO.N,Pulse_IN*%
X64800000Y-47150000D03*
D11*
%TO.P,C23,2*%
%TO.N,Net-(C23-Pad2)*%
X63900000Y-47150000D03*
%TD*%
D12*
%TO.P,C41,1*%
%TO.N,Pulse_IN*%
X69150000Y-64150000D03*
D13*
%TO.P,C41,2*%
%TO.N,Net-(C41-Pad2)*%
X70050000Y-64150000D03*
%TD*%
D10*
%TO.P,C28,1*%
%TO.N,Pulse_IN*%
X64800000Y-42250000D03*
D11*
%TO.P,C28,2*%
%TO.N,Net-(C28-Pad2)*%
X63900000Y-42250000D03*
%TD*%
D12*
%TO.P,C46,1*%
%TO.N,Pulse_IN*%
X69150000Y-59250000D03*
D13*
%TO.P,C46,2*%
%TO.N,Net-(C46-Pad2)*%
X70050000Y-59250000D03*
%TD*%
D10*
%TO.P,C29,1*%
%TO.N,Pulse_IN*%
X64800000Y-40950000D03*
D11*
%TO.P,C29,2*%
%TO.N,Net-(C29-Pad2)*%
X63900000Y-40950000D03*
%TD*%
D10*
%TO.P,C9,1*%
%TO.N,Pulse_IN*%
X64850000Y-64150000D03*
D11*
%TO.P,C9,2*%
%TO.N,Net-(C9-Pad2)*%
X63950000Y-64150000D03*
%TD*%
D10*
%TO.P,C27,1*%
%TO.N,Pulse_IN*%
X64800000Y-43150000D03*
D11*
%TO.P,C27,2*%
%TO.N,Net-(C27-Pad2)*%
X63900000Y-43150000D03*
%TD*%
D12*
%TO.P,C36,1*%
%TO.N,Pulse_IN*%
X69150000Y-69450000D03*
D13*
%TO.P,C36,2*%
%TO.N,Net-(C36-Pad2)*%
X70050000Y-69450000D03*
%TD*%
D12*
%TO.P,C49,1*%
%TO.N,Pulse_IN*%
X69150000Y-52970000D03*
D13*
%TO.P,C49,2*%
%TO.N,Net-(C49-Pad2)*%
X70050000Y-52970000D03*
%TD*%
D14*
%TO.P,R1,1*%
%TO.N,Pulse_IN*%
X67500000Y-74700000D03*
%TO.P,R1,2*%
%TO.N,GND*%
X68900000Y-74700000D03*
%TD*%
D12*
%TO.P,C56,1*%
%TO.N,Pulse_IN*%
X69150000Y-46250000D03*
D13*
%TO.P,C56,2*%
%TO.N,Net-(C56-Pad2)*%
X70050000Y-46250000D03*
%TD*%
D12*
%TO.P,C53,1*%
%TO.N,Pulse_IN*%
X69150000Y-48950000D03*
D13*
%TO.P,C53,2*%
%TO.N,Net-(C53-Pad2)*%
X70050000Y-48950000D03*
%TD*%
D12*
%TO.P,C40,1*%
%TO.N,Pulse_IN*%
X69150000Y-65450000D03*
D13*
%TO.P,C40,2*%
%TO.N,Net-(C40-Pad2)*%
X70050000Y-65450000D03*
%TD*%
D12*
%TO.P,C55,1*%
%TO.N,Pulse_IN*%
X69150000Y-47150000D03*
D13*
%TO.P,C55,2*%
%TO.N,Net-(C55-Pad2)*%
X70050000Y-47150000D03*
%TD*%
D12*
%TO.P,C52,1*%
%TO.N,Pulse_IN*%
X69150000Y-50250000D03*
D13*
%TO.P,C52,2*%
%TO.N,Net-(C52-Pad2)*%
X70050000Y-50250000D03*
%TD*%
D12*
%TO.P,C62,1*%
%TO.N,Pulse_IN*%
X69150000Y-40050000D03*
D13*
%TO.P,C62,2*%
%TO.N,Net-(C62-Pad2)*%
X70050000Y-40050000D03*
%TD*%
D15*
%TO.P,J2,1,In*%
%TO.N,Pulse_IN*%
X67000000Y-78190000D03*
D16*
%TO.P,J2,S1*%
%TO.N,GND*%
X65200000Y-78190000D03*
D17*
%TO.P,J2,S2*%
X68800000Y-78190000D03*
%TD*%
D12*
%TO.P,C35,1*%
%TO.N,Pulse_IN*%
X69150000Y-70350000D03*
D13*
%TO.P,C35,2*%
%TO.N,Net-(C35-Pad2)*%
X70050000Y-70350000D03*
%TD*%
D12*
%TO.P,C48,1*%
%TO.N,Pulse_IN*%
X69150000Y-57450000D03*
D13*
%TO.P,C48,2*%
%TO.N,Net-(C48-Pad2)*%
X70050000Y-57450000D03*
%TD*%
D10*
%TO.P,C6,1*%
%TO.N,Pulse_IN*%
X64850000Y-67250000D03*
D11*
%TO.P,C6,2*%
%TO.N,Net-(C6-Pad2)*%
X63950000Y-67250000D03*
%TD*%
D12*
%TO.P,C57,1*%
%TO.N,Pulse_IN*%
X69150000Y-44950000D03*
D13*
%TO.P,C57,2*%
%TO.N,Net-(C57-Pad2)*%
X70050000Y-44950000D03*
%TD*%
D12*
%TO.P,C39,1*%
%TO.N,Pulse_IN*%
X69150000Y-66350000D03*
D13*
%TO.P,C39,2*%
%TO.N,Net-(C39-Pad2)*%
X70050000Y-66350000D03*
%TD*%
D10*
%TO.P,C21,1*%
%TO.N,Pulse_IN*%
X64800000Y-48950000D03*
D11*
%TO.P,C21,2*%
%TO.N,Net-(C21-Pad2)*%
X63900000Y-48950000D03*
%TD*%
D10*
%TO.P,C8,1*%
%TO.N,Pulse_IN*%
X64850000Y-65450000D03*
D11*
%TO.P,C8,2*%
%TO.N,Net-(C8-Pad2)*%
X63950000Y-65450000D03*
%TD*%
D10*
%TO.P,C22,1*%
%TO.N,Pulse_IN*%
X64800000Y-48050000D03*
D11*
%TO.P,C22,2*%
%TO.N,Net-(C22-Pad2)*%
X63900000Y-48050000D03*
%TD*%
D12*
%TO.P,C58,1*%
%TO.N,Pulse_IN*%
X69150000Y-44050000D03*
D13*
%TO.P,C58,2*%
%TO.N,Net-(C58-Pad2)*%
X70050000Y-44050000D03*
%TD*%
D10*
%TO.P,C26,1*%
%TO.N,Pulse_IN*%
X64800000Y-44050000D03*
D11*
%TO.P,C26,2*%
%TO.N,Net-(C26-Pad2)*%
X63900000Y-44050000D03*
%TD*%
D10*
%TO.P,C12,1*%
%TO.N,Pulse_IN*%
X64850000Y-61450000D03*
D11*
%TO.P,C12,2*%
%TO.N,Net-(C12-Pad2)*%
X63950000Y-61450000D03*
%TD*%
D10*
%TO.P,C1,1*%
%TO.N,Pulse_IN*%
X64850000Y-72150000D03*
D11*
%TO.P,C1,2*%
%TO.N,Net-(C1-Pad2)*%
X63950000Y-72150000D03*
%TD*%
D12*
%TO.P,C33,1*%
%TO.N,Pulse_IN*%
X69150000Y-72150000D03*
D13*
%TO.P,C33,2*%
%TO.N,Net-(C33-Pad2)*%
X70050000Y-72150000D03*
%TD*%
D12*
%TO.P,C47,1*%
%TO.N,Pulse_IN*%
X69150000Y-58350000D03*
D13*
%TO.P,C47,2*%
%TO.N,Net-(C47-Pad2)*%
X70050000Y-58350000D03*
%TD*%
D10*
%TO.P,C25,1*%
%TO.N,Pulse_IN*%
X64800000Y-44950000D03*
D11*
%TO.P,C25,2*%
%TO.N,Net-(C25-Pad2)*%
X63900000Y-44950000D03*
%TD*%
D12*
%TO.P,C43,1*%
%TO.N,Pulse_IN*%
X69150000Y-62350000D03*
D13*
%TO.P,C43,2*%
%TO.N,Net-(C43-Pad2)*%
X70050000Y-62350000D03*
%TD*%
D12*
%TO.P,C44,1*%
%TO.N,Pulse_IN*%
X69150000Y-61450000D03*
D13*
%TO.P,C44,2*%
%TO.N,Net-(C44-Pad2)*%
X70050000Y-61450000D03*
%TD*%
D10*
%TO.P,C3,1*%
%TO.N,Pulse_IN*%
X64850000Y-70350000D03*
D11*
%TO.P,C3,2*%
%TO.N,Net-(C3-Pad2)*%
X63950000Y-70350000D03*
%TD*%
D10*
%TO.P,C30,1*%
%TO.N,Pulse_IN*%
X64800000Y-40050000D03*
D11*
%TO.P,C30,2*%
%TO.N,Net-(C30-Pad2)*%
X63900000Y-40050000D03*
%TD*%
D10*
%TO.P,C31,1*%
%TO.N,Pulse_IN*%
X64800000Y-39150000D03*
D11*
%TO.P,C31,2*%
%TO.N,Net-(C31-Pad2)*%
X63900000Y-39150000D03*
%TD*%
D12*
%TO.P,C37,1*%
%TO.N,Pulse_IN*%
X69150000Y-68150000D03*
D13*
%TO.P,C37,2*%
%TO.N,Net-(C37-Pad2)*%
X70050000Y-68150000D03*
%TD*%
D18*
%TO.N,Net-(C1-Pad2)*%
X62700000Y-72050000D03*
%TO.N,Net-(C2-Pad2)*%
X62700000Y-71250000D03*
%TO.N,Net-(C3-Pad2)*%
X62700000Y-70400000D03*
%TO.N,Net-(C4-Pad2)*%
X62700000Y-69550000D03*
%TO.N,Net-(C5-Pad2)*%
X62700000Y-68100000D03*
%TO.N,Net-(C6-Pad2)*%
X62700000Y-67250000D03*
%TO.N,Net-(C7-Pad2)*%
X62700000Y-66350000D03*
%TO.N,Net-(C8-Pad2)*%
X62700000Y-65500000D03*
%TO.N,Net-(C9-Pad2)*%
X62700000Y-64050000D03*
%TO.N,Net-(C10-Pad2)*%
X62700000Y-63250000D03*
%TO.N,Net-(C11-Pad2)*%
X62700000Y-62400000D03*
%TO.N,Net-(C12-Pad2)*%
X62700000Y-61550000D03*
%TO.N,Net-(C13-Pad2)*%
X62700000Y-60100000D03*
%TO.N,Net-(C14-Pad2)*%
X62700000Y-59250000D03*
%TO.N,Net-(C15-Pad2)*%
X62700000Y-58350000D03*
%TO.N,Net-(C16-Pad2)*%
X62700000Y-57500000D03*
%TO.N,Net-(C17-Pad2)*%
X62650000Y-52850000D03*
%TO.N,Net-(C18-Pad2)*%
X62650000Y-52050000D03*
%TO.N,Net-(C19-Pad2)*%
X62650000Y-51200000D03*
%TO.N,Net-(C20-Pad2)*%
X62650000Y-50350000D03*
%TO.N,Net-(C21-Pad2)*%
X62650000Y-48900000D03*
%TO.N,Net-(C22-Pad2)*%
X62650000Y-48050000D03*
%TO.N,Net-(C23-Pad2)*%
X62650000Y-47150000D03*
%TO.N,Net-(C24-Pad2)*%
X62650000Y-46300000D03*
%TO.N,Net-(C25-Pad2)*%
X62650000Y-44850000D03*
%TO.N,Net-(C26-Pad2)*%
X62650000Y-44050000D03*
%TO.N,Net-(C27-Pad2)*%
X62650000Y-43200000D03*
%TO.N,Net-(C28-Pad2)*%
X62650000Y-42350000D03*
%TO.N,Net-(C29-Pad2)*%
X62650000Y-40900000D03*
%TO.N,Net-(C30-Pad2)*%
X62650000Y-40050000D03*
%TO.N,Net-(C31-Pad2)*%
X62650000Y-39150000D03*
%TO.N,Net-(C32-Pad2)*%
X62650000Y-38300000D03*
%TO.N,Net-(C33-Pad2)*%
X71300000Y-72100000D03*
%TO.N,Net-(C34-Pad2)*%
X71300000Y-71250000D03*
%TO.N,Net-(C35-Pad2)*%
X71300000Y-70350000D03*
%TO.N,Net-(C36-Pad2)*%
X71300000Y-69500000D03*
%TO.N,Net-(C37-Pad2)*%
X71300000Y-68050000D03*
%TO.N,Net-(C38-Pad2)*%
X71300000Y-67200000D03*
%TO.N,Net-(C39-Pad2)*%
X71300000Y-66350000D03*
%TO.N,Net-(C40-Pad2)*%
X71300000Y-65550000D03*
%TO.N,Net-(C41-Pad2)*%
X71300000Y-64100000D03*
%TO.N,Net-(C42-Pad2)*%
X71300000Y-63250000D03*
%TO.N,Net-(C43-Pad2)*%
X71300000Y-62350000D03*
%TO.N,Net-(C44-Pad2)*%
X71300000Y-61500000D03*
%TO.N,Net-(C45-Pad2)*%
X71300000Y-60050000D03*
%TO.N,Net-(C46-Pad2)*%
X71300000Y-59200000D03*
%TO.N,Net-(C47-Pad2)*%
X71300000Y-58350000D03*
%TO.N,Net-(C48-Pad2)*%
X71300000Y-57550000D03*
%TO.N,Net-(C49-Pad2)*%
X71330000Y-52900000D03*
%TO.N,Net-(C50-Pad2)*%
X71330000Y-52050000D03*
%TO.N,Net-(C51-Pad2)*%
X71330000Y-51150000D03*
%TO.N,Net-(C52-Pad2)*%
X71330000Y-50300000D03*
%TO.N,Net-(C53-Pad2)*%
X71330000Y-48850000D03*
%TO.N,Net-(C54-Pad2)*%
X71330000Y-48000000D03*
%TO.N,Net-(C55-Pad2)*%
X71330000Y-47150000D03*
%TO.N,Net-(C56-Pad2)*%
X71330000Y-46350000D03*
%TO.N,Net-(C57-Pad2)*%
X71330000Y-44900000D03*
%TO.N,Net-(C58-Pad2)*%
X71330000Y-44050000D03*
%TO.N,Net-(C59-Pad2)*%
X71330000Y-43150000D03*
%TO.N,Net-(C60-Pad2)*%
X71330000Y-42300000D03*
%TO.N,Net-(C61-Pad2)*%
X71330000Y-40850000D03*
%TO.N,Net-(C62-Pad2)*%
X71330000Y-40000000D03*
%TO.N,Net-(C63-Pad2)*%
X71330000Y-39150000D03*
%TO.N,Net-(C64-Pad2)*%
X71330000Y-38350000D03*
%TO.N,GND*%
X71250000Y-74500000D03*
X71250000Y-77700000D03*
X72050000Y-75300000D03*
X70450000Y-73700000D03*
X63550000Y-73700000D03*
X70450000Y-78500000D03*
X62750000Y-74500000D03*
X71250000Y-80900000D03*
X71250000Y-76100000D03*
X63550000Y-78500000D03*
X72050000Y-78500000D03*
X61950000Y-76900000D03*
X61950000Y-73700000D03*
X62750000Y-77700000D03*
X63550000Y-75300000D03*
X63550000Y-81700000D03*
X63550000Y-80100000D03*
X70450000Y-75300000D03*
X62750000Y-79300000D03*
X62750000Y-76100000D03*
X63550000Y-76900000D03*
X61950000Y-80100000D03*
X70450000Y-76900000D03*
X70450000Y-81700000D03*
X72050000Y-76900000D03*
X70450000Y-80100000D03*
X61950000Y-78500000D03*
X62750000Y-80900000D03*
X72050000Y-80100000D03*
X61950000Y-75300000D03*
X72050000Y-73700000D03*
X71250000Y-79300000D03*
%TD*%
D19*
%TO.N,Net-(C1-Pad2)*%
X63950000Y-72150000D02*
X62800000Y-72150000D01*
X62800000Y-72150000D02*
X62700000Y-72050000D01*
D20*
%TO.N,Pulse_IN*%
X64800000Y-52900000D02*
X66250000Y-52900000D01*
X69150000Y-71250000D02*
X67650000Y-71250000D01*
X69150000Y-48950000D02*
X67750000Y-48950000D01*
X64800000Y-47150000D02*
X66300000Y-47150000D01*
X69150000Y-39150000D02*
X67800000Y-39150000D01*
X64800000Y-44950000D02*
X66300000Y-44950000D01*
X69150000Y-44050000D02*
X67650000Y-44050000D01*
X69150000Y-57450000D02*
X67800000Y-57450000D01*
X69150000Y-59250000D02*
X67800000Y-59250000D01*
X64850000Y-64150000D02*
X66400000Y-64150000D01*
X69150000Y-63250000D02*
X67750000Y-63250000D01*
X64800000Y-40950000D02*
X66200000Y-40950000D01*
X69150000Y-65450000D02*
X67750000Y-65450000D01*
X69150000Y-64150000D02*
X67700000Y-64150000D01*
X69150000Y-60150000D02*
X67750000Y-60150000D01*
X69150000Y-62350000D02*
X67750000Y-62350000D01*
X69150000Y-43150000D02*
X67800000Y-43150000D01*
X64800000Y-48050000D02*
X66300000Y-48050000D01*
X64850000Y-57450000D02*
X66250000Y-57450000D01*
X64800000Y-52000000D02*
X66250000Y-52000000D01*
X69150000Y-48050000D02*
X67650000Y-48050000D01*
X69150000Y-40950000D02*
X67800000Y-40950000D01*
X69150000Y-72150000D02*
X67700000Y-72150000D01*
X69150000Y-42250000D02*
X67700000Y-42250000D01*
X64850000Y-62350000D02*
X66250000Y-62350000D01*
X69150000Y-69450000D02*
X67650000Y-69450000D01*
X64800000Y-51100000D02*
X66300000Y-51100000D01*
X64850000Y-63250000D02*
X66350000Y-63250000D01*
X69150000Y-66350000D02*
X67750000Y-66350000D01*
X69150000Y-61450000D02*
X67700000Y-61450000D01*
X64850000Y-72150000D02*
X66400000Y-72150000D01*
X64800000Y-48950000D02*
X66300000Y-48950000D01*
X64850000Y-59250000D02*
X66400000Y-59250000D01*
X64800000Y-39150000D02*
X66250000Y-39150000D01*
X64800000Y-50200000D02*
X66300000Y-50200000D01*
X69150000Y-58350000D02*
X67800000Y-58350000D01*
X69150000Y-52970000D02*
X67720000Y-52970000D01*
X64850000Y-65450000D02*
X66450000Y-65450000D01*
X64850000Y-71250000D02*
X66300000Y-71250000D01*
X64800000Y-46250000D02*
X66200000Y-46250000D01*
X69150000Y-38250000D02*
X67700000Y-38250000D01*
X64800000Y-44050000D02*
X66250000Y-44050000D01*
X67750000Y-60150000D02*
X67700000Y-60200000D01*
X64850000Y-68150000D02*
X66450000Y-68150000D01*
X64850000Y-61450000D02*
X66350000Y-61450000D01*
X69150000Y-67250000D02*
X67650000Y-67250000D01*
X64800000Y-40050000D02*
X66250000Y-40050000D01*
X64850000Y-67250000D02*
X66400000Y-67250000D01*
X69150000Y-47150000D02*
X67700000Y-47150000D01*
X69150000Y-46250000D02*
X67750000Y-46250000D01*
X64850000Y-66350000D02*
X66450000Y-66350000D01*
X69150000Y-50250000D02*
X67750000Y-50250000D01*
X64800000Y-38250000D02*
X66250000Y-38250000D01*
X64850000Y-69450000D02*
X66350000Y-69450000D01*
X66400000Y-59250000D02*
X66450000Y-59200000D01*
X69150000Y-51150000D02*
X67700000Y-51150000D01*
X64850000Y-70350000D02*
X66350000Y-70350000D01*
X69150000Y-70350000D02*
X67650000Y-70350000D01*
X64850000Y-58350000D02*
X66350000Y-58350000D01*
X69150000Y-68150000D02*
X67650000Y-68150000D01*
X64850000Y-60150000D02*
X66350000Y-60150000D01*
X69150000Y-52050000D02*
X67750000Y-52050000D01*
X64800000Y-42250000D02*
X66300000Y-42250000D01*
X69150000Y-44950000D02*
X67750000Y-44950000D01*
X64800000Y-43150000D02*
X66250000Y-43150000D01*
X69150000Y-40050000D02*
X67750000Y-40050000D01*
X67800000Y-59250000D02*
X67750000Y-59300000D01*
X67720000Y-52970000D02*
X67700000Y-52950000D01*
D19*
%TO.N,Net-(C2-Pad2)*%
X63950000Y-71250000D02*
X62700000Y-71250000D01*
%TO.N,Net-(C3-Pad2)*%
X62750000Y-70350000D02*
X62700000Y-70400000D01*
X63950000Y-70350000D02*
X62750000Y-70350000D01*
%TO.N,Net-(C4-Pad2)*%
X62800000Y-69450000D02*
X62700000Y-69550000D01*
X63950000Y-69450000D02*
X62800000Y-69450000D01*
%TO.N,Net-(C5-Pad2)*%
X62750000Y-68150000D02*
X62700000Y-68100000D01*
X63950000Y-68150000D02*
X62750000Y-68150000D01*
%TO.N,Net-(C6-Pad2)*%
X63950000Y-67250000D02*
X62700000Y-67250000D01*
%TO.N,Net-(C7-Pad2)*%
X63950000Y-66350000D02*
X62700000Y-66350000D01*
%TO.N,Net-(C8-Pad2)*%
X63950000Y-65450000D02*
X62750000Y-65450000D01*
X62750000Y-65450000D02*
X62700000Y-65500000D01*
%TO.N,Net-(C9-Pad2)*%
X62800000Y-64150000D02*
X62700000Y-64050000D01*
X63950000Y-64150000D02*
X62800000Y-64150000D01*
%TO.N,Net-(C10-Pad2)*%
X63950000Y-63250000D02*
X62700000Y-63250000D01*
%TO.N,Net-(C11-Pad2)*%
X63950000Y-62350000D02*
X62750000Y-62350000D01*
X62750000Y-62350000D02*
X62700000Y-62400000D01*
%TO.N,Net-(C12-Pad2)*%
X63950000Y-61450000D02*
X62800000Y-61450000D01*
X62800000Y-61450000D02*
X62700000Y-61550000D01*
%TO.N,Net-(C13-Pad2)*%
X62750000Y-60150000D02*
X62700000Y-60100000D01*
X63950000Y-60150000D02*
X62750000Y-60150000D01*
%TO.N,Net-(C14-Pad2)*%
X63950000Y-59250000D02*
X62700000Y-59250000D01*
%TO.N,Net-(C15-Pad2)*%
X63950000Y-58350000D02*
X62700000Y-58350000D01*
%TO.N,Net-(C16-Pad2)*%
X63950000Y-57450000D02*
X62750000Y-57450000D01*
X62750000Y-57450000D02*
X62700000Y-57500000D01*
%TO.N,Net-(C17-Pad2)*%
X62750000Y-52950000D02*
X62650000Y-52850000D01*
X63900000Y-52950000D02*
X62750000Y-52950000D01*
%TO.N,Net-(C18-Pad2)*%
X63900000Y-52050000D02*
X62650000Y-52050000D01*
%TO.N,Net-(C19-Pad2)*%
X62700000Y-51150000D02*
X62650000Y-51200000D01*
X63900000Y-51150000D02*
X62700000Y-51150000D01*
%TO.N,Net-(C20-Pad2)*%
X63900000Y-50250000D02*
X62750000Y-50250000D01*
X62750000Y-50250000D02*
X62650000Y-50350000D01*
%TO.N,Net-(C21-Pad2)*%
X62700000Y-48950000D02*
X62650000Y-48900000D01*
X63900000Y-48950000D02*
X62700000Y-48950000D01*
%TO.N,Net-(C22-Pad2)*%
X63900000Y-48050000D02*
X62650000Y-48050000D01*
%TO.N,Net-(C23-Pad2)*%
X63900000Y-47150000D02*
X62650000Y-47150000D01*
%TO.N,Net-(C24-Pad2)*%
X62700000Y-46250000D02*
X62650000Y-46300000D01*
X63900000Y-46250000D02*
X62700000Y-46250000D01*
%TO.N,Net-(C25-Pad2)*%
X63900000Y-44950000D02*
X62750000Y-44950000D01*
X62750000Y-44950000D02*
X62650000Y-44850000D01*
%TO.N,Net-(C26-Pad2)*%
X63900000Y-44050000D02*
X62650000Y-44050000D01*
%TO.N,Net-(C27-Pad2)*%
X63900000Y-43150000D02*
X62700000Y-43150000D01*
X62700000Y-43150000D02*
X62650000Y-43200000D01*
%TO.N,Net-(C28-Pad2)*%
X62750000Y-42250000D02*
X62650000Y-42350000D01*
X63900000Y-42250000D02*
X62750000Y-42250000D01*
%TO.N,Net-(C29-Pad2)*%
X62700000Y-40950000D02*
X62650000Y-40900000D01*
X63900000Y-40950000D02*
X62700000Y-40950000D01*
%TO.N,Net-(C30-Pad2)*%
X63900000Y-40050000D02*
X62650000Y-40050000D01*
%TO.N,Net-(C31-Pad2)*%
X63900000Y-39150000D02*
X62650000Y-39150000D01*
%TO.N,Net-(C32-Pad2)*%
X63900000Y-38250000D02*
X62700000Y-38250000D01*
X62700000Y-38250000D02*
X62650000Y-38300000D01*
%TO.N,Net-(C33-Pad2)*%
X70050000Y-72150000D02*
X71250000Y-72150000D01*
X71250000Y-72150000D02*
X71300000Y-72100000D01*
%TO.N,Net-(C34-Pad2)*%
X70050000Y-71250000D02*
X71300000Y-71250000D01*
%TO.N,Net-(C35-Pad2)*%
X70050000Y-70350000D02*
X71300000Y-70350000D01*
%TO.N,Net-(C36-Pad2)*%
X70050000Y-69450000D02*
X71250000Y-69450000D01*
X71250000Y-69450000D02*
X71300000Y-69500000D01*
%TO.N,Net-(C37-Pad2)*%
X70050000Y-68150000D02*
X71200000Y-68150000D01*
X71200000Y-68150000D02*
X71300000Y-68050000D01*
%TO.N,Net-(C38-Pad2)*%
X71250000Y-67250000D02*
X71300000Y-67200000D01*
X70050000Y-67250000D02*
X71250000Y-67250000D01*
%TO.N,Net-(C39-Pad2)*%
X70050000Y-66350000D02*
X71300000Y-66350000D01*
%TO.N,Net-(C40-Pad2)*%
X71200000Y-65450000D02*
X71300000Y-65550000D01*
X70050000Y-65450000D02*
X71200000Y-65450000D01*
%TO.N,Net-(C41-Pad2)*%
X71250000Y-64150000D02*
X71300000Y-64100000D01*
X70050000Y-64150000D02*
X71250000Y-64150000D01*
%TO.N,Net-(C42-Pad2)*%
X70050000Y-63250000D02*
X71300000Y-63250000D01*
%TO.N,Net-(C43-Pad2)*%
X70050000Y-62350000D02*
X71300000Y-62350000D01*
%TO.N,Net-(C44-Pad2)*%
X71250000Y-61450000D02*
X71300000Y-61500000D01*
X70050000Y-61450000D02*
X71250000Y-61450000D01*
%TO.N,Net-(C45-Pad2)*%
X70050000Y-60150000D02*
X71200000Y-60150000D01*
X71200000Y-60150000D02*
X71300000Y-60050000D01*
%TO.N,Net-(C46-Pad2)*%
X71250000Y-59250000D02*
X71300000Y-59200000D01*
X70050000Y-59250000D02*
X71250000Y-59250000D01*
%TO.N,Net-(C47-Pad2)*%
X70050000Y-58350000D02*
X71300000Y-58350000D01*
%TO.N,Net-(C48-Pad2)*%
X70050000Y-57450000D02*
X71200000Y-57450000D01*
X71200000Y-57450000D02*
X71300000Y-57550000D01*
%TO.N,Net-(C49-Pad2)*%
X70080000Y-52950000D02*
X71280000Y-52950000D01*
X71280000Y-52950000D02*
X71330000Y-52900000D01*
%TO.N,Net-(C50-Pad2)*%
X70080000Y-52050000D02*
X71330000Y-52050000D01*
%TO.N,Net-(C51-Pad2)*%
X70080000Y-51150000D02*
X71330000Y-51150000D01*
%TO.N,Net-(C52-Pad2)*%
X70080000Y-50250000D02*
X71280000Y-50250000D01*
X71280000Y-50250000D02*
X71330000Y-50300000D01*
%TO.N,Net-(C53-Pad2)*%
X70080000Y-48950000D02*
X71230000Y-48950000D01*
X71230000Y-48950000D02*
X71330000Y-48850000D01*
%TO.N,Net-(C54-Pad2)*%
X71280000Y-48050000D02*
X71330000Y-48000000D01*
X70080000Y-48050000D02*
X71280000Y-48050000D01*
%TO.N,Net-(C55-Pad2)*%
X70080000Y-47150000D02*
X71330000Y-47150000D01*
%TO.N,Net-(C56-Pad2)*%
X71230000Y-46250000D02*
X71330000Y-46350000D01*
X70080000Y-46250000D02*
X71230000Y-46250000D01*
%TO.N,Net-(C57-Pad2)*%
X71280000Y-44950000D02*
X71330000Y-44900000D01*
X70080000Y-44950000D02*
X71280000Y-44950000D01*
%TO.N,Net-(C58-Pad2)*%
X70080000Y-44050000D02*
X71330000Y-44050000D01*
%TO.N,Net-(C59-Pad2)*%
X70080000Y-43150000D02*
X71330000Y-43150000D01*
%TO.N,Net-(C60-Pad2)*%
X71280000Y-42250000D02*
X71330000Y-42300000D01*
X70080000Y-42250000D02*
X71280000Y-42250000D01*
%TO.N,Net-(C61-Pad2)*%
X70080000Y-40950000D02*
X71230000Y-40950000D01*
X71230000Y-40950000D02*
X71330000Y-40850000D01*
%TO.N,Net-(C62-Pad2)*%
X70080000Y-40050000D02*
X71280000Y-40050000D01*
X71280000Y-40050000D02*
X71330000Y-40000000D01*
%TO.N,Net-(C63-Pad2)*%
X70080000Y-39150000D02*
X71330000Y-39150000D01*
%TO.N,Net-(C64-Pad2)*%
X71230000Y-38250000D02*
X71330000Y-38350000D01*
X70080000Y-38250000D02*
X71230000Y-38250000D01*
%TD*%
%TA.AperFunction,Conductor*%
%TO.N,GND*%
G36*
X72998276Y-79076266D02*
G01*
X72998144Y-79081994D01*
X72981394Y-79444233D01*
X72980337Y-79455637D01*
X72930631Y-79811962D01*
X72928526Y-79823220D01*
X72846157Y-80173427D01*
X72843023Y-80184443D01*
X72728689Y-80525568D01*
X72724551Y-80536249D01*
X72579231Y-80865364D01*
X72574126Y-80875616D01*
X72399061Y-81189915D01*
X72393032Y-81199653D01*
X72189707Y-81496473D01*
X72182804Y-81505613D01*
X71952969Y-81782392D01*
X71945253Y-81790856D01*
X71690856Y-82045253D01*
X71682392Y-82052969D01*
X71405613Y-82282804D01*
X71396473Y-82289707D01*
X71099653Y-82493032D01*
X71089915Y-82499061D01*
X70775616Y-82674126D01*
X70765364Y-82679231D01*
X70436249Y-82824551D01*
X70425569Y-82828689D01*
X70350028Y-82854007D01*
X70231984Y-82893572D01*
X70192580Y-82900000D01*
X69399500Y-82900000D01*
X69332461Y-82880315D01*
X69286706Y-82827511D01*
X69275500Y-82776000D01*
X69275500Y-79934110D01*
X69275500Y-79934108D01*
X69241392Y-79806814D01*
X69175500Y-79692686D01*
X69086318Y-79603504D01*
X69052834Y-79542180D01*
X69050000Y-79515823D01*
X69050000Y-79300000D01*
X69050000Y-77100000D01*
X72998276Y-77100000D01*
X72998276Y-79076266D01*
G37*
%TD.AperFunction*%
%TD*%
%TA.AperFunction,Conductor*%
%TO.N,GND*%
G36*
X72941315Y-73019685D02*
G01*
X72987070Y-73072489D01*
X72998276Y-73124000D01*
X72998276Y-79076266D01*
X72998144Y-79081993D01*
X72988064Y-79300000D01*
X68374000Y-79300000D01*
X68306961Y-79280315D01*
X68261206Y-79227511D01*
X68250000Y-79176000D01*
X68250000Y-76673663D01*
X68262162Y-76620107D01*
X68275129Y-76593029D01*
X68295091Y-76518529D01*
X68305500Y-76439461D01*
X68305500Y-73124000D01*
X68325185Y-73056961D01*
X68377989Y-73011206D01*
X68429500Y-73000000D01*
X72874276Y-73000000D01*
X72941315Y-73019685D01*
G37*
%TD.AperFunction*%
%TD*%
%TA.AperFunction,Conductor*%
%TO.N,Pulse_IN*%
G36*
X67925500Y-38019962D02*
G01*
X67980038Y-38074500D01*
X68000000Y-38149000D01*
X68000000Y-76439461D01*
X67980038Y-76513961D01*
X67938024Y-76560406D01*
X67921979Y-76571950D01*
X67860690Y-76666006D01*
X67860682Y-76666020D01*
X67857744Y-76673113D01*
X67855133Y-76679630D01*
X67855130Y-76679639D01*
X67834500Y-76789997D01*
X67834500Y-79350500D01*
X67814538Y-79425000D01*
X67760000Y-79479538D01*
X67685500Y-79499500D01*
X66314500Y-79499500D01*
X66240000Y-79479538D01*
X66185462Y-79425000D01*
X66165500Y-79350500D01*
X66165500Y-76790003D01*
X66165418Y-76782943D01*
X66165418Y-76782940D01*
X66142244Y-76673087D01*
X66139315Y-76666016D01*
X66133617Y-76653112D01*
X66068047Y-76561978D01*
X66067650Y-76561719D01*
X66066898Y-76560882D01*
X66058060Y-76552442D01*
X66058711Y-76551759D01*
X66016133Y-76504319D01*
X66000000Y-76436886D01*
X66000000Y-38149000D01*
X66019962Y-38074500D01*
X66074500Y-38019962D01*
X66149000Y-38000000D01*
X67851000Y-38000000D01*
X67925500Y-38019962D01*
G37*
%TD.AperFunction*%
%TD*%
%TA.AperFunction,Conductor*%
%TO.N,GND*%
G36*
X65637539Y-73019685D02*
G01*
X65683294Y-73072489D01*
X65694500Y-73124000D01*
X65694500Y-73799627D01*
X65674815Y-73866666D01*
X65622011Y-73912421D01*
X65552853Y-73922365D01*
X65489297Y-73893340D01*
X65482819Y-73887308D01*
X65444794Y-73849283D01*
X65444790Y-73849280D01*
X65320238Y-73766056D01*
X65320229Y-73766051D01*
X65181830Y-73708725D01*
X65181822Y-73708723D01*
X65034907Y-73679500D01*
X65034903Y-73679500D01*
X64885097Y-73679500D01*
X64885092Y-73679500D01*
X64738177Y-73708723D01*
X64738169Y-73708725D01*
X64599770Y-73766051D01*
X64599761Y-73766056D01*
X64475209Y-73849280D01*
X64475205Y-73849283D01*
X64369283Y-73955205D01*
X64369280Y-73955209D01*
X64286056Y-74079761D01*
X64286051Y-74079770D01*
X64228725Y-74218169D01*
X64228723Y-74218177D01*
X64199500Y-74365092D01*
X64199500Y-74514907D01*
X64228723Y-74661822D01*
X64228725Y-74661830D01*
X64286051Y-74800229D01*
X64286056Y-74800238D01*
X64369280Y-74924790D01*
X64369283Y-74924794D01*
X64475205Y-75030716D01*
X64475209Y-75030719D01*
X64599761Y-75113943D01*
X64599767Y-75113946D01*
X64599768Y-75113947D01*
X64738170Y-75171275D01*
X64885092Y-75200499D01*
X64885096Y-75200500D01*
X64885097Y-75200500D01*
X65034904Y-75200500D01*
X65034905Y-75200499D01*
X65181830Y-75171275D01*
X65320232Y-75113947D01*
X65444791Y-75030719D01*
X65444794Y-75030716D01*
X65482819Y-74992692D01*
X65544142Y-74959207D01*
X65613834Y-74964191D01*
X65669767Y-75006063D01*
X65694184Y-75071527D01*
X65694500Y-75080373D01*
X65694500Y-76436880D01*
X65694501Y-76436898D01*
X65702883Y-76507963D01*
X65719015Y-76575393D01*
X65730415Y-76612464D01*
X65730416Y-76612467D01*
X65731926Y-76614948D01*
X65732579Y-76617279D01*
X65733577Y-76619498D01*
X65733243Y-76619647D01*
X65750000Y-76679412D01*
X65750000Y-79176000D01*
X65730315Y-79243039D01*
X65677511Y-79288794D01*
X65626000Y-79300000D01*
X61012146Y-79300000D01*
X61001855Y-79077423D01*
X61001723Y-79071696D01*
X61001723Y-73124000D01*
X61021408Y-73056961D01*
X61074212Y-73011206D01*
X61125723Y-73000000D01*
X65570500Y-73000000D01*
X65637539Y-73019685D01*
G37*
%TD.AperFunction*%
%TD*%
%TA.AperFunction,Conductor*%
%TO.N,GND*%
G36*
X64950000Y-79300000D02*
G01*
X64950000Y-79515823D01*
X64930315Y-79582862D01*
X64913682Y-79603504D01*
X64824500Y-79692686D01*
X64758608Y-79806812D01*
X64724500Y-79934108D01*
X64724500Y-82776000D01*
X64704815Y-82843039D01*
X64652011Y-82888794D01*
X64600500Y-82900000D01*
X63819718Y-82900000D01*
X63816655Y-82899500D01*
X63815032Y-82899911D01*
X63780312Y-82893572D01*
X63574431Y-82824567D01*
X63563750Y-82820429D01*
X63234639Y-82675111D01*
X63224387Y-82670006D01*
X62910084Y-82494938D01*
X62900351Y-82488912D01*
X62603532Y-82285585D01*
X62594392Y-82278683D01*
X62317620Y-82048854D01*
X62309155Y-82041138D01*
X62054755Y-81786736D01*
X62047039Y-81778272D01*
X61817200Y-81501486D01*
X61810298Y-81492346D01*
X61606978Y-81195533D01*
X61600949Y-81185795D01*
X61561629Y-81115203D01*
X61425876Y-80871480D01*
X61420784Y-80861253D01*
X61275458Y-80532119D01*
X61271330Y-80521465D01*
X61156987Y-80180311D01*
X61153860Y-80169321D01*
X61071487Y-79819092D01*
X61069384Y-79807841D01*
X61069240Y-79806812D01*
X61019679Y-79451513D01*
X61018623Y-79440116D01*
X61011342Y-79282635D01*
X61001854Y-79077422D01*
X61001723Y-79071696D01*
X61001723Y-77100000D01*
X64950000Y-77100000D01*
X64950000Y-79300000D01*
G37*
%TD.AperFunction*%
%TD*%
M02*
