%TF.GenerationSoftware,KiCad,Pcbnew,9.0.3*%
%TF.CreationDate,2025-10-02T16:46:52+09:00*%
%TF.ProjectId,STAG-Charge-Injector,53544147-2d43-4686-9172-67652d496e6a,rev?*%
%TF.SameCoordinates,Original*%
%TF.FileFunction,Legend,Bot*%
%TF.FilePolarity,Positive*%
%FSLAX46Y46*%
G04 Gerber Fmt 4.6, Leading zero omitted, Abs format (unit mm)*
G04 Created by KiCad (PCBNEW 9.0.3) date 2025-10-02 16:46:52*
%MOMM*%
%LPD*%
G01*
G04 APERTURE LIST*
%ADD10C,0.150000*%
%ADD11C,0.120000*%
%ADD12C,0.100000*%
%ADD13C,0.000000*%
G04 APERTURE END LIST*
D10*
X67339200Y-40270112D02*
X67382057Y-40398684D01*
X67382057Y-40398684D02*
X67382057Y-40612969D01*
X67382057Y-40612969D02*
X67339200Y-40698684D01*
X67339200Y-40698684D02*
X67296342Y-40741541D01*
X67296342Y-40741541D02*
X67210628Y-40784398D01*
X67210628Y-40784398D02*
X67124914Y-40784398D01*
X67124914Y-40784398D02*
X67039200Y-40741541D01*
X67039200Y-40741541D02*
X66996342Y-40698684D01*
X66996342Y-40698684D02*
X66953485Y-40612969D01*
X66953485Y-40612969D02*
X66910628Y-40441541D01*
X66910628Y-40441541D02*
X66867771Y-40355826D01*
X66867771Y-40355826D02*
X66824914Y-40312969D01*
X66824914Y-40312969D02*
X66739200Y-40270112D01*
X66739200Y-40270112D02*
X66653485Y-40270112D01*
X66653485Y-40270112D02*
X66567771Y-40312969D01*
X66567771Y-40312969D02*
X66524914Y-40355826D01*
X66524914Y-40355826D02*
X66482057Y-40441541D01*
X66482057Y-40441541D02*
X66482057Y-40655826D01*
X66482057Y-40655826D02*
X66524914Y-40784398D01*
X66482057Y-41041541D02*
X66482057Y-41555827D01*
X67382057Y-41298684D02*
X66482057Y-41298684D01*
X67124914Y-41812969D02*
X67124914Y-42241541D01*
X67382057Y-41727255D02*
X66482057Y-42027255D01*
X66482057Y-42027255D02*
X67382057Y-42327255D01*
X66524914Y-43098684D02*
X66482057Y-43012970D01*
X66482057Y-43012970D02*
X66482057Y-42884398D01*
X66482057Y-42884398D02*
X66524914Y-42755827D01*
X66524914Y-42755827D02*
X66610628Y-42670112D01*
X66610628Y-42670112D02*
X66696342Y-42627255D01*
X66696342Y-42627255D02*
X66867771Y-42584398D01*
X66867771Y-42584398D02*
X66996342Y-42584398D01*
X66996342Y-42584398D02*
X67167771Y-42627255D01*
X67167771Y-42627255D02*
X67253485Y-42670112D01*
X67253485Y-42670112D02*
X67339200Y-42755827D01*
X67339200Y-42755827D02*
X67382057Y-42884398D01*
X67382057Y-42884398D02*
X67382057Y-42970112D01*
X67382057Y-42970112D02*
X67339200Y-43098684D01*
X67339200Y-43098684D02*
X67296342Y-43141541D01*
X67296342Y-43141541D02*
X66996342Y-43141541D01*
X66996342Y-43141541D02*
X66996342Y-42970112D01*
X67296342Y-44727255D02*
X67339200Y-44684398D01*
X67339200Y-44684398D02*
X67382057Y-44555826D01*
X67382057Y-44555826D02*
X67382057Y-44470112D01*
X67382057Y-44470112D02*
X67339200Y-44341541D01*
X67339200Y-44341541D02*
X67253485Y-44255826D01*
X67253485Y-44255826D02*
X67167771Y-44212969D01*
X67167771Y-44212969D02*
X66996342Y-44170112D01*
X66996342Y-44170112D02*
X66867771Y-44170112D01*
X66867771Y-44170112D02*
X66696342Y-44212969D01*
X66696342Y-44212969D02*
X66610628Y-44255826D01*
X66610628Y-44255826D02*
X66524914Y-44341541D01*
X66524914Y-44341541D02*
X66482057Y-44470112D01*
X66482057Y-44470112D02*
X66482057Y-44555826D01*
X66482057Y-44555826D02*
X66524914Y-44684398D01*
X66524914Y-44684398D02*
X66567771Y-44727255D01*
X67382057Y-45112969D02*
X66482057Y-45112969D01*
X67382057Y-45498684D02*
X66910628Y-45498684D01*
X66910628Y-45498684D02*
X66824914Y-45455826D01*
X66824914Y-45455826D02*
X66782057Y-45370112D01*
X66782057Y-45370112D02*
X66782057Y-45241541D01*
X66782057Y-45241541D02*
X66824914Y-45155826D01*
X66824914Y-45155826D02*
X66867771Y-45112969D01*
X67382057Y-46312970D02*
X66910628Y-46312970D01*
X66910628Y-46312970D02*
X66824914Y-46270112D01*
X66824914Y-46270112D02*
X66782057Y-46184398D01*
X66782057Y-46184398D02*
X66782057Y-46012970D01*
X66782057Y-46012970D02*
X66824914Y-45927255D01*
X67339200Y-46312970D02*
X67382057Y-46227255D01*
X67382057Y-46227255D02*
X67382057Y-46012970D01*
X67382057Y-46012970D02*
X67339200Y-45927255D01*
X67339200Y-45927255D02*
X67253485Y-45884398D01*
X67253485Y-45884398D02*
X67167771Y-45884398D01*
X67167771Y-45884398D02*
X67082057Y-45927255D01*
X67082057Y-45927255D02*
X67039200Y-46012970D01*
X67039200Y-46012970D02*
X67039200Y-46227255D01*
X67039200Y-46227255D02*
X66996342Y-46312970D01*
X67382057Y-46741541D02*
X66782057Y-46741541D01*
X66953485Y-46741541D02*
X66867771Y-46784398D01*
X66867771Y-46784398D02*
X66824914Y-46827256D01*
X66824914Y-46827256D02*
X66782057Y-46912970D01*
X66782057Y-46912970D02*
X66782057Y-46998684D01*
X66782057Y-47684399D02*
X67510628Y-47684399D01*
X67510628Y-47684399D02*
X67596342Y-47641541D01*
X67596342Y-47641541D02*
X67639200Y-47598684D01*
X67639200Y-47598684D02*
X67682057Y-47512970D01*
X67682057Y-47512970D02*
X67682057Y-47384399D01*
X67682057Y-47384399D02*
X67639200Y-47298684D01*
X67339200Y-47684399D02*
X67382057Y-47598684D01*
X67382057Y-47598684D02*
X67382057Y-47427256D01*
X67382057Y-47427256D02*
X67339200Y-47341541D01*
X67339200Y-47341541D02*
X67296342Y-47298684D01*
X67296342Y-47298684D02*
X67210628Y-47255827D01*
X67210628Y-47255827D02*
X66953485Y-47255827D01*
X66953485Y-47255827D02*
X66867771Y-47298684D01*
X66867771Y-47298684D02*
X66824914Y-47341541D01*
X66824914Y-47341541D02*
X66782057Y-47427256D01*
X66782057Y-47427256D02*
X66782057Y-47598684D01*
X66782057Y-47598684D02*
X66824914Y-47684399D01*
X67339200Y-48455827D02*
X67382057Y-48370113D01*
X67382057Y-48370113D02*
X67382057Y-48198685D01*
X67382057Y-48198685D02*
X67339200Y-48112970D01*
X67339200Y-48112970D02*
X67253485Y-48070113D01*
X67253485Y-48070113D02*
X66910628Y-48070113D01*
X66910628Y-48070113D02*
X66824914Y-48112970D01*
X66824914Y-48112970D02*
X66782057Y-48198685D01*
X66782057Y-48198685D02*
X66782057Y-48370113D01*
X66782057Y-48370113D02*
X66824914Y-48455827D01*
X66824914Y-48455827D02*
X66910628Y-48498685D01*
X66910628Y-48498685D02*
X66996342Y-48498685D01*
X66996342Y-48498685D02*
X67082057Y-48070113D01*
X67382057Y-49570113D02*
X66482057Y-49570113D01*
X66782057Y-49998684D02*
X67382057Y-49998684D01*
X66867771Y-49998684D02*
X66824914Y-50041541D01*
X66824914Y-50041541D02*
X66782057Y-50127256D01*
X66782057Y-50127256D02*
X66782057Y-50255827D01*
X66782057Y-50255827D02*
X66824914Y-50341541D01*
X66824914Y-50341541D02*
X66910628Y-50384399D01*
X66910628Y-50384399D02*
X67382057Y-50384399D01*
X66782057Y-50812970D02*
X67553485Y-50812970D01*
X67553485Y-50812970D02*
X67639200Y-50770113D01*
X67639200Y-50770113D02*
X67682057Y-50684399D01*
X67682057Y-50684399D02*
X67682057Y-50641542D01*
X66482057Y-50812970D02*
X66524914Y-50770113D01*
X66524914Y-50770113D02*
X66567771Y-50812970D01*
X66567771Y-50812970D02*
X66524914Y-50855827D01*
X66524914Y-50855827D02*
X66482057Y-50812970D01*
X66482057Y-50812970D02*
X66567771Y-50812970D01*
X67339200Y-51584398D02*
X67382057Y-51498684D01*
X67382057Y-51498684D02*
X67382057Y-51327256D01*
X67382057Y-51327256D02*
X67339200Y-51241541D01*
X67339200Y-51241541D02*
X67253485Y-51198684D01*
X67253485Y-51198684D02*
X66910628Y-51198684D01*
X66910628Y-51198684D02*
X66824914Y-51241541D01*
X66824914Y-51241541D02*
X66782057Y-51327256D01*
X66782057Y-51327256D02*
X66782057Y-51498684D01*
X66782057Y-51498684D02*
X66824914Y-51584398D01*
X66824914Y-51584398D02*
X66910628Y-51627256D01*
X66910628Y-51627256D02*
X66996342Y-51627256D01*
X66996342Y-51627256D02*
X67082057Y-51198684D01*
X67339200Y-52398685D02*
X67382057Y-52312970D01*
X67382057Y-52312970D02*
X67382057Y-52141542D01*
X67382057Y-52141542D02*
X67339200Y-52055827D01*
X67339200Y-52055827D02*
X67296342Y-52012970D01*
X67296342Y-52012970D02*
X67210628Y-51970113D01*
X67210628Y-51970113D02*
X66953485Y-51970113D01*
X66953485Y-51970113D02*
X66867771Y-52012970D01*
X66867771Y-52012970D02*
X66824914Y-52055827D01*
X66824914Y-52055827D02*
X66782057Y-52141542D01*
X66782057Y-52141542D02*
X66782057Y-52312970D01*
X66782057Y-52312970D02*
X66824914Y-52398685D01*
X66782057Y-52655828D02*
X66782057Y-52998685D01*
X66482057Y-52784399D02*
X67253485Y-52784399D01*
X67253485Y-52784399D02*
X67339200Y-52827256D01*
X67339200Y-52827256D02*
X67382057Y-52912971D01*
X67382057Y-52912971D02*
X67382057Y-52998685D01*
X67382057Y-53427257D02*
X67339200Y-53341542D01*
X67339200Y-53341542D02*
X67296342Y-53298685D01*
X67296342Y-53298685D02*
X67210628Y-53255828D01*
X67210628Y-53255828D02*
X66953485Y-53255828D01*
X66953485Y-53255828D02*
X66867771Y-53298685D01*
X66867771Y-53298685D02*
X66824914Y-53341542D01*
X66824914Y-53341542D02*
X66782057Y-53427257D01*
X66782057Y-53427257D02*
X66782057Y-53555828D01*
X66782057Y-53555828D02*
X66824914Y-53641542D01*
X66824914Y-53641542D02*
X66867771Y-53684400D01*
X66867771Y-53684400D02*
X66953485Y-53727257D01*
X66953485Y-53727257D02*
X67210628Y-53727257D01*
X67210628Y-53727257D02*
X67296342Y-53684400D01*
X67296342Y-53684400D02*
X67339200Y-53641542D01*
X67339200Y-53641542D02*
X67382057Y-53555828D01*
X67382057Y-53555828D02*
X67382057Y-53427257D01*
X67382057Y-54112971D02*
X66782057Y-54112971D01*
X66953485Y-54112971D02*
X66867771Y-54155828D01*
X66867771Y-54155828D02*
X66824914Y-54198686D01*
X66824914Y-54198686D02*
X66782057Y-54284400D01*
X66782057Y-54284400D02*
X66782057Y-54370114D01*
X66782057Y-55270114D02*
X67382057Y-55484400D01*
X67382057Y-55484400D02*
X66782057Y-55698685D01*
X67382057Y-56512971D02*
X67382057Y-55998685D01*
X67382057Y-56255828D02*
X66482057Y-56255828D01*
X66482057Y-56255828D02*
X66610628Y-56170114D01*
X66610628Y-56170114D02*
X66696342Y-56084399D01*
X66696342Y-56084399D02*
X66739200Y-55998685D01*
X67296342Y-56898685D02*
X67339200Y-56941542D01*
X67339200Y-56941542D02*
X67382057Y-56898685D01*
X67382057Y-56898685D02*
X67339200Y-56855828D01*
X67339200Y-56855828D02*
X67296342Y-56898685D01*
X67296342Y-56898685D02*
X67382057Y-56898685D01*
X66482057Y-57498685D02*
X66482057Y-57584399D01*
X66482057Y-57584399D02*
X66524914Y-57670113D01*
X66524914Y-57670113D02*
X66567771Y-57712971D01*
X66567771Y-57712971D02*
X66653485Y-57755828D01*
X66653485Y-57755828D02*
X66824914Y-57798685D01*
X66824914Y-57798685D02*
X67039200Y-57798685D01*
X67039200Y-57798685D02*
X67210628Y-57755828D01*
X67210628Y-57755828D02*
X67296342Y-57712971D01*
X67296342Y-57712971D02*
X67339200Y-57670113D01*
X67339200Y-57670113D02*
X67382057Y-57584399D01*
X67382057Y-57584399D02*
X67382057Y-57498685D01*
X67382057Y-57498685D02*
X67339200Y-57412971D01*
X67339200Y-57412971D02*
X67296342Y-57370113D01*
X67296342Y-57370113D02*
X67210628Y-57327256D01*
X67210628Y-57327256D02*
X67039200Y-57284399D01*
X67039200Y-57284399D02*
X66824914Y-57284399D01*
X66824914Y-57284399D02*
X66653485Y-57327256D01*
X66653485Y-57327256D02*
X66567771Y-57370113D01*
X66567771Y-57370113D02*
X66524914Y-57412971D01*
X66524914Y-57412971D02*
X66482057Y-57498685D01*
X67682057Y-59084399D02*
X66396342Y-59084399D01*
X67382057Y-60927256D02*
X66953485Y-60627256D01*
X67382057Y-60412970D02*
X66482057Y-60412970D01*
X66482057Y-60412970D02*
X66482057Y-60755827D01*
X66482057Y-60755827D02*
X66524914Y-60841542D01*
X66524914Y-60841542D02*
X66567771Y-60884399D01*
X66567771Y-60884399D02*
X66653485Y-60927256D01*
X66653485Y-60927256D02*
X66782057Y-60927256D01*
X66782057Y-60927256D02*
X66867771Y-60884399D01*
X66867771Y-60884399D02*
X66910628Y-60841542D01*
X66910628Y-60841542D02*
X66953485Y-60755827D01*
X66953485Y-60755827D02*
X66953485Y-60412970D01*
X67296342Y-61827256D02*
X67339200Y-61784399D01*
X67339200Y-61784399D02*
X67382057Y-61655827D01*
X67382057Y-61655827D02*
X67382057Y-61570113D01*
X67382057Y-61570113D02*
X67339200Y-61441542D01*
X67339200Y-61441542D02*
X67253485Y-61355827D01*
X67253485Y-61355827D02*
X67167771Y-61312970D01*
X67167771Y-61312970D02*
X66996342Y-61270113D01*
X66996342Y-61270113D02*
X66867771Y-61270113D01*
X66867771Y-61270113D02*
X66696342Y-61312970D01*
X66696342Y-61312970D02*
X66610628Y-61355827D01*
X66610628Y-61355827D02*
X66524914Y-61441542D01*
X66524914Y-61441542D02*
X66482057Y-61570113D01*
X66482057Y-61570113D02*
X66482057Y-61655827D01*
X66482057Y-61655827D02*
X66524914Y-61784399D01*
X66524914Y-61784399D02*
X66567771Y-61827256D01*
X67382057Y-62212970D02*
X66482057Y-62212970D01*
X66482057Y-62212970D02*
X67382057Y-62727256D01*
X67382057Y-62727256D02*
X66482057Y-62727256D01*
X67382057Y-63155827D02*
X66482057Y-63155827D01*
X66482057Y-63155827D02*
X66482057Y-63498684D01*
X66482057Y-63498684D02*
X66524914Y-63584399D01*
X66524914Y-63584399D02*
X66567771Y-63627256D01*
X66567771Y-63627256D02*
X66653485Y-63670113D01*
X66653485Y-63670113D02*
X66782057Y-63670113D01*
X66782057Y-63670113D02*
X66867771Y-63627256D01*
X66867771Y-63627256D02*
X66910628Y-63584399D01*
X66910628Y-63584399D02*
X66953485Y-63498684D01*
X66953485Y-63498684D02*
X66953485Y-63155827D01*
X67039200Y-64055827D02*
X67039200Y-64741542D01*
X66567771Y-65127256D02*
X66524914Y-65170113D01*
X66524914Y-65170113D02*
X66482057Y-65255828D01*
X66482057Y-65255828D02*
X66482057Y-65470113D01*
X66482057Y-65470113D02*
X66524914Y-65555828D01*
X66524914Y-65555828D02*
X66567771Y-65598685D01*
X66567771Y-65598685D02*
X66653485Y-65641542D01*
X66653485Y-65641542D02*
X66739200Y-65641542D01*
X66739200Y-65641542D02*
X66867771Y-65598685D01*
X66867771Y-65598685D02*
X67382057Y-65084399D01*
X67382057Y-65084399D02*
X67382057Y-65641542D01*
X66482057Y-66455828D02*
X66482057Y-66027256D01*
X66482057Y-66027256D02*
X66910628Y-65984399D01*
X66910628Y-65984399D02*
X66867771Y-66027256D01*
X66867771Y-66027256D02*
X66824914Y-66112971D01*
X66824914Y-66112971D02*
X66824914Y-66327256D01*
X66824914Y-66327256D02*
X66867771Y-66412971D01*
X66867771Y-66412971D02*
X66910628Y-66455828D01*
X66910628Y-66455828D02*
X66996342Y-66498685D01*
X66996342Y-66498685D02*
X67210628Y-66498685D01*
X67210628Y-66498685D02*
X67296342Y-66455828D01*
X67296342Y-66455828D02*
X67339200Y-66412971D01*
X67339200Y-66412971D02*
X67382057Y-66327256D01*
X67382057Y-66327256D02*
X67382057Y-66112971D01*
X67382057Y-66112971D02*
X67339200Y-66027256D01*
X67339200Y-66027256D02*
X67296342Y-65984399D01*
X66482057Y-67055828D02*
X66482057Y-67141542D01*
X66482057Y-67141542D02*
X66524914Y-67227256D01*
X66524914Y-67227256D02*
X66567771Y-67270114D01*
X66567771Y-67270114D02*
X66653485Y-67312971D01*
X66653485Y-67312971D02*
X66824914Y-67355828D01*
X66824914Y-67355828D02*
X67039200Y-67355828D01*
X67039200Y-67355828D02*
X67210628Y-67312971D01*
X67210628Y-67312971D02*
X67296342Y-67270114D01*
X67296342Y-67270114D02*
X67339200Y-67227256D01*
X67339200Y-67227256D02*
X67382057Y-67141542D01*
X67382057Y-67141542D02*
X67382057Y-67055828D01*
X67382057Y-67055828D02*
X67339200Y-66970114D01*
X67339200Y-66970114D02*
X67296342Y-66927256D01*
X67296342Y-66927256D02*
X67210628Y-66884399D01*
X67210628Y-66884399D02*
X67039200Y-66841542D01*
X67039200Y-66841542D02*
X66824914Y-66841542D01*
X66824914Y-66841542D02*
X66653485Y-66884399D01*
X66653485Y-66884399D02*
X66567771Y-66927256D01*
X66567771Y-66927256D02*
X66524914Y-66970114D01*
X66524914Y-66970114D02*
X66482057Y-67055828D01*
X66482057Y-68170114D02*
X66482057Y-67741542D01*
X66482057Y-67741542D02*
X66910628Y-67698685D01*
X66910628Y-67698685D02*
X66867771Y-67741542D01*
X66867771Y-67741542D02*
X66824914Y-67827257D01*
X66824914Y-67827257D02*
X66824914Y-68041542D01*
X66824914Y-68041542D02*
X66867771Y-68127257D01*
X66867771Y-68127257D02*
X66910628Y-68170114D01*
X66910628Y-68170114D02*
X66996342Y-68212971D01*
X66996342Y-68212971D02*
X67210628Y-68212971D01*
X67210628Y-68212971D02*
X67296342Y-68170114D01*
X67296342Y-68170114D02*
X67339200Y-68127257D01*
X67339200Y-68127257D02*
X67382057Y-68041542D01*
X67382057Y-68041542D02*
X67382057Y-67827257D01*
X67382057Y-67827257D02*
X67339200Y-67741542D01*
X67339200Y-67741542D02*
X67296342Y-67698685D01*
X67039200Y-68598685D02*
X67039200Y-69284400D01*
X67382057Y-70184400D02*
X67382057Y-69670114D01*
X67382057Y-69927257D02*
X66482057Y-69927257D01*
X66482057Y-69927257D02*
X66610628Y-69841543D01*
X66610628Y-69841543D02*
X66696342Y-69755828D01*
X66696342Y-69755828D02*
X66739200Y-69670114D01*
D11*
X62879386Y-53150926D02*
X62912719Y-53184260D01*
X62912719Y-53184260D02*
X63012719Y-53217593D01*
X63012719Y-53217593D02*
X63079386Y-53217593D01*
X63079386Y-53217593D02*
X63179386Y-53184260D01*
X63179386Y-53184260D02*
X63246053Y-53117593D01*
X63246053Y-53117593D02*
X63279386Y-53050926D01*
X63279386Y-53050926D02*
X63312719Y-52917593D01*
X63312719Y-52917593D02*
X63312719Y-52817593D01*
X63312719Y-52817593D02*
X63279386Y-52684260D01*
X63279386Y-52684260D02*
X63246053Y-52617593D01*
X63246053Y-52617593D02*
X63179386Y-52550926D01*
X63179386Y-52550926D02*
X63079386Y-52517593D01*
X63079386Y-52517593D02*
X63012719Y-52517593D01*
X63012719Y-52517593D02*
X62912719Y-52550926D01*
X62912719Y-52550926D02*
X62879386Y-52584260D01*
X62212719Y-53217593D02*
X62612719Y-53217593D01*
X62412719Y-53217593D02*
X62412719Y-52517593D01*
X62412719Y-52517593D02*
X62479386Y-52617593D01*
X62479386Y-52617593D02*
X62546053Y-52684260D01*
X62546053Y-52684260D02*
X62612719Y-52717593D01*
X61979386Y-52517593D02*
X61512719Y-52517593D01*
X61512719Y-52517593D02*
X61812719Y-53217593D01*
X62929386Y-59500926D02*
X62962719Y-59534260D01*
X62962719Y-59534260D02*
X63062719Y-59567593D01*
X63062719Y-59567593D02*
X63129386Y-59567593D01*
X63129386Y-59567593D02*
X63229386Y-59534260D01*
X63229386Y-59534260D02*
X63296053Y-59467593D01*
X63296053Y-59467593D02*
X63329386Y-59400926D01*
X63329386Y-59400926D02*
X63362719Y-59267593D01*
X63362719Y-59267593D02*
X63362719Y-59167593D01*
X63362719Y-59167593D02*
X63329386Y-59034260D01*
X63329386Y-59034260D02*
X63296053Y-58967593D01*
X63296053Y-58967593D02*
X63229386Y-58900926D01*
X63229386Y-58900926D02*
X63129386Y-58867593D01*
X63129386Y-58867593D02*
X63062719Y-58867593D01*
X63062719Y-58867593D02*
X62962719Y-58900926D01*
X62962719Y-58900926D02*
X62929386Y-58934260D01*
X62262719Y-59567593D02*
X62662719Y-59567593D01*
X62462719Y-59567593D02*
X62462719Y-58867593D01*
X62462719Y-58867593D02*
X62529386Y-58967593D01*
X62529386Y-58967593D02*
X62596053Y-59034260D01*
X62596053Y-59034260D02*
X62662719Y-59067593D01*
X61662719Y-59100926D02*
X61662719Y-59567593D01*
X61829386Y-58834260D02*
X61996052Y-59334260D01*
X61996052Y-59334260D02*
X61562719Y-59334260D01*
X62879386Y-38500926D02*
X62912719Y-38534260D01*
X62912719Y-38534260D02*
X63012719Y-38567593D01*
X63012719Y-38567593D02*
X63079386Y-38567593D01*
X63079386Y-38567593D02*
X63179386Y-38534260D01*
X63179386Y-38534260D02*
X63246053Y-38467593D01*
X63246053Y-38467593D02*
X63279386Y-38400926D01*
X63279386Y-38400926D02*
X63312719Y-38267593D01*
X63312719Y-38267593D02*
X63312719Y-38167593D01*
X63312719Y-38167593D02*
X63279386Y-38034260D01*
X63279386Y-38034260D02*
X63246053Y-37967593D01*
X63246053Y-37967593D02*
X63179386Y-37900926D01*
X63179386Y-37900926D02*
X63079386Y-37867593D01*
X63079386Y-37867593D02*
X63012719Y-37867593D01*
X63012719Y-37867593D02*
X62912719Y-37900926D01*
X62912719Y-37900926D02*
X62879386Y-37934260D01*
X62646053Y-37867593D02*
X62212719Y-37867593D01*
X62212719Y-37867593D02*
X62446053Y-38134260D01*
X62446053Y-38134260D02*
X62346053Y-38134260D01*
X62346053Y-38134260D02*
X62279386Y-38167593D01*
X62279386Y-38167593D02*
X62246053Y-38200926D01*
X62246053Y-38200926D02*
X62212719Y-38267593D01*
X62212719Y-38267593D02*
X62212719Y-38434260D01*
X62212719Y-38434260D02*
X62246053Y-38500926D01*
X62246053Y-38500926D02*
X62279386Y-38534260D01*
X62279386Y-38534260D02*
X62346053Y-38567593D01*
X62346053Y-38567593D02*
X62546053Y-38567593D01*
X62546053Y-38567593D02*
X62612719Y-38534260D01*
X62612719Y-38534260D02*
X62646053Y-38500926D01*
X61946052Y-37934260D02*
X61912719Y-37900926D01*
X61912719Y-37900926D02*
X61846052Y-37867593D01*
X61846052Y-37867593D02*
X61679386Y-37867593D01*
X61679386Y-37867593D02*
X61612719Y-37900926D01*
X61612719Y-37900926D02*
X61579386Y-37934260D01*
X61579386Y-37934260D02*
X61546052Y-38000926D01*
X61546052Y-38000926D02*
X61546052Y-38067593D01*
X61546052Y-38067593D02*
X61579386Y-38167593D01*
X61579386Y-38167593D02*
X61979386Y-38567593D01*
X61979386Y-38567593D02*
X61546052Y-38567593D01*
X62929386Y-57700926D02*
X62962719Y-57734260D01*
X62962719Y-57734260D02*
X63062719Y-57767593D01*
X63062719Y-57767593D02*
X63129386Y-57767593D01*
X63129386Y-57767593D02*
X63229386Y-57734260D01*
X63229386Y-57734260D02*
X63296053Y-57667593D01*
X63296053Y-57667593D02*
X63329386Y-57600926D01*
X63329386Y-57600926D02*
X63362719Y-57467593D01*
X63362719Y-57467593D02*
X63362719Y-57367593D01*
X63362719Y-57367593D02*
X63329386Y-57234260D01*
X63329386Y-57234260D02*
X63296053Y-57167593D01*
X63296053Y-57167593D02*
X63229386Y-57100926D01*
X63229386Y-57100926D02*
X63129386Y-57067593D01*
X63129386Y-57067593D02*
X63062719Y-57067593D01*
X63062719Y-57067593D02*
X62962719Y-57100926D01*
X62962719Y-57100926D02*
X62929386Y-57134260D01*
X62262719Y-57767593D02*
X62662719Y-57767593D01*
X62462719Y-57767593D02*
X62462719Y-57067593D01*
X62462719Y-57067593D02*
X62529386Y-57167593D01*
X62529386Y-57167593D02*
X62596053Y-57234260D01*
X62596053Y-57234260D02*
X62662719Y-57267593D01*
X61662719Y-57067593D02*
X61796052Y-57067593D01*
X61796052Y-57067593D02*
X61862719Y-57100926D01*
X61862719Y-57100926D02*
X61896052Y-57134260D01*
X61896052Y-57134260D02*
X61962719Y-57234260D01*
X61962719Y-57234260D02*
X61996052Y-57367593D01*
X61996052Y-57367593D02*
X61996052Y-57634260D01*
X61996052Y-57634260D02*
X61962719Y-57700926D01*
X61962719Y-57700926D02*
X61929386Y-57734260D01*
X61929386Y-57734260D02*
X61862719Y-57767593D01*
X61862719Y-57767593D02*
X61729386Y-57767593D01*
X61729386Y-57767593D02*
X61662719Y-57734260D01*
X61662719Y-57734260D02*
X61629386Y-57700926D01*
X61629386Y-57700926D02*
X61596052Y-57634260D01*
X61596052Y-57634260D02*
X61596052Y-57467593D01*
X61596052Y-57467593D02*
X61629386Y-57400926D01*
X61629386Y-57400926D02*
X61662719Y-57367593D01*
X61662719Y-57367593D02*
X61729386Y-57334260D01*
X61729386Y-57334260D02*
X61862719Y-57334260D01*
X61862719Y-57334260D02*
X61929386Y-57367593D01*
X61929386Y-57367593D02*
X61962719Y-57400926D01*
X61962719Y-57400926D02*
X61996052Y-57467593D01*
X62929386Y-71500926D02*
X62962719Y-71534260D01*
X62962719Y-71534260D02*
X63062719Y-71567593D01*
X63062719Y-71567593D02*
X63129386Y-71567593D01*
X63129386Y-71567593D02*
X63229386Y-71534260D01*
X63229386Y-71534260D02*
X63296053Y-71467593D01*
X63296053Y-71467593D02*
X63329386Y-71400926D01*
X63329386Y-71400926D02*
X63362719Y-71267593D01*
X63362719Y-71267593D02*
X63362719Y-71167593D01*
X63362719Y-71167593D02*
X63329386Y-71034260D01*
X63329386Y-71034260D02*
X63296053Y-70967593D01*
X63296053Y-70967593D02*
X63229386Y-70900926D01*
X63229386Y-70900926D02*
X63129386Y-70867593D01*
X63129386Y-70867593D02*
X63062719Y-70867593D01*
X63062719Y-70867593D02*
X62962719Y-70900926D01*
X62962719Y-70900926D02*
X62929386Y-70934260D01*
X62662719Y-70934260D02*
X62629386Y-70900926D01*
X62629386Y-70900926D02*
X62562719Y-70867593D01*
X62562719Y-70867593D02*
X62396053Y-70867593D01*
X62396053Y-70867593D02*
X62329386Y-70900926D01*
X62329386Y-70900926D02*
X62296053Y-70934260D01*
X62296053Y-70934260D02*
X62262719Y-71000926D01*
X62262719Y-71000926D02*
X62262719Y-71067593D01*
X62262719Y-71067593D02*
X62296053Y-71167593D01*
X62296053Y-71167593D02*
X62696053Y-71567593D01*
X62696053Y-71567593D02*
X62262719Y-71567593D01*
X62929386Y-62600926D02*
X62962719Y-62634260D01*
X62962719Y-62634260D02*
X63062719Y-62667593D01*
X63062719Y-62667593D02*
X63129386Y-62667593D01*
X63129386Y-62667593D02*
X63229386Y-62634260D01*
X63229386Y-62634260D02*
X63296053Y-62567593D01*
X63296053Y-62567593D02*
X63329386Y-62500926D01*
X63329386Y-62500926D02*
X63362719Y-62367593D01*
X63362719Y-62367593D02*
X63362719Y-62267593D01*
X63362719Y-62267593D02*
X63329386Y-62134260D01*
X63329386Y-62134260D02*
X63296053Y-62067593D01*
X63296053Y-62067593D02*
X63229386Y-62000926D01*
X63229386Y-62000926D02*
X63129386Y-61967593D01*
X63129386Y-61967593D02*
X63062719Y-61967593D01*
X63062719Y-61967593D02*
X62962719Y-62000926D01*
X62962719Y-62000926D02*
X62929386Y-62034260D01*
X62262719Y-62667593D02*
X62662719Y-62667593D01*
X62462719Y-62667593D02*
X62462719Y-61967593D01*
X62462719Y-61967593D02*
X62529386Y-62067593D01*
X62529386Y-62067593D02*
X62596053Y-62134260D01*
X62596053Y-62134260D02*
X62662719Y-62167593D01*
X61596052Y-62667593D02*
X61996052Y-62667593D01*
X61796052Y-62667593D02*
X61796052Y-61967593D01*
X61796052Y-61967593D02*
X61862719Y-62067593D01*
X61862719Y-62067593D02*
X61929386Y-62134260D01*
X61929386Y-62134260D02*
X61996052Y-62167593D01*
X71970614Y-38500926D02*
X72003947Y-38534260D01*
X72003947Y-38534260D02*
X72103947Y-38567593D01*
X72103947Y-38567593D02*
X72170614Y-38567593D01*
X72170614Y-38567593D02*
X72270614Y-38534260D01*
X72270614Y-38534260D02*
X72337281Y-38467593D01*
X72337281Y-38467593D02*
X72370614Y-38400926D01*
X72370614Y-38400926D02*
X72403947Y-38267593D01*
X72403947Y-38267593D02*
X72403947Y-38167593D01*
X72403947Y-38167593D02*
X72370614Y-38034260D01*
X72370614Y-38034260D02*
X72337281Y-37967593D01*
X72337281Y-37967593D02*
X72270614Y-37900926D01*
X72270614Y-37900926D02*
X72170614Y-37867593D01*
X72170614Y-37867593D02*
X72103947Y-37867593D01*
X72103947Y-37867593D02*
X72003947Y-37900926D01*
X72003947Y-37900926D02*
X71970614Y-37934260D01*
X71370614Y-37867593D02*
X71503947Y-37867593D01*
X71503947Y-37867593D02*
X71570614Y-37900926D01*
X71570614Y-37900926D02*
X71603947Y-37934260D01*
X71603947Y-37934260D02*
X71670614Y-38034260D01*
X71670614Y-38034260D02*
X71703947Y-38167593D01*
X71703947Y-38167593D02*
X71703947Y-38434260D01*
X71703947Y-38434260D02*
X71670614Y-38500926D01*
X71670614Y-38500926D02*
X71637281Y-38534260D01*
X71637281Y-38534260D02*
X71570614Y-38567593D01*
X71570614Y-38567593D02*
X71437281Y-38567593D01*
X71437281Y-38567593D02*
X71370614Y-38534260D01*
X71370614Y-38534260D02*
X71337281Y-38500926D01*
X71337281Y-38500926D02*
X71303947Y-38434260D01*
X71303947Y-38434260D02*
X71303947Y-38267593D01*
X71303947Y-38267593D02*
X71337281Y-38200926D01*
X71337281Y-38200926D02*
X71370614Y-38167593D01*
X71370614Y-38167593D02*
X71437281Y-38134260D01*
X71437281Y-38134260D02*
X71570614Y-38134260D01*
X71570614Y-38134260D02*
X71637281Y-38167593D01*
X71637281Y-38167593D02*
X71670614Y-38200926D01*
X71670614Y-38200926D02*
X71703947Y-38267593D01*
X70703947Y-38100926D02*
X70703947Y-38567593D01*
X70870614Y-37834260D02*
X71037280Y-38334260D01*
X71037280Y-38334260D02*
X70603947Y-38334260D01*
X62879386Y-50450926D02*
X62912719Y-50484260D01*
X62912719Y-50484260D02*
X63012719Y-50517593D01*
X63012719Y-50517593D02*
X63079386Y-50517593D01*
X63079386Y-50517593D02*
X63179386Y-50484260D01*
X63179386Y-50484260D02*
X63246053Y-50417593D01*
X63246053Y-50417593D02*
X63279386Y-50350926D01*
X63279386Y-50350926D02*
X63312719Y-50217593D01*
X63312719Y-50217593D02*
X63312719Y-50117593D01*
X63312719Y-50117593D02*
X63279386Y-49984260D01*
X63279386Y-49984260D02*
X63246053Y-49917593D01*
X63246053Y-49917593D02*
X63179386Y-49850926D01*
X63179386Y-49850926D02*
X63079386Y-49817593D01*
X63079386Y-49817593D02*
X63012719Y-49817593D01*
X63012719Y-49817593D02*
X62912719Y-49850926D01*
X62912719Y-49850926D02*
X62879386Y-49884260D01*
X62612719Y-49884260D02*
X62579386Y-49850926D01*
X62579386Y-49850926D02*
X62512719Y-49817593D01*
X62512719Y-49817593D02*
X62346053Y-49817593D01*
X62346053Y-49817593D02*
X62279386Y-49850926D01*
X62279386Y-49850926D02*
X62246053Y-49884260D01*
X62246053Y-49884260D02*
X62212719Y-49950926D01*
X62212719Y-49950926D02*
X62212719Y-50017593D01*
X62212719Y-50017593D02*
X62246053Y-50117593D01*
X62246053Y-50117593D02*
X62646053Y-50517593D01*
X62646053Y-50517593D02*
X62212719Y-50517593D01*
X61779386Y-49817593D02*
X61712719Y-49817593D01*
X61712719Y-49817593D02*
X61646052Y-49850926D01*
X61646052Y-49850926D02*
X61612719Y-49884260D01*
X61612719Y-49884260D02*
X61579386Y-49950926D01*
X61579386Y-49950926D02*
X61546052Y-50084260D01*
X61546052Y-50084260D02*
X61546052Y-50250926D01*
X61546052Y-50250926D02*
X61579386Y-50384260D01*
X61579386Y-50384260D02*
X61612719Y-50450926D01*
X61612719Y-50450926D02*
X61646052Y-50484260D01*
X61646052Y-50484260D02*
X61712719Y-50517593D01*
X61712719Y-50517593D02*
X61779386Y-50517593D01*
X61779386Y-50517593D02*
X61846052Y-50484260D01*
X61846052Y-50484260D02*
X61879386Y-50450926D01*
X61879386Y-50450926D02*
X61912719Y-50384260D01*
X61912719Y-50384260D02*
X61946052Y-50250926D01*
X61946052Y-50250926D02*
X61946052Y-50084260D01*
X61946052Y-50084260D02*
X61912719Y-49950926D01*
X61912719Y-49950926D02*
X61879386Y-49884260D01*
X61879386Y-49884260D02*
X61846052Y-49850926D01*
X61846052Y-49850926D02*
X61779386Y-49817593D01*
X62929386Y-63500926D02*
X62962719Y-63534260D01*
X62962719Y-63534260D02*
X63062719Y-63567593D01*
X63062719Y-63567593D02*
X63129386Y-63567593D01*
X63129386Y-63567593D02*
X63229386Y-63534260D01*
X63229386Y-63534260D02*
X63296053Y-63467593D01*
X63296053Y-63467593D02*
X63329386Y-63400926D01*
X63329386Y-63400926D02*
X63362719Y-63267593D01*
X63362719Y-63267593D02*
X63362719Y-63167593D01*
X63362719Y-63167593D02*
X63329386Y-63034260D01*
X63329386Y-63034260D02*
X63296053Y-62967593D01*
X63296053Y-62967593D02*
X63229386Y-62900926D01*
X63229386Y-62900926D02*
X63129386Y-62867593D01*
X63129386Y-62867593D02*
X63062719Y-62867593D01*
X63062719Y-62867593D02*
X62962719Y-62900926D01*
X62962719Y-62900926D02*
X62929386Y-62934260D01*
X62262719Y-63567593D02*
X62662719Y-63567593D01*
X62462719Y-63567593D02*
X62462719Y-62867593D01*
X62462719Y-62867593D02*
X62529386Y-62967593D01*
X62529386Y-62967593D02*
X62596053Y-63034260D01*
X62596053Y-63034260D02*
X62662719Y-63067593D01*
X61829386Y-62867593D02*
X61762719Y-62867593D01*
X61762719Y-62867593D02*
X61696052Y-62900926D01*
X61696052Y-62900926D02*
X61662719Y-62934260D01*
X61662719Y-62934260D02*
X61629386Y-63000926D01*
X61629386Y-63000926D02*
X61596052Y-63134260D01*
X61596052Y-63134260D02*
X61596052Y-63300926D01*
X61596052Y-63300926D02*
X61629386Y-63434260D01*
X61629386Y-63434260D02*
X61662719Y-63500926D01*
X61662719Y-63500926D02*
X61696052Y-63534260D01*
X61696052Y-63534260D02*
X61762719Y-63567593D01*
X61762719Y-63567593D02*
X61829386Y-63567593D01*
X61829386Y-63567593D02*
X61896052Y-63534260D01*
X61896052Y-63534260D02*
X61929386Y-63500926D01*
X61929386Y-63500926D02*
X61962719Y-63434260D01*
X61962719Y-63434260D02*
X61996052Y-63300926D01*
X61996052Y-63300926D02*
X61996052Y-63134260D01*
X61996052Y-63134260D02*
X61962719Y-63000926D01*
X61962719Y-63000926D02*
X61929386Y-62934260D01*
X61929386Y-62934260D02*
X61896052Y-62900926D01*
X61896052Y-62900926D02*
X61829386Y-62867593D01*
X62929386Y-69700926D02*
X62962719Y-69734260D01*
X62962719Y-69734260D02*
X63062719Y-69767593D01*
X63062719Y-69767593D02*
X63129386Y-69767593D01*
X63129386Y-69767593D02*
X63229386Y-69734260D01*
X63229386Y-69734260D02*
X63296053Y-69667593D01*
X63296053Y-69667593D02*
X63329386Y-69600926D01*
X63329386Y-69600926D02*
X63362719Y-69467593D01*
X63362719Y-69467593D02*
X63362719Y-69367593D01*
X63362719Y-69367593D02*
X63329386Y-69234260D01*
X63329386Y-69234260D02*
X63296053Y-69167593D01*
X63296053Y-69167593D02*
X63229386Y-69100926D01*
X63229386Y-69100926D02*
X63129386Y-69067593D01*
X63129386Y-69067593D02*
X63062719Y-69067593D01*
X63062719Y-69067593D02*
X62962719Y-69100926D01*
X62962719Y-69100926D02*
X62929386Y-69134260D01*
X62329386Y-69300926D02*
X62329386Y-69767593D01*
X62496053Y-69034260D02*
X62662719Y-69534260D01*
X62662719Y-69534260D02*
X62229386Y-69534260D01*
X71970614Y-67500926D02*
X72003947Y-67534260D01*
X72003947Y-67534260D02*
X72103947Y-67567593D01*
X72103947Y-67567593D02*
X72170614Y-67567593D01*
X72170614Y-67567593D02*
X72270614Y-67534260D01*
X72270614Y-67534260D02*
X72337281Y-67467593D01*
X72337281Y-67467593D02*
X72370614Y-67400926D01*
X72370614Y-67400926D02*
X72403947Y-67267593D01*
X72403947Y-67267593D02*
X72403947Y-67167593D01*
X72403947Y-67167593D02*
X72370614Y-67034260D01*
X72370614Y-67034260D02*
X72337281Y-66967593D01*
X72337281Y-66967593D02*
X72270614Y-66900926D01*
X72270614Y-66900926D02*
X72170614Y-66867593D01*
X72170614Y-66867593D02*
X72103947Y-66867593D01*
X72103947Y-66867593D02*
X72003947Y-66900926D01*
X72003947Y-66900926D02*
X71970614Y-66934260D01*
X71737281Y-66867593D02*
X71303947Y-66867593D01*
X71303947Y-66867593D02*
X71537281Y-67134260D01*
X71537281Y-67134260D02*
X71437281Y-67134260D01*
X71437281Y-67134260D02*
X71370614Y-67167593D01*
X71370614Y-67167593D02*
X71337281Y-67200926D01*
X71337281Y-67200926D02*
X71303947Y-67267593D01*
X71303947Y-67267593D02*
X71303947Y-67434260D01*
X71303947Y-67434260D02*
X71337281Y-67500926D01*
X71337281Y-67500926D02*
X71370614Y-67534260D01*
X71370614Y-67534260D02*
X71437281Y-67567593D01*
X71437281Y-67567593D02*
X71637281Y-67567593D01*
X71637281Y-67567593D02*
X71703947Y-67534260D01*
X71703947Y-67534260D02*
X71737281Y-67500926D01*
X70903947Y-67167593D02*
X70970614Y-67134260D01*
X70970614Y-67134260D02*
X71003947Y-67100926D01*
X71003947Y-67100926D02*
X71037280Y-67034260D01*
X71037280Y-67034260D02*
X71037280Y-67000926D01*
X71037280Y-67000926D02*
X71003947Y-66934260D01*
X71003947Y-66934260D02*
X70970614Y-66900926D01*
X70970614Y-66900926D02*
X70903947Y-66867593D01*
X70903947Y-66867593D02*
X70770614Y-66867593D01*
X70770614Y-66867593D02*
X70703947Y-66900926D01*
X70703947Y-66900926D02*
X70670614Y-66934260D01*
X70670614Y-66934260D02*
X70637280Y-67000926D01*
X70637280Y-67000926D02*
X70637280Y-67034260D01*
X70637280Y-67034260D02*
X70670614Y-67100926D01*
X70670614Y-67100926D02*
X70703947Y-67134260D01*
X70703947Y-67134260D02*
X70770614Y-67167593D01*
X70770614Y-67167593D02*
X70903947Y-67167593D01*
X70903947Y-67167593D02*
X70970614Y-67200926D01*
X70970614Y-67200926D02*
X71003947Y-67234260D01*
X71003947Y-67234260D02*
X71037280Y-67300926D01*
X71037280Y-67300926D02*
X71037280Y-67434260D01*
X71037280Y-67434260D02*
X71003947Y-67500926D01*
X71003947Y-67500926D02*
X70970614Y-67534260D01*
X70970614Y-67534260D02*
X70903947Y-67567593D01*
X70903947Y-67567593D02*
X70770614Y-67567593D01*
X70770614Y-67567593D02*
X70703947Y-67534260D01*
X70703947Y-67534260D02*
X70670614Y-67500926D01*
X70670614Y-67500926D02*
X70637280Y-67434260D01*
X70637280Y-67434260D02*
X70637280Y-67300926D01*
X70637280Y-67300926D02*
X70670614Y-67234260D01*
X70670614Y-67234260D02*
X70703947Y-67200926D01*
X70703947Y-67200926D02*
X70770614Y-67167593D01*
X62929386Y-68400926D02*
X62962719Y-68434260D01*
X62962719Y-68434260D02*
X63062719Y-68467593D01*
X63062719Y-68467593D02*
X63129386Y-68467593D01*
X63129386Y-68467593D02*
X63229386Y-68434260D01*
X63229386Y-68434260D02*
X63296053Y-68367593D01*
X63296053Y-68367593D02*
X63329386Y-68300926D01*
X63329386Y-68300926D02*
X63362719Y-68167593D01*
X63362719Y-68167593D02*
X63362719Y-68067593D01*
X63362719Y-68067593D02*
X63329386Y-67934260D01*
X63329386Y-67934260D02*
X63296053Y-67867593D01*
X63296053Y-67867593D02*
X63229386Y-67800926D01*
X63229386Y-67800926D02*
X63129386Y-67767593D01*
X63129386Y-67767593D02*
X63062719Y-67767593D01*
X63062719Y-67767593D02*
X62962719Y-67800926D01*
X62962719Y-67800926D02*
X62929386Y-67834260D01*
X62296053Y-67767593D02*
X62629386Y-67767593D01*
X62629386Y-67767593D02*
X62662719Y-68100926D01*
X62662719Y-68100926D02*
X62629386Y-68067593D01*
X62629386Y-68067593D02*
X62562719Y-68034260D01*
X62562719Y-68034260D02*
X62396053Y-68034260D01*
X62396053Y-68034260D02*
X62329386Y-68067593D01*
X62329386Y-68067593D02*
X62296053Y-68100926D01*
X62296053Y-68100926D02*
X62262719Y-68167593D01*
X62262719Y-68167593D02*
X62262719Y-68334260D01*
X62262719Y-68334260D02*
X62296053Y-68400926D01*
X62296053Y-68400926D02*
X62329386Y-68434260D01*
X62329386Y-68434260D02*
X62396053Y-68467593D01*
X62396053Y-68467593D02*
X62562719Y-68467593D01*
X62562719Y-68467593D02*
X62629386Y-68434260D01*
X62629386Y-68434260D02*
X62662719Y-68400926D01*
X71970614Y-39400926D02*
X72003947Y-39434260D01*
X72003947Y-39434260D02*
X72103947Y-39467593D01*
X72103947Y-39467593D02*
X72170614Y-39467593D01*
X72170614Y-39467593D02*
X72270614Y-39434260D01*
X72270614Y-39434260D02*
X72337281Y-39367593D01*
X72337281Y-39367593D02*
X72370614Y-39300926D01*
X72370614Y-39300926D02*
X72403947Y-39167593D01*
X72403947Y-39167593D02*
X72403947Y-39067593D01*
X72403947Y-39067593D02*
X72370614Y-38934260D01*
X72370614Y-38934260D02*
X72337281Y-38867593D01*
X72337281Y-38867593D02*
X72270614Y-38800926D01*
X72270614Y-38800926D02*
X72170614Y-38767593D01*
X72170614Y-38767593D02*
X72103947Y-38767593D01*
X72103947Y-38767593D02*
X72003947Y-38800926D01*
X72003947Y-38800926D02*
X71970614Y-38834260D01*
X71370614Y-38767593D02*
X71503947Y-38767593D01*
X71503947Y-38767593D02*
X71570614Y-38800926D01*
X71570614Y-38800926D02*
X71603947Y-38834260D01*
X71603947Y-38834260D02*
X71670614Y-38934260D01*
X71670614Y-38934260D02*
X71703947Y-39067593D01*
X71703947Y-39067593D02*
X71703947Y-39334260D01*
X71703947Y-39334260D02*
X71670614Y-39400926D01*
X71670614Y-39400926D02*
X71637281Y-39434260D01*
X71637281Y-39434260D02*
X71570614Y-39467593D01*
X71570614Y-39467593D02*
X71437281Y-39467593D01*
X71437281Y-39467593D02*
X71370614Y-39434260D01*
X71370614Y-39434260D02*
X71337281Y-39400926D01*
X71337281Y-39400926D02*
X71303947Y-39334260D01*
X71303947Y-39334260D02*
X71303947Y-39167593D01*
X71303947Y-39167593D02*
X71337281Y-39100926D01*
X71337281Y-39100926D02*
X71370614Y-39067593D01*
X71370614Y-39067593D02*
X71437281Y-39034260D01*
X71437281Y-39034260D02*
X71570614Y-39034260D01*
X71570614Y-39034260D02*
X71637281Y-39067593D01*
X71637281Y-39067593D02*
X71670614Y-39100926D01*
X71670614Y-39100926D02*
X71703947Y-39167593D01*
X71070614Y-38767593D02*
X70637280Y-38767593D01*
X70637280Y-38767593D02*
X70870614Y-39034260D01*
X70870614Y-39034260D02*
X70770614Y-39034260D01*
X70770614Y-39034260D02*
X70703947Y-39067593D01*
X70703947Y-39067593D02*
X70670614Y-39100926D01*
X70670614Y-39100926D02*
X70637280Y-39167593D01*
X70637280Y-39167593D02*
X70637280Y-39334260D01*
X70637280Y-39334260D02*
X70670614Y-39400926D01*
X70670614Y-39400926D02*
X70703947Y-39434260D01*
X70703947Y-39434260D02*
X70770614Y-39467593D01*
X70770614Y-39467593D02*
X70970614Y-39467593D01*
X70970614Y-39467593D02*
X71037280Y-39434260D01*
X71037280Y-39434260D02*
X71070614Y-39400926D01*
X62929386Y-66600926D02*
X62962719Y-66634260D01*
X62962719Y-66634260D02*
X63062719Y-66667593D01*
X63062719Y-66667593D02*
X63129386Y-66667593D01*
X63129386Y-66667593D02*
X63229386Y-66634260D01*
X63229386Y-66634260D02*
X63296053Y-66567593D01*
X63296053Y-66567593D02*
X63329386Y-66500926D01*
X63329386Y-66500926D02*
X63362719Y-66367593D01*
X63362719Y-66367593D02*
X63362719Y-66267593D01*
X63362719Y-66267593D02*
X63329386Y-66134260D01*
X63329386Y-66134260D02*
X63296053Y-66067593D01*
X63296053Y-66067593D02*
X63229386Y-66000926D01*
X63229386Y-66000926D02*
X63129386Y-65967593D01*
X63129386Y-65967593D02*
X63062719Y-65967593D01*
X63062719Y-65967593D02*
X62962719Y-66000926D01*
X62962719Y-66000926D02*
X62929386Y-66034260D01*
X62696053Y-65967593D02*
X62229386Y-65967593D01*
X62229386Y-65967593D02*
X62529386Y-66667593D01*
X71970614Y-43400926D02*
X72003947Y-43434260D01*
X72003947Y-43434260D02*
X72103947Y-43467593D01*
X72103947Y-43467593D02*
X72170614Y-43467593D01*
X72170614Y-43467593D02*
X72270614Y-43434260D01*
X72270614Y-43434260D02*
X72337281Y-43367593D01*
X72337281Y-43367593D02*
X72370614Y-43300926D01*
X72370614Y-43300926D02*
X72403947Y-43167593D01*
X72403947Y-43167593D02*
X72403947Y-43067593D01*
X72403947Y-43067593D02*
X72370614Y-42934260D01*
X72370614Y-42934260D02*
X72337281Y-42867593D01*
X72337281Y-42867593D02*
X72270614Y-42800926D01*
X72270614Y-42800926D02*
X72170614Y-42767593D01*
X72170614Y-42767593D02*
X72103947Y-42767593D01*
X72103947Y-42767593D02*
X72003947Y-42800926D01*
X72003947Y-42800926D02*
X71970614Y-42834260D01*
X71337281Y-42767593D02*
X71670614Y-42767593D01*
X71670614Y-42767593D02*
X71703947Y-43100926D01*
X71703947Y-43100926D02*
X71670614Y-43067593D01*
X71670614Y-43067593D02*
X71603947Y-43034260D01*
X71603947Y-43034260D02*
X71437281Y-43034260D01*
X71437281Y-43034260D02*
X71370614Y-43067593D01*
X71370614Y-43067593D02*
X71337281Y-43100926D01*
X71337281Y-43100926D02*
X71303947Y-43167593D01*
X71303947Y-43167593D02*
X71303947Y-43334260D01*
X71303947Y-43334260D02*
X71337281Y-43400926D01*
X71337281Y-43400926D02*
X71370614Y-43434260D01*
X71370614Y-43434260D02*
X71437281Y-43467593D01*
X71437281Y-43467593D02*
X71603947Y-43467593D01*
X71603947Y-43467593D02*
X71670614Y-43434260D01*
X71670614Y-43434260D02*
X71703947Y-43400926D01*
X70970614Y-43467593D02*
X70837280Y-43467593D01*
X70837280Y-43467593D02*
X70770614Y-43434260D01*
X70770614Y-43434260D02*
X70737280Y-43400926D01*
X70737280Y-43400926D02*
X70670614Y-43300926D01*
X70670614Y-43300926D02*
X70637280Y-43167593D01*
X70637280Y-43167593D02*
X70637280Y-42900926D01*
X70637280Y-42900926D02*
X70670614Y-42834260D01*
X70670614Y-42834260D02*
X70703947Y-42800926D01*
X70703947Y-42800926D02*
X70770614Y-42767593D01*
X70770614Y-42767593D02*
X70903947Y-42767593D01*
X70903947Y-42767593D02*
X70970614Y-42800926D01*
X70970614Y-42800926D02*
X71003947Y-42834260D01*
X71003947Y-42834260D02*
X71037280Y-42900926D01*
X71037280Y-42900926D02*
X71037280Y-43067593D01*
X71037280Y-43067593D02*
X71003947Y-43134260D01*
X71003947Y-43134260D02*
X70970614Y-43167593D01*
X70970614Y-43167593D02*
X70903947Y-43200926D01*
X70903947Y-43200926D02*
X70770614Y-43200926D01*
X70770614Y-43200926D02*
X70703947Y-43167593D01*
X70703947Y-43167593D02*
X70670614Y-43134260D01*
X70670614Y-43134260D02*
X70637280Y-43067593D01*
X71970614Y-41200926D02*
X72003947Y-41234260D01*
X72003947Y-41234260D02*
X72103947Y-41267593D01*
X72103947Y-41267593D02*
X72170614Y-41267593D01*
X72170614Y-41267593D02*
X72270614Y-41234260D01*
X72270614Y-41234260D02*
X72337281Y-41167593D01*
X72337281Y-41167593D02*
X72370614Y-41100926D01*
X72370614Y-41100926D02*
X72403947Y-40967593D01*
X72403947Y-40967593D02*
X72403947Y-40867593D01*
X72403947Y-40867593D02*
X72370614Y-40734260D01*
X72370614Y-40734260D02*
X72337281Y-40667593D01*
X72337281Y-40667593D02*
X72270614Y-40600926D01*
X72270614Y-40600926D02*
X72170614Y-40567593D01*
X72170614Y-40567593D02*
X72103947Y-40567593D01*
X72103947Y-40567593D02*
X72003947Y-40600926D01*
X72003947Y-40600926D02*
X71970614Y-40634260D01*
X71370614Y-40567593D02*
X71503947Y-40567593D01*
X71503947Y-40567593D02*
X71570614Y-40600926D01*
X71570614Y-40600926D02*
X71603947Y-40634260D01*
X71603947Y-40634260D02*
X71670614Y-40734260D01*
X71670614Y-40734260D02*
X71703947Y-40867593D01*
X71703947Y-40867593D02*
X71703947Y-41134260D01*
X71703947Y-41134260D02*
X71670614Y-41200926D01*
X71670614Y-41200926D02*
X71637281Y-41234260D01*
X71637281Y-41234260D02*
X71570614Y-41267593D01*
X71570614Y-41267593D02*
X71437281Y-41267593D01*
X71437281Y-41267593D02*
X71370614Y-41234260D01*
X71370614Y-41234260D02*
X71337281Y-41200926D01*
X71337281Y-41200926D02*
X71303947Y-41134260D01*
X71303947Y-41134260D02*
X71303947Y-40967593D01*
X71303947Y-40967593D02*
X71337281Y-40900926D01*
X71337281Y-40900926D02*
X71370614Y-40867593D01*
X71370614Y-40867593D02*
X71437281Y-40834260D01*
X71437281Y-40834260D02*
X71570614Y-40834260D01*
X71570614Y-40834260D02*
X71637281Y-40867593D01*
X71637281Y-40867593D02*
X71670614Y-40900926D01*
X71670614Y-40900926D02*
X71703947Y-40967593D01*
X70637280Y-41267593D02*
X71037280Y-41267593D01*
X70837280Y-41267593D02*
X70837280Y-40567593D01*
X70837280Y-40567593D02*
X70903947Y-40667593D01*
X70903947Y-40667593D02*
X70970614Y-40734260D01*
X70970614Y-40734260D02*
X71037280Y-40767593D01*
X71970614Y-52300926D02*
X72003947Y-52334260D01*
X72003947Y-52334260D02*
X72103947Y-52367593D01*
X72103947Y-52367593D02*
X72170614Y-52367593D01*
X72170614Y-52367593D02*
X72270614Y-52334260D01*
X72270614Y-52334260D02*
X72337281Y-52267593D01*
X72337281Y-52267593D02*
X72370614Y-52200926D01*
X72370614Y-52200926D02*
X72403947Y-52067593D01*
X72403947Y-52067593D02*
X72403947Y-51967593D01*
X72403947Y-51967593D02*
X72370614Y-51834260D01*
X72370614Y-51834260D02*
X72337281Y-51767593D01*
X72337281Y-51767593D02*
X72270614Y-51700926D01*
X72270614Y-51700926D02*
X72170614Y-51667593D01*
X72170614Y-51667593D02*
X72103947Y-51667593D01*
X72103947Y-51667593D02*
X72003947Y-51700926D01*
X72003947Y-51700926D02*
X71970614Y-51734260D01*
X71337281Y-51667593D02*
X71670614Y-51667593D01*
X71670614Y-51667593D02*
X71703947Y-52000926D01*
X71703947Y-52000926D02*
X71670614Y-51967593D01*
X71670614Y-51967593D02*
X71603947Y-51934260D01*
X71603947Y-51934260D02*
X71437281Y-51934260D01*
X71437281Y-51934260D02*
X71370614Y-51967593D01*
X71370614Y-51967593D02*
X71337281Y-52000926D01*
X71337281Y-52000926D02*
X71303947Y-52067593D01*
X71303947Y-52067593D02*
X71303947Y-52234260D01*
X71303947Y-52234260D02*
X71337281Y-52300926D01*
X71337281Y-52300926D02*
X71370614Y-52334260D01*
X71370614Y-52334260D02*
X71437281Y-52367593D01*
X71437281Y-52367593D02*
X71603947Y-52367593D01*
X71603947Y-52367593D02*
X71670614Y-52334260D01*
X71670614Y-52334260D02*
X71703947Y-52300926D01*
X70870614Y-51667593D02*
X70803947Y-51667593D01*
X70803947Y-51667593D02*
X70737280Y-51700926D01*
X70737280Y-51700926D02*
X70703947Y-51734260D01*
X70703947Y-51734260D02*
X70670614Y-51800926D01*
X70670614Y-51800926D02*
X70637280Y-51934260D01*
X70637280Y-51934260D02*
X70637280Y-52100926D01*
X70637280Y-52100926D02*
X70670614Y-52234260D01*
X70670614Y-52234260D02*
X70703947Y-52300926D01*
X70703947Y-52300926D02*
X70737280Y-52334260D01*
X70737280Y-52334260D02*
X70803947Y-52367593D01*
X70803947Y-52367593D02*
X70870614Y-52367593D01*
X70870614Y-52367593D02*
X70937280Y-52334260D01*
X70937280Y-52334260D02*
X70970614Y-52300926D01*
X70970614Y-52300926D02*
X71003947Y-52234260D01*
X71003947Y-52234260D02*
X71037280Y-52100926D01*
X71037280Y-52100926D02*
X71037280Y-51934260D01*
X71037280Y-51934260D02*
X71003947Y-51800926D01*
X71003947Y-51800926D02*
X70970614Y-51734260D01*
X70970614Y-51734260D02*
X70937280Y-51700926D01*
X70937280Y-51700926D02*
X70870614Y-51667593D01*
X62879386Y-52250926D02*
X62912719Y-52284260D01*
X62912719Y-52284260D02*
X63012719Y-52317593D01*
X63012719Y-52317593D02*
X63079386Y-52317593D01*
X63079386Y-52317593D02*
X63179386Y-52284260D01*
X63179386Y-52284260D02*
X63246053Y-52217593D01*
X63246053Y-52217593D02*
X63279386Y-52150926D01*
X63279386Y-52150926D02*
X63312719Y-52017593D01*
X63312719Y-52017593D02*
X63312719Y-51917593D01*
X63312719Y-51917593D02*
X63279386Y-51784260D01*
X63279386Y-51784260D02*
X63246053Y-51717593D01*
X63246053Y-51717593D02*
X63179386Y-51650926D01*
X63179386Y-51650926D02*
X63079386Y-51617593D01*
X63079386Y-51617593D02*
X63012719Y-51617593D01*
X63012719Y-51617593D02*
X62912719Y-51650926D01*
X62912719Y-51650926D02*
X62879386Y-51684260D01*
X62212719Y-52317593D02*
X62612719Y-52317593D01*
X62412719Y-52317593D02*
X62412719Y-51617593D01*
X62412719Y-51617593D02*
X62479386Y-51717593D01*
X62479386Y-51717593D02*
X62546053Y-51784260D01*
X62546053Y-51784260D02*
X62612719Y-51817593D01*
X61812719Y-51917593D02*
X61879386Y-51884260D01*
X61879386Y-51884260D02*
X61912719Y-51850926D01*
X61912719Y-51850926D02*
X61946052Y-51784260D01*
X61946052Y-51784260D02*
X61946052Y-51750926D01*
X61946052Y-51750926D02*
X61912719Y-51684260D01*
X61912719Y-51684260D02*
X61879386Y-51650926D01*
X61879386Y-51650926D02*
X61812719Y-51617593D01*
X61812719Y-51617593D02*
X61679386Y-51617593D01*
X61679386Y-51617593D02*
X61612719Y-51650926D01*
X61612719Y-51650926D02*
X61579386Y-51684260D01*
X61579386Y-51684260D02*
X61546052Y-51750926D01*
X61546052Y-51750926D02*
X61546052Y-51784260D01*
X61546052Y-51784260D02*
X61579386Y-51850926D01*
X61579386Y-51850926D02*
X61612719Y-51884260D01*
X61612719Y-51884260D02*
X61679386Y-51917593D01*
X61679386Y-51917593D02*
X61812719Y-51917593D01*
X61812719Y-51917593D02*
X61879386Y-51950926D01*
X61879386Y-51950926D02*
X61912719Y-51984260D01*
X61912719Y-51984260D02*
X61946052Y-52050926D01*
X61946052Y-52050926D02*
X61946052Y-52184260D01*
X61946052Y-52184260D02*
X61912719Y-52250926D01*
X61912719Y-52250926D02*
X61879386Y-52284260D01*
X61879386Y-52284260D02*
X61812719Y-52317593D01*
X61812719Y-52317593D02*
X61679386Y-52317593D01*
X61679386Y-52317593D02*
X61612719Y-52284260D01*
X61612719Y-52284260D02*
X61579386Y-52250926D01*
X61579386Y-52250926D02*
X61546052Y-52184260D01*
X61546052Y-52184260D02*
X61546052Y-52050926D01*
X61546052Y-52050926D02*
X61579386Y-51984260D01*
X61579386Y-51984260D02*
X61612719Y-51950926D01*
X61612719Y-51950926D02*
X61679386Y-51917593D01*
X62929386Y-60400926D02*
X62962719Y-60434260D01*
X62962719Y-60434260D02*
X63062719Y-60467593D01*
X63062719Y-60467593D02*
X63129386Y-60467593D01*
X63129386Y-60467593D02*
X63229386Y-60434260D01*
X63229386Y-60434260D02*
X63296053Y-60367593D01*
X63296053Y-60367593D02*
X63329386Y-60300926D01*
X63329386Y-60300926D02*
X63362719Y-60167593D01*
X63362719Y-60167593D02*
X63362719Y-60067593D01*
X63362719Y-60067593D02*
X63329386Y-59934260D01*
X63329386Y-59934260D02*
X63296053Y-59867593D01*
X63296053Y-59867593D02*
X63229386Y-59800926D01*
X63229386Y-59800926D02*
X63129386Y-59767593D01*
X63129386Y-59767593D02*
X63062719Y-59767593D01*
X63062719Y-59767593D02*
X62962719Y-59800926D01*
X62962719Y-59800926D02*
X62929386Y-59834260D01*
X62262719Y-60467593D02*
X62662719Y-60467593D01*
X62462719Y-60467593D02*
X62462719Y-59767593D01*
X62462719Y-59767593D02*
X62529386Y-59867593D01*
X62529386Y-59867593D02*
X62596053Y-59934260D01*
X62596053Y-59934260D02*
X62662719Y-59967593D01*
X62029386Y-59767593D02*
X61596052Y-59767593D01*
X61596052Y-59767593D02*
X61829386Y-60034260D01*
X61829386Y-60034260D02*
X61729386Y-60034260D01*
X61729386Y-60034260D02*
X61662719Y-60067593D01*
X61662719Y-60067593D02*
X61629386Y-60100926D01*
X61629386Y-60100926D02*
X61596052Y-60167593D01*
X61596052Y-60167593D02*
X61596052Y-60334260D01*
X61596052Y-60334260D02*
X61629386Y-60400926D01*
X61629386Y-60400926D02*
X61662719Y-60434260D01*
X61662719Y-60434260D02*
X61729386Y-60467593D01*
X61729386Y-60467593D02*
X61929386Y-60467593D01*
X61929386Y-60467593D02*
X61996052Y-60434260D01*
X61996052Y-60434260D02*
X62029386Y-60400926D01*
X71970614Y-71500926D02*
X72003947Y-71534260D01*
X72003947Y-71534260D02*
X72103947Y-71567593D01*
X72103947Y-71567593D02*
X72170614Y-71567593D01*
X72170614Y-71567593D02*
X72270614Y-71534260D01*
X72270614Y-71534260D02*
X72337281Y-71467593D01*
X72337281Y-71467593D02*
X72370614Y-71400926D01*
X72370614Y-71400926D02*
X72403947Y-71267593D01*
X72403947Y-71267593D02*
X72403947Y-71167593D01*
X72403947Y-71167593D02*
X72370614Y-71034260D01*
X72370614Y-71034260D02*
X72337281Y-70967593D01*
X72337281Y-70967593D02*
X72270614Y-70900926D01*
X72270614Y-70900926D02*
X72170614Y-70867593D01*
X72170614Y-70867593D02*
X72103947Y-70867593D01*
X72103947Y-70867593D02*
X72003947Y-70900926D01*
X72003947Y-70900926D02*
X71970614Y-70934260D01*
X71737281Y-70867593D02*
X71303947Y-70867593D01*
X71303947Y-70867593D02*
X71537281Y-71134260D01*
X71537281Y-71134260D02*
X71437281Y-71134260D01*
X71437281Y-71134260D02*
X71370614Y-71167593D01*
X71370614Y-71167593D02*
X71337281Y-71200926D01*
X71337281Y-71200926D02*
X71303947Y-71267593D01*
X71303947Y-71267593D02*
X71303947Y-71434260D01*
X71303947Y-71434260D02*
X71337281Y-71500926D01*
X71337281Y-71500926D02*
X71370614Y-71534260D01*
X71370614Y-71534260D02*
X71437281Y-71567593D01*
X71437281Y-71567593D02*
X71637281Y-71567593D01*
X71637281Y-71567593D02*
X71703947Y-71534260D01*
X71703947Y-71534260D02*
X71737281Y-71500926D01*
X70703947Y-71100926D02*
X70703947Y-71567593D01*
X70870614Y-70834260D02*
X71037280Y-71334260D01*
X71037280Y-71334260D02*
X70603947Y-71334260D01*
X62879386Y-51350926D02*
X62912719Y-51384260D01*
X62912719Y-51384260D02*
X63012719Y-51417593D01*
X63012719Y-51417593D02*
X63079386Y-51417593D01*
X63079386Y-51417593D02*
X63179386Y-51384260D01*
X63179386Y-51384260D02*
X63246053Y-51317593D01*
X63246053Y-51317593D02*
X63279386Y-51250926D01*
X63279386Y-51250926D02*
X63312719Y-51117593D01*
X63312719Y-51117593D02*
X63312719Y-51017593D01*
X63312719Y-51017593D02*
X63279386Y-50884260D01*
X63279386Y-50884260D02*
X63246053Y-50817593D01*
X63246053Y-50817593D02*
X63179386Y-50750926D01*
X63179386Y-50750926D02*
X63079386Y-50717593D01*
X63079386Y-50717593D02*
X63012719Y-50717593D01*
X63012719Y-50717593D02*
X62912719Y-50750926D01*
X62912719Y-50750926D02*
X62879386Y-50784260D01*
X62212719Y-51417593D02*
X62612719Y-51417593D01*
X62412719Y-51417593D02*
X62412719Y-50717593D01*
X62412719Y-50717593D02*
X62479386Y-50817593D01*
X62479386Y-50817593D02*
X62546053Y-50884260D01*
X62546053Y-50884260D02*
X62612719Y-50917593D01*
X61879386Y-51417593D02*
X61746052Y-51417593D01*
X61746052Y-51417593D02*
X61679386Y-51384260D01*
X61679386Y-51384260D02*
X61646052Y-51350926D01*
X61646052Y-51350926D02*
X61579386Y-51250926D01*
X61579386Y-51250926D02*
X61546052Y-51117593D01*
X61546052Y-51117593D02*
X61546052Y-50850926D01*
X61546052Y-50850926D02*
X61579386Y-50784260D01*
X61579386Y-50784260D02*
X61612719Y-50750926D01*
X61612719Y-50750926D02*
X61679386Y-50717593D01*
X61679386Y-50717593D02*
X61812719Y-50717593D01*
X61812719Y-50717593D02*
X61879386Y-50750926D01*
X61879386Y-50750926D02*
X61912719Y-50784260D01*
X61912719Y-50784260D02*
X61946052Y-50850926D01*
X61946052Y-50850926D02*
X61946052Y-51017593D01*
X61946052Y-51017593D02*
X61912719Y-51084260D01*
X61912719Y-51084260D02*
X61879386Y-51117593D01*
X61879386Y-51117593D02*
X61812719Y-51150926D01*
X61812719Y-51150926D02*
X61679386Y-51150926D01*
X61679386Y-51150926D02*
X61612719Y-51117593D01*
X61612719Y-51117593D02*
X61579386Y-51084260D01*
X61579386Y-51084260D02*
X61546052Y-51017593D01*
X71970614Y-48300926D02*
X72003947Y-48334260D01*
X72003947Y-48334260D02*
X72103947Y-48367593D01*
X72103947Y-48367593D02*
X72170614Y-48367593D01*
X72170614Y-48367593D02*
X72270614Y-48334260D01*
X72270614Y-48334260D02*
X72337281Y-48267593D01*
X72337281Y-48267593D02*
X72370614Y-48200926D01*
X72370614Y-48200926D02*
X72403947Y-48067593D01*
X72403947Y-48067593D02*
X72403947Y-47967593D01*
X72403947Y-47967593D02*
X72370614Y-47834260D01*
X72370614Y-47834260D02*
X72337281Y-47767593D01*
X72337281Y-47767593D02*
X72270614Y-47700926D01*
X72270614Y-47700926D02*
X72170614Y-47667593D01*
X72170614Y-47667593D02*
X72103947Y-47667593D01*
X72103947Y-47667593D02*
X72003947Y-47700926D01*
X72003947Y-47700926D02*
X71970614Y-47734260D01*
X71337281Y-47667593D02*
X71670614Y-47667593D01*
X71670614Y-47667593D02*
X71703947Y-48000926D01*
X71703947Y-48000926D02*
X71670614Y-47967593D01*
X71670614Y-47967593D02*
X71603947Y-47934260D01*
X71603947Y-47934260D02*
X71437281Y-47934260D01*
X71437281Y-47934260D02*
X71370614Y-47967593D01*
X71370614Y-47967593D02*
X71337281Y-48000926D01*
X71337281Y-48000926D02*
X71303947Y-48067593D01*
X71303947Y-48067593D02*
X71303947Y-48234260D01*
X71303947Y-48234260D02*
X71337281Y-48300926D01*
X71337281Y-48300926D02*
X71370614Y-48334260D01*
X71370614Y-48334260D02*
X71437281Y-48367593D01*
X71437281Y-48367593D02*
X71603947Y-48367593D01*
X71603947Y-48367593D02*
X71670614Y-48334260D01*
X71670614Y-48334260D02*
X71703947Y-48300926D01*
X70703947Y-47900926D02*
X70703947Y-48367593D01*
X70870614Y-47634260D02*
X71037280Y-48134260D01*
X71037280Y-48134260D02*
X70603947Y-48134260D01*
X62879386Y-46500926D02*
X62912719Y-46534260D01*
X62912719Y-46534260D02*
X63012719Y-46567593D01*
X63012719Y-46567593D02*
X63079386Y-46567593D01*
X63079386Y-46567593D02*
X63179386Y-46534260D01*
X63179386Y-46534260D02*
X63246053Y-46467593D01*
X63246053Y-46467593D02*
X63279386Y-46400926D01*
X63279386Y-46400926D02*
X63312719Y-46267593D01*
X63312719Y-46267593D02*
X63312719Y-46167593D01*
X63312719Y-46167593D02*
X63279386Y-46034260D01*
X63279386Y-46034260D02*
X63246053Y-45967593D01*
X63246053Y-45967593D02*
X63179386Y-45900926D01*
X63179386Y-45900926D02*
X63079386Y-45867593D01*
X63079386Y-45867593D02*
X63012719Y-45867593D01*
X63012719Y-45867593D02*
X62912719Y-45900926D01*
X62912719Y-45900926D02*
X62879386Y-45934260D01*
X62612719Y-45934260D02*
X62579386Y-45900926D01*
X62579386Y-45900926D02*
X62512719Y-45867593D01*
X62512719Y-45867593D02*
X62346053Y-45867593D01*
X62346053Y-45867593D02*
X62279386Y-45900926D01*
X62279386Y-45900926D02*
X62246053Y-45934260D01*
X62246053Y-45934260D02*
X62212719Y-46000926D01*
X62212719Y-46000926D02*
X62212719Y-46067593D01*
X62212719Y-46067593D02*
X62246053Y-46167593D01*
X62246053Y-46167593D02*
X62646053Y-46567593D01*
X62646053Y-46567593D02*
X62212719Y-46567593D01*
X61612719Y-46100926D02*
X61612719Y-46567593D01*
X61779386Y-45834260D02*
X61946052Y-46334260D01*
X61946052Y-46334260D02*
X61512719Y-46334260D01*
X71970614Y-51400926D02*
X72003947Y-51434260D01*
X72003947Y-51434260D02*
X72103947Y-51467593D01*
X72103947Y-51467593D02*
X72170614Y-51467593D01*
X72170614Y-51467593D02*
X72270614Y-51434260D01*
X72270614Y-51434260D02*
X72337281Y-51367593D01*
X72337281Y-51367593D02*
X72370614Y-51300926D01*
X72370614Y-51300926D02*
X72403947Y-51167593D01*
X72403947Y-51167593D02*
X72403947Y-51067593D01*
X72403947Y-51067593D02*
X72370614Y-50934260D01*
X72370614Y-50934260D02*
X72337281Y-50867593D01*
X72337281Y-50867593D02*
X72270614Y-50800926D01*
X72270614Y-50800926D02*
X72170614Y-50767593D01*
X72170614Y-50767593D02*
X72103947Y-50767593D01*
X72103947Y-50767593D02*
X72003947Y-50800926D01*
X72003947Y-50800926D02*
X71970614Y-50834260D01*
X71337281Y-50767593D02*
X71670614Y-50767593D01*
X71670614Y-50767593D02*
X71703947Y-51100926D01*
X71703947Y-51100926D02*
X71670614Y-51067593D01*
X71670614Y-51067593D02*
X71603947Y-51034260D01*
X71603947Y-51034260D02*
X71437281Y-51034260D01*
X71437281Y-51034260D02*
X71370614Y-51067593D01*
X71370614Y-51067593D02*
X71337281Y-51100926D01*
X71337281Y-51100926D02*
X71303947Y-51167593D01*
X71303947Y-51167593D02*
X71303947Y-51334260D01*
X71303947Y-51334260D02*
X71337281Y-51400926D01*
X71337281Y-51400926D02*
X71370614Y-51434260D01*
X71370614Y-51434260D02*
X71437281Y-51467593D01*
X71437281Y-51467593D02*
X71603947Y-51467593D01*
X71603947Y-51467593D02*
X71670614Y-51434260D01*
X71670614Y-51434260D02*
X71703947Y-51400926D01*
X70637280Y-51467593D02*
X71037280Y-51467593D01*
X70837280Y-51467593D02*
X70837280Y-50767593D01*
X70837280Y-50767593D02*
X70903947Y-50867593D01*
X70903947Y-50867593D02*
X70970614Y-50934260D01*
X70970614Y-50934260D02*
X71037280Y-50967593D01*
X62929386Y-58600926D02*
X62962719Y-58634260D01*
X62962719Y-58634260D02*
X63062719Y-58667593D01*
X63062719Y-58667593D02*
X63129386Y-58667593D01*
X63129386Y-58667593D02*
X63229386Y-58634260D01*
X63229386Y-58634260D02*
X63296053Y-58567593D01*
X63296053Y-58567593D02*
X63329386Y-58500926D01*
X63329386Y-58500926D02*
X63362719Y-58367593D01*
X63362719Y-58367593D02*
X63362719Y-58267593D01*
X63362719Y-58267593D02*
X63329386Y-58134260D01*
X63329386Y-58134260D02*
X63296053Y-58067593D01*
X63296053Y-58067593D02*
X63229386Y-58000926D01*
X63229386Y-58000926D02*
X63129386Y-57967593D01*
X63129386Y-57967593D02*
X63062719Y-57967593D01*
X63062719Y-57967593D02*
X62962719Y-58000926D01*
X62962719Y-58000926D02*
X62929386Y-58034260D01*
X62262719Y-58667593D02*
X62662719Y-58667593D01*
X62462719Y-58667593D02*
X62462719Y-57967593D01*
X62462719Y-57967593D02*
X62529386Y-58067593D01*
X62529386Y-58067593D02*
X62596053Y-58134260D01*
X62596053Y-58134260D02*
X62662719Y-58167593D01*
X61629386Y-57967593D02*
X61962719Y-57967593D01*
X61962719Y-57967593D02*
X61996052Y-58300926D01*
X61996052Y-58300926D02*
X61962719Y-58267593D01*
X61962719Y-58267593D02*
X61896052Y-58234260D01*
X61896052Y-58234260D02*
X61729386Y-58234260D01*
X61729386Y-58234260D02*
X61662719Y-58267593D01*
X61662719Y-58267593D02*
X61629386Y-58300926D01*
X61629386Y-58300926D02*
X61596052Y-58367593D01*
X61596052Y-58367593D02*
X61596052Y-58534260D01*
X61596052Y-58534260D02*
X61629386Y-58600926D01*
X61629386Y-58600926D02*
X61662719Y-58634260D01*
X61662719Y-58634260D02*
X61729386Y-58667593D01*
X61729386Y-58667593D02*
X61896052Y-58667593D01*
X61896052Y-58667593D02*
X61962719Y-58634260D01*
X61962719Y-58634260D02*
X61996052Y-58600926D01*
X71970614Y-63500926D02*
X72003947Y-63534260D01*
X72003947Y-63534260D02*
X72103947Y-63567593D01*
X72103947Y-63567593D02*
X72170614Y-63567593D01*
X72170614Y-63567593D02*
X72270614Y-63534260D01*
X72270614Y-63534260D02*
X72337281Y-63467593D01*
X72337281Y-63467593D02*
X72370614Y-63400926D01*
X72370614Y-63400926D02*
X72403947Y-63267593D01*
X72403947Y-63267593D02*
X72403947Y-63167593D01*
X72403947Y-63167593D02*
X72370614Y-63034260D01*
X72370614Y-63034260D02*
X72337281Y-62967593D01*
X72337281Y-62967593D02*
X72270614Y-62900926D01*
X72270614Y-62900926D02*
X72170614Y-62867593D01*
X72170614Y-62867593D02*
X72103947Y-62867593D01*
X72103947Y-62867593D02*
X72003947Y-62900926D01*
X72003947Y-62900926D02*
X71970614Y-62934260D01*
X71370614Y-63100926D02*
X71370614Y-63567593D01*
X71537281Y-62834260D02*
X71703947Y-63334260D01*
X71703947Y-63334260D02*
X71270614Y-63334260D01*
X71037280Y-62934260D02*
X71003947Y-62900926D01*
X71003947Y-62900926D02*
X70937280Y-62867593D01*
X70937280Y-62867593D02*
X70770614Y-62867593D01*
X70770614Y-62867593D02*
X70703947Y-62900926D01*
X70703947Y-62900926D02*
X70670614Y-62934260D01*
X70670614Y-62934260D02*
X70637280Y-63000926D01*
X70637280Y-63000926D02*
X70637280Y-63067593D01*
X70637280Y-63067593D02*
X70670614Y-63167593D01*
X70670614Y-63167593D02*
X71070614Y-63567593D01*
X71070614Y-63567593D02*
X70637280Y-63567593D01*
X71970614Y-42500926D02*
X72003947Y-42534260D01*
X72003947Y-42534260D02*
X72103947Y-42567593D01*
X72103947Y-42567593D02*
X72170614Y-42567593D01*
X72170614Y-42567593D02*
X72270614Y-42534260D01*
X72270614Y-42534260D02*
X72337281Y-42467593D01*
X72337281Y-42467593D02*
X72370614Y-42400926D01*
X72370614Y-42400926D02*
X72403947Y-42267593D01*
X72403947Y-42267593D02*
X72403947Y-42167593D01*
X72403947Y-42167593D02*
X72370614Y-42034260D01*
X72370614Y-42034260D02*
X72337281Y-41967593D01*
X72337281Y-41967593D02*
X72270614Y-41900926D01*
X72270614Y-41900926D02*
X72170614Y-41867593D01*
X72170614Y-41867593D02*
X72103947Y-41867593D01*
X72103947Y-41867593D02*
X72003947Y-41900926D01*
X72003947Y-41900926D02*
X71970614Y-41934260D01*
X71370614Y-41867593D02*
X71503947Y-41867593D01*
X71503947Y-41867593D02*
X71570614Y-41900926D01*
X71570614Y-41900926D02*
X71603947Y-41934260D01*
X71603947Y-41934260D02*
X71670614Y-42034260D01*
X71670614Y-42034260D02*
X71703947Y-42167593D01*
X71703947Y-42167593D02*
X71703947Y-42434260D01*
X71703947Y-42434260D02*
X71670614Y-42500926D01*
X71670614Y-42500926D02*
X71637281Y-42534260D01*
X71637281Y-42534260D02*
X71570614Y-42567593D01*
X71570614Y-42567593D02*
X71437281Y-42567593D01*
X71437281Y-42567593D02*
X71370614Y-42534260D01*
X71370614Y-42534260D02*
X71337281Y-42500926D01*
X71337281Y-42500926D02*
X71303947Y-42434260D01*
X71303947Y-42434260D02*
X71303947Y-42267593D01*
X71303947Y-42267593D02*
X71337281Y-42200926D01*
X71337281Y-42200926D02*
X71370614Y-42167593D01*
X71370614Y-42167593D02*
X71437281Y-42134260D01*
X71437281Y-42134260D02*
X71570614Y-42134260D01*
X71570614Y-42134260D02*
X71637281Y-42167593D01*
X71637281Y-42167593D02*
X71670614Y-42200926D01*
X71670614Y-42200926D02*
X71703947Y-42267593D01*
X70870614Y-41867593D02*
X70803947Y-41867593D01*
X70803947Y-41867593D02*
X70737280Y-41900926D01*
X70737280Y-41900926D02*
X70703947Y-41934260D01*
X70703947Y-41934260D02*
X70670614Y-42000926D01*
X70670614Y-42000926D02*
X70637280Y-42134260D01*
X70637280Y-42134260D02*
X70637280Y-42300926D01*
X70637280Y-42300926D02*
X70670614Y-42434260D01*
X70670614Y-42434260D02*
X70703947Y-42500926D01*
X70703947Y-42500926D02*
X70737280Y-42534260D01*
X70737280Y-42534260D02*
X70803947Y-42567593D01*
X70803947Y-42567593D02*
X70870614Y-42567593D01*
X70870614Y-42567593D02*
X70937280Y-42534260D01*
X70937280Y-42534260D02*
X70970614Y-42500926D01*
X70970614Y-42500926D02*
X71003947Y-42434260D01*
X71003947Y-42434260D02*
X71037280Y-42300926D01*
X71037280Y-42300926D02*
X71037280Y-42134260D01*
X71037280Y-42134260D02*
X71003947Y-42000926D01*
X71003947Y-42000926D02*
X70970614Y-41934260D01*
X70970614Y-41934260D02*
X70937280Y-41900926D01*
X70937280Y-41900926D02*
X70870614Y-41867593D01*
X71970614Y-60400926D02*
X72003947Y-60434260D01*
X72003947Y-60434260D02*
X72103947Y-60467593D01*
X72103947Y-60467593D02*
X72170614Y-60467593D01*
X72170614Y-60467593D02*
X72270614Y-60434260D01*
X72270614Y-60434260D02*
X72337281Y-60367593D01*
X72337281Y-60367593D02*
X72370614Y-60300926D01*
X72370614Y-60300926D02*
X72403947Y-60167593D01*
X72403947Y-60167593D02*
X72403947Y-60067593D01*
X72403947Y-60067593D02*
X72370614Y-59934260D01*
X72370614Y-59934260D02*
X72337281Y-59867593D01*
X72337281Y-59867593D02*
X72270614Y-59800926D01*
X72270614Y-59800926D02*
X72170614Y-59767593D01*
X72170614Y-59767593D02*
X72103947Y-59767593D01*
X72103947Y-59767593D02*
X72003947Y-59800926D01*
X72003947Y-59800926D02*
X71970614Y-59834260D01*
X71370614Y-60000926D02*
X71370614Y-60467593D01*
X71537281Y-59734260D02*
X71703947Y-60234260D01*
X71703947Y-60234260D02*
X71270614Y-60234260D01*
X70670614Y-59767593D02*
X71003947Y-59767593D01*
X71003947Y-59767593D02*
X71037280Y-60100926D01*
X71037280Y-60100926D02*
X71003947Y-60067593D01*
X71003947Y-60067593D02*
X70937280Y-60034260D01*
X70937280Y-60034260D02*
X70770614Y-60034260D01*
X70770614Y-60034260D02*
X70703947Y-60067593D01*
X70703947Y-60067593D02*
X70670614Y-60100926D01*
X70670614Y-60100926D02*
X70637280Y-60167593D01*
X70637280Y-60167593D02*
X70637280Y-60334260D01*
X70637280Y-60334260D02*
X70670614Y-60400926D01*
X70670614Y-60400926D02*
X70703947Y-60434260D01*
X70703947Y-60434260D02*
X70770614Y-60467593D01*
X70770614Y-60467593D02*
X70937280Y-60467593D01*
X70937280Y-60467593D02*
X71003947Y-60434260D01*
X71003947Y-60434260D02*
X71037280Y-60400926D01*
X62879386Y-47400926D02*
X62912719Y-47434260D01*
X62912719Y-47434260D02*
X63012719Y-47467593D01*
X63012719Y-47467593D02*
X63079386Y-47467593D01*
X63079386Y-47467593D02*
X63179386Y-47434260D01*
X63179386Y-47434260D02*
X63246053Y-47367593D01*
X63246053Y-47367593D02*
X63279386Y-47300926D01*
X63279386Y-47300926D02*
X63312719Y-47167593D01*
X63312719Y-47167593D02*
X63312719Y-47067593D01*
X63312719Y-47067593D02*
X63279386Y-46934260D01*
X63279386Y-46934260D02*
X63246053Y-46867593D01*
X63246053Y-46867593D02*
X63179386Y-46800926D01*
X63179386Y-46800926D02*
X63079386Y-46767593D01*
X63079386Y-46767593D02*
X63012719Y-46767593D01*
X63012719Y-46767593D02*
X62912719Y-46800926D01*
X62912719Y-46800926D02*
X62879386Y-46834260D01*
X62612719Y-46834260D02*
X62579386Y-46800926D01*
X62579386Y-46800926D02*
X62512719Y-46767593D01*
X62512719Y-46767593D02*
X62346053Y-46767593D01*
X62346053Y-46767593D02*
X62279386Y-46800926D01*
X62279386Y-46800926D02*
X62246053Y-46834260D01*
X62246053Y-46834260D02*
X62212719Y-46900926D01*
X62212719Y-46900926D02*
X62212719Y-46967593D01*
X62212719Y-46967593D02*
X62246053Y-47067593D01*
X62246053Y-47067593D02*
X62646053Y-47467593D01*
X62646053Y-47467593D02*
X62212719Y-47467593D01*
X61979386Y-46767593D02*
X61546052Y-46767593D01*
X61546052Y-46767593D02*
X61779386Y-47034260D01*
X61779386Y-47034260D02*
X61679386Y-47034260D01*
X61679386Y-47034260D02*
X61612719Y-47067593D01*
X61612719Y-47067593D02*
X61579386Y-47100926D01*
X61579386Y-47100926D02*
X61546052Y-47167593D01*
X61546052Y-47167593D02*
X61546052Y-47334260D01*
X61546052Y-47334260D02*
X61579386Y-47400926D01*
X61579386Y-47400926D02*
X61612719Y-47434260D01*
X61612719Y-47434260D02*
X61679386Y-47467593D01*
X61679386Y-47467593D02*
X61879386Y-47467593D01*
X61879386Y-47467593D02*
X61946052Y-47434260D01*
X61946052Y-47434260D02*
X61979386Y-47400926D01*
X71970614Y-64400926D02*
X72003947Y-64434260D01*
X72003947Y-64434260D02*
X72103947Y-64467593D01*
X72103947Y-64467593D02*
X72170614Y-64467593D01*
X72170614Y-64467593D02*
X72270614Y-64434260D01*
X72270614Y-64434260D02*
X72337281Y-64367593D01*
X72337281Y-64367593D02*
X72370614Y-64300926D01*
X72370614Y-64300926D02*
X72403947Y-64167593D01*
X72403947Y-64167593D02*
X72403947Y-64067593D01*
X72403947Y-64067593D02*
X72370614Y-63934260D01*
X72370614Y-63934260D02*
X72337281Y-63867593D01*
X72337281Y-63867593D02*
X72270614Y-63800926D01*
X72270614Y-63800926D02*
X72170614Y-63767593D01*
X72170614Y-63767593D02*
X72103947Y-63767593D01*
X72103947Y-63767593D02*
X72003947Y-63800926D01*
X72003947Y-63800926D02*
X71970614Y-63834260D01*
X71370614Y-64000926D02*
X71370614Y-64467593D01*
X71537281Y-63734260D02*
X71703947Y-64234260D01*
X71703947Y-64234260D02*
X71270614Y-64234260D01*
X70637280Y-64467593D02*
X71037280Y-64467593D01*
X70837280Y-64467593D02*
X70837280Y-63767593D01*
X70837280Y-63767593D02*
X70903947Y-63867593D01*
X70903947Y-63867593D02*
X70970614Y-63934260D01*
X70970614Y-63934260D02*
X71037280Y-63967593D01*
X62879386Y-42500926D02*
X62912719Y-42534260D01*
X62912719Y-42534260D02*
X63012719Y-42567593D01*
X63012719Y-42567593D02*
X63079386Y-42567593D01*
X63079386Y-42567593D02*
X63179386Y-42534260D01*
X63179386Y-42534260D02*
X63246053Y-42467593D01*
X63246053Y-42467593D02*
X63279386Y-42400926D01*
X63279386Y-42400926D02*
X63312719Y-42267593D01*
X63312719Y-42267593D02*
X63312719Y-42167593D01*
X63312719Y-42167593D02*
X63279386Y-42034260D01*
X63279386Y-42034260D02*
X63246053Y-41967593D01*
X63246053Y-41967593D02*
X63179386Y-41900926D01*
X63179386Y-41900926D02*
X63079386Y-41867593D01*
X63079386Y-41867593D02*
X63012719Y-41867593D01*
X63012719Y-41867593D02*
X62912719Y-41900926D01*
X62912719Y-41900926D02*
X62879386Y-41934260D01*
X62612719Y-41934260D02*
X62579386Y-41900926D01*
X62579386Y-41900926D02*
X62512719Y-41867593D01*
X62512719Y-41867593D02*
X62346053Y-41867593D01*
X62346053Y-41867593D02*
X62279386Y-41900926D01*
X62279386Y-41900926D02*
X62246053Y-41934260D01*
X62246053Y-41934260D02*
X62212719Y-42000926D01*
X62212719Y-42000926D02*
X62212719Y-42067593D01*
X62212719Y-42067593D02*
X62246053Y-42167593D01*
X62246053Y-42167593D02*
X62646053Y-42567593D01*
X62646053Y-42567593D02*
X62212719Y-42567593D01*
X61812719Y-42167593D02*
X61879386Y-42134260D01*
X61879386Y-42134260D02*
X61912719Y-42100926D01*
X61912719Y-42100926D02*
X61946052Y-42034260D01*
X61946052Y-42034260D02*
X61946052Y-42000926D01*
X61946052Y-42000926D02*
X61912719Y-41934260D01*
X61912719Y-41934260D02*
X61879386Y-41900926D01*
X61879386Y-41900926D02*
X61812719Y-41867593D01*
X61812719Y-41867593D02*
X61679386Y-41867593D01*
X61679386Y-41867593D02*
X61612719Y-41900926D01*
X61612719Y-41900926D02*
X61579386Y-41934260D01*
X61579386Y-41934260D02*
X61546052Y-42000926D01*
X61546052Y-42000926D02*
X61546052Y-42034260D01*
X61546052Y-42034260D02*
X61579386Y-42100926D01*
X61579386Y-42100926D02*
X61612719Y-42134260D01*
X61612719Y-42134260D02*
X61679386Y-42167593D01*
X61679386Y-42167593D02*
X61812719Y-42167593D01*
X61812719Y-42167593D02*
X61879386Y-42200926D01*
X61879386Y-42200926D02*
X61912719Y-42234260D01*
X61912719Y-42234260D02*
X61946052Y-42300926D01*
X61946052Y-42300926D02*
X61946052Y-42434260D01*
X61946052Y-42434260D02*
X61912719Y-42500926D01*
X61912719Y-42500926D02*
X61879386Y-42534260D01*
X61879386Y-42534260D02*
X61812719Y-42567593D01*
X61812719Y-42567593D02*
X61679386Y-42567593D01*
X61679386Y-42567593D02*
X61612719Y-42534260D01*
X61612719Y-42534260D02*
X61579386Y-42500926D01*
X61579386Y-42500926D02*
X61546052Y-42434260D01*
X61546052Y-42434260D02*
X61546052Y-42300926D01*
X61546052Y-42300926D02*
X61579386Y-42234260D01*
X61579386Y-42234260D02*
X61612719Y-42200926D01*
X61612719Y-42200926D02*
X61679386Y-42167593D01*
X71970614Y-59500926D02*
X72003947Y-59534260D01*
X72003947Y-59534260D02*
X72103947Y-59567593D01*
X72103947Y-59567593D02*
X72170614Y-59567593D01*
X72170614Y-59567593D02*
X72270614Y-59534260D01*
X72270614Y-59534260D02*
X72337281Y-59467593D01*
X72337281Y-59467593D02*
X72370614Y-59400926D01*
X72370614Y-59400926D02*
X72403947Y-59267593D01*
X72403947Y-59267593D02*
X72403947Y-59167593D01*
X72403947Y-59167593D02*
X72370614Y-59034260D01*
X72370614Y-59034260D02*
X72337281Y-58967593D01*
X72337281Y-58967593D02*
X72270614Y-58900926D01*
X72270614Y-58900926D02*
X72170614Y-58867593D01*
X72170614Y-58867593D02*
X72103947Y-58867593D01*
X72103947Y-58867593D02*
X72003947Y-58900926D01*
X72003947Y-58900926D02*
X71970614Y-58934260D01*
X71370614Y-59100926D02*
X71370614Y-59567593D01*
X71537281Y-58834260D02*
X71703947Y-59334260D01*
X71703947Y-59334260D02*
X71270614Y-59334260D01*
X70703947Y-58867593D02*
X70837280Y-58867593D01*
X70837280Y-58867593D02*
X70903947Y-58900926D01*
X70903947Y-58900926D02*
X70937280Y-58934260D01*
X70937280Y-58934260D02*
X71003947Y-59034260D01*
X71003947Y-59034260D02*
X71037280Y-59167593D01*
X71037280Y-59167593D02*
X71037280Y-59434260D01*
X71037280Y-59434260D02*
X71003947Y-59500926D01*
X71003947Y-59500926D02*
X70970614Y-59534260D01*
X70970614Y-59534260D02*
X70903947Y-59567593D01*
X70903947Y-59567593D02*
X70770614Y-59567593D01*
X70770614Y-59567593D02*
X70703947Y-59534260D01*
X70703947Y-59534260D02*
X70670614Y-59500926D01*
X70670614Y-59500926D02*
X70637280Y-59434260D01*
X70637280Y-59434260D02*
X70637280Y-59267593D01*
X70637280Y-59267593D02*
X70670614Y-59200926D01*
X70670614Y-59200926D02*
X70703947Y-59167593D01*
X70703947Y-59167593D02*
X70770614Y-59134260D01*
X70770614Y-59134260D02*
X70903947Y-59134260D01*
X70903947Y-59134260D02*
X70970614Y-59167593D01*
X70970614Y-59167593D02*
X71003947Y-59200926D01*
X71003947Y-59200926D02*
X71037280Y-59267593D01*
X62879386Y-41200926D02*
X62912719Y-41234260D01*
X62912719Y-41234260D02*
X63012719Y-41267593D01*
X63012719Y-41267593D02*
X63079386Y-41267593D01*
X63079386Y-41267593D02*
X63179386Y-41234260D01*
X63179386Y-41234260D02*
X63246053Y-41167593D01*
X63246053Y-41167593D02*
X63279386Y-41100926D01*
X63279386Y-41100926D02*
X63312719Y-40967593D01*
X63312719Y-40967593D02*
X63312719Y-40867593D01*
X63312719Y-40867593D02*
X63279386Y-40734260D01*
X63279386Y-40734260D02*
X63246053Y-40667593D01*
X63246053Y-40667593D02*
X63179386Y-40600926D01*
X63179386Y-40600926D02*
X63079386Y-40567593D01*
X63079386Y-40567593D02*
X63012719Y-40567593D01*
X63012719Y-40567593D02*
X62912719Y-40600926D01*
X62912719Y-40600926D02*
X62879386Y-40634260D01*
X62612719Y-40634260D02*
X62579386Y-40600926D01*
X62579386Y-40600926D02*
X62512719Y-40567593D01*
X62512719Y-40567593D02*
X62346053Y-40567593D01*
X62346053Y-40567593D02*
X62279386Y-40600926D01*
X62279386Y-40600926D02*
X62246053Y-40634260D01*
X62246053Y-40634260D02*
X62212719Y-40700926D01*
X62212719Y-40700926D02*
X62212719Y-40767593D01*
X62212719Y-40767593D02*
X62246053Y-40867593D01*
X62246053Y-40867593D02*
X62646053Y-41267593D01*
X62646053Y-41267593D02*
X62212719Y-41267593D01*
X61879386Y-41267593D02*
X61746052Y-41267593D01*
X61746052Y-41267593D02*
X61679386Y-41234260D01*
X61679386Y-41234260D02*
X61646052Y-41200926D01*
X61646052Y-41200926D02*
X61579386Y-41100926D01*
X61579386Y-41100926D02*
X61546052Y-40967593D01*
X61546052Y-40967593D02*
X61546052Y-40700926D01*
X61546052Y-40700926D02*
X61579386Y-40634260D01*
X61579386Y-40634260D02*
X61612719Y-40600926D01*
X61612719Y-40600926D02*
X61679386Y-40567593D01*
X61679386Y-40567593D02*
X61812719Y-40567593D01*
X61812719Y-40567593D02*
X61879386Y-40600926D01*
X61879386Y-40600926D02*
X61912719Y-40634260D01*
X61912719Y-40634260D02*
X61946052Y-40700926D01*
X61946052Y-40700926D02*
X61946052Y-40867593D01*
X61946052Y-40867593D02*
X61912719Y-40934260D01*
X61912719Y-40934260D02*
X61879386Y-40967593D01*
X61879386Y-40967593D02*
X61812719Y-41000926D01*
X61812719Y-41000926D02*
X61679386Y-41000926D01*
X61679386Y-41000926D02*
X61612719Y-40967593D01*
X61612719Y-40967593D02*
X61579386Y-40934260D01*
X61579386Y-40934260D02*
X61546052Y-40867593D01*
X62929386Y-64400926D02*
X62962719Y-64434260D01*
X62962719Y-64434260D02*
X63062719Y-64467593D01*
X63062719Y-64467593D02*
X63129386Y-64467593D01*
X63129386Y-64467593D02*
X63229386Y-64434260D01*
X63229386Y-64434260D02*
X63296053Y-64367593D01*
X63296053Y-64367593D02*
X63329386Y-64300926D01*
X63329386Y-64300926D02*
X63362719Y-64167593D01*
X63362719Y-64167593D02*
X63362719Y-64067593D01*
X63362719Y-64067593D02*
X63329386Y-63934260D01*
X63329386Y-63934260D02*
X63296053Y-63867593D01*
X63296053Y-63867593D02*
X63229386Y-63800926D01*
X63229386Y-63800926D02*
X63129386Y-63767593D01*
X63129386Y-63767593D02*
X63062719Y-63767593D01*
X63062719Y-63767593D02*
X62962719Y-63800926D01*
X62962719Y-63800926D02*
X62929386Y-63834260D01*
X62596053Y-64467593D02*
X62462719Y-64467593D01*
X62462719Y-64467593D02*
X62396053Y-64434260D01*
X62396053Y-64434260D02*
X62362719Y-64400926D01*
X62362719Y-64400926D02*
X62296053Y-64300926D01*
X62296053Y-64300926D02*
X62262719Y-64167593D01*
X62262719Y-64167593D02*
X62262719Y-63900926D01*
X62262719Y-63900926D02*
X62296053Y-63834260D01*
X62296053Y-63834260D02*
X62329386Y-63800926D01*
X62329386Y-63800926D02*
X62396053Y-63767593D01*
X62396053Y-63767593D02*
X62529386Y-63767593D01*
X62529386Y-63767593D02*
X62596053Y-63800926D01*
X62596053Y-63800926D02*
X62629386Y-63834260D01*
X62629386Y-63834260D02*
X62662719Y-63900926D01*
X62662719Y-63900926D02*
X62662719Y-64067593D01*
X62662719Y-64067593D02*
X62629386Y-64134260D01*
X62629386Y-64134260D02*
X62596053Y-64167593D01*
X62596053Y-64167593D02*
X62529386Y-64200926D01*
X62529386Y-64200926D02*
X62396053Y-64200926D01*
X62396053Y-64200926D02*
X62329386Y-64167593D01*
X62329386Y-64167593D02*
X62296053Y-64134260D01*
X62296053Y-64134260D02*
X62262719Y-64067593D01*
X62879386Y-43400926D02*
X62912719Y-43434260D01*
X62912719Y-43434260D02*
X63012719Y-43467593D01*
X63012719Y-43467593D02*
X63079386Y-43467593D01*
X63079386Y-43467593D02*
X63179386Y-43434260D01*
X63179386Y-43434260D02*
X63246053Y-43367593D01*
X63246053Y-43367593D02*
X63279386Y-43300926D01*
X63279386Y-43300926D02*
X63312719Y-43167593D01*
X63312719Y-43167593D02*
X63312719Y-43067593D01*
X63312719Y-43067593D02*
X63279386Y-42934260D01*
X63279386Y-42934260D02*
X63246053Y-42867593D01*
X63246053Y-42867593D02*
X63179386Y-42800926D01*
X63179386Y-42800926D02*
X63079386Y-42767593D01*
X63079386Y-42767593D02*
X63012719Y-42767593D01*
X63012719Y-42767593D02*
X62912719Y-42800926D01*
X62912719Y-42800926D02*
X62879386Y-42834260D01*
X62612719Y-42834260D02*
X62579386Y-42800926D01*
X62579386Y-42800926D02*
X62512719Y-42767593D01*
X62512719Y-42767593D02*
X62346053Y-42767593D01*
X62346053Y-42767593D02*
X62279386Y-42800926D01*
X62279386Y-42800926D02*
X62246053Y-42834260D01*
X62246053Y-42834260D02*
X62212719Y-42900926D01*
X62212719Y-42900926D02*
X62212719Y-42967593D01*
X62212719Y-42967593D02*
X62246053Y-43067593D01*
X62246053Y-43067593D02*
X62646053Y-43467593D01*
X62646053Y-43467593D02*
X62212719Y-43467593D01*
X61979386Y-42767593D02*
X61512719Y-42767593D01*
X61512719Y-42767593D02*
X61812719Y-43467593D01*
X71970614Y-69700926D02*
X72003947Y-69734260D01*
X72003947Y-69734260D02*
X72103947Y-69767593D01*
X72103947Y-69767593D02*
X72170614Y-69767593D01*
X72170614Y-69767593D02*
X72270614Y-69734260D01*
X72270614Y-69734260D02*
X72337281Y-69667593D01*
X72337281Y-69667593D02*
X72370614Y-69600926D01*
X72370614Y-69600926D02*
X72403947Y-69467593D01*
X72403947Y-69467593D02*
X72403947Y-69367593D01*
X72403947Y-69367593D02*
X72370614Y-69234260D01*
X72370614Y-69234260D02*
X72337281Y-69167593D01*
X72337281Y-69167593D02*
X72270614Y-69100926D01*
X72270614Y-69100926D02*
X72170614Y-69067593D01*
X72170614Y-69067593D02*
X72103947Y-69067593D01*
X72103947Y-69067593D02*
X72003947Y-69100926D01*
X72003947Y-69100926D02*
X71970614Y-69134260D01*
X71737281Y-69067593D02*
X71303947Y-69067593D01*
X71303947Y-69067593D02*
X71537281Y-69334260D01*
X71537281Y-69334260D02*
X71437281Y-69334260D01*
X71437281Y-69334260D02*
X71370614Y-69367593D01*
X71370614Y-69367593D02*
X71337281Y-69400926D01*
X71337281Y-69400926D02*
X71303947Y-69467593D01*
X71303947Y-69467593D02*
X71303947Y-69634260D01*
X71303947Y-69634260D02*
X71337281Y-69700926D01*
X71337281Y-69700926D02*
X71370614Y-69734260D01*
X71370614Y-69734260D02*
X71437281Y-69767593D01*
X71437281Y-69767593D02*
X71637281Y-69767593D01*
X71637281Y-69767593D02*
X71703947Y-69734260D01*
X71703947Y-69734260D02*
X71737281Y-69700926D01*
X70703947Y-69067593D02*
X70837280Y-69067593D01*
X70837280Y-69067593D02*
X70903947Y-69100926D01*
X70903947Y-69100926D02*
X70937280Y-69134260D01*
X70937280Y-69134260D02*
X71003947Y-69234260D01*
X71003947Y-69234260D02*
X71037280Y-69367593D01*
X71037280Y-69367593D02*
X71037280Y-69634260D01*
X71037280Y-69634260D02*
X71003947Y-69700926D01*
X71003947Y-69700926D02*
X70970614Y-69734260D01*
X70970614Y-69734260D02*
X70903947Y-69767593D01*
X70903947Y-69767593D02*
X70770614Y-69767593D01*
X70770614Y-69767593D02*
X70703947Y-69734260D01*
X70703947Y-69734260D02*
X70670614Y-69700926D01*
X70670614Y-69700926D02*
X70637280Y-69634260D01*
X70637280Y-69634260D02*
X70637280Y-69467593D01*
X70637280Y-69467593D02*
X70670614Y-69400926D01*
X70670614Y-69400926D02*
X70703947Y-69367593D01*
X70703947Y-69367593D02*
X70770614Y-69334260D01*
X70770614Y-69334260D02*
X70903947Y-69334260D01*
X70903947Y-69334260D02*
X70970614Y-69367593D01*
X70970614Y-69367593D02*
X71003947Y-69400926D01*
X71003947Y-69400926D02*
X71037280Y-69467593D01*
X71970614Y-53220926D02*
X72003947Y-53254260D01*
X72003947Y-53254260D02*
X72103947Y-53287593D01*
X72103947Y-53287593D02*
X72170614Y-53287593D01*
X72170614Y-53287593D02*
X72270614Y-53254260D01*
X72270614Y-53254260D02*
X72337281Y-53187593D01*
X72337281Y-53187593D02*
X72370614Y-53120926D01*
X72370614Y-53120926D02*
X72403947Y-52987593D01*
X72403947Y-52987593D02*
X72403947Y-52887593D01*
X72403947Y-52887593D02*
X72370614Y-52754260D01*
X72370614Y-52754260D02*
X72337281Y-52687593D01*
X72337281Y-52687593D02*
X72270614Y-52620926D01*
X72270614Y-52620926D02*
X72170614Y-52587593D01*
X72170614Y-52587593D02*
X72103947Y-52587593D01*
X72103947Y-52587593D02*
X72003947Y-52620926D01*
X72003947Y-52620926D02*
X71970614Y-52654260D01*
X71370614Y-52820926D02*
X71370614Y-53287593D01*
X71537281Y-52554260D02*
X71703947Y-53054260D01*
X71703947Y-53054260D02*
X71270614Y-53054260D01*
X70970614Y-53287593D02*
X70837280Y-53287593D01*
X70837280Y-53287593D02*
X70770614Y-53254260D01*
X70770614Y-53254260D02*
X70737280Y-53220926D01*
X70737280Y-53220926D02*
X70670614Y-53120926D01*
X70670614Y-53120926D02*
X70637280Y-52987593D01*
X70637280Y-52987593D02*
X70637280Y-52720926D01*
X70637280Y-52720926D02*
X70670614Y-52654260D01*
X70670614Y-52654260D02*
X70703947Y-52620926D01*
X70703947Y-52620926D02*
X70770614Y-52587593D01*
X70770614Y-52587593D02*
X70903947Y-52587593D01*
X70903947Y-52587593D02*
X70970614Y-52620926D01*
X70970614Y-52620926D02*
X71003947Y-52654260D01*
X71003947Y-52654260D02*
X71037280Y-52720926D01*
X71037280Y-52720926D02*
X71037280Y-52887593D01*
X71037280Y-52887593D02*
X71003947Y-52954260D01*
X71003947Y-52954260D02*
X70970614Y-52987593D01*
X70970614Y-52987593D02*
X70903947Y-53020926D01*
X70903947Y-53020926D02*
X70770614Y-53020926D01*
X70770614Y-53020926D02*
X70703947Y-52987593D01*
X70703947Y-52987593D02*
X70670614Y-52954260D01*
X70670614Y-52954260D02*
X70637280Y-52887593D01*
X70366666Y-75017593D02*
X70599999Y-74684260D01*
X70766666Y-75017593D02*
X70766666Y-74317593D01*
X70766666Y-74317593D02*
X70499999Y-74317593D01*
X70499999Y-74317593D02*
X70433333Y-74350926D01*
X70433333Y-74350926D02*
X70399999Y-74384260D01*
X70399999Y-74384260D02*
X70366666Y-74450926D01*
X70366666Y-74450926D02*
X70366666Y-74550926D01*
X70366666Y-74550926D02*
X70399999Y-74617593D01*
X70399999Y-74617593D02*
X70433333Y-74650926D01*
X70433333Y-74650926D02*
X70499999Y-74684260D01*
X70499999Y-74684260D02*
X70766666Y-74684260D01*
X69699999Y-75017593D02*
X70099999Y-75017593D01*
X69899999Y-75017593D02*
X69899999Y-74317593D01*
X69899999Y-74317593D02*
X69966666Y-74417593D01*
X69966666Y-74417593D02*
X70033333Y-74484260D01*
X70033333Y-74484260D02*
X70099999Y-74517593D01*
X71970614Y-46500926D02*
X72003947Y-46534260D01*
X72003947Y-46534260D02*
X72103947Y-46567593D01*
X72103947Y-46567593D02*
X72170614Y-46567593D01*
X72170614Y-46567593D02*
X72270614Y-46534260D01*
X72270614Y-46534260D02*
X72337281Y-46467593D01*
X72337281Y-46467593D02*
X72370614Y-46400926D01*
X72370614Y-46400926D02*
X72403947Y-46267593D01*
X72403947Y-46267593D02*
X72403947Y-46167593D01*
X72403947Y-46167593D02*
X72370614Y-46034260D01*
X72370614Y-46034260D02*
X72337281Y-45967593D01*
X72337281Y-45967593D02*
X72270614Y-45900926D01*
X72270614Y-45900926D02*
X72170614Y-45867593D01*
X72170614Y-45867593D02*
X72103947Y-45867593D01*
X72103947Y-45867593D02*
X72003947Y-45900926D01*
X72003947Y-45900926D02*
X71970614Y-45934260D01*
X71337281Y-45867593D02*
X71670614Y-45867593D01*
X71670614Y-45867593D02*
X71703947Y-46200926D01*
X71703947Y-46200926D02*
X71670614Y-46167593D01*
X71670614Y-46167593D02*
X71603947Y-46134260D01*
X71603947Y-46134260D02*
X71437281Y-46134260D01*
X71437281Y-46134260D02*
X71370614Y-46167593D01*
X71370614Y-46167593D02*
X71337281Y-46200926D01*
X71337281Y-46200926D02*
X71303947Y-46267593D01*
X71303947Y-46267593D02*
X71303947Y-46434260D01*
X71303947Y-46434260D02*
X71337281Y-46500926D01*
X71337281Y-46500926D02*
X71370614Y-46534260D01*
X71370614Y-46534260D02*
X71437281Y-46567593D01*
X71437281Y-46567593D02*
X71603947Y-46567593D01*
X71603947Y-46567593D02*
X71670614Y-46534260D01*
X71670614Y-46534260D02*
X71703947Y-46500926D01*
X70703947Y-45867593D02*
X70837280Y-45867593D01*
X70837280Y-45867593D02*
X70903947Y-45900926D01*
X70903947Y-45900926D02*
X70937280Y-45934260D01*
X70937280Y-45934260D02*
X71003947Y-46034260D01*
X71003947Y-46034260D02*
X71037280Y-46167593D01*
X71037280Y-46167593D02*
X71037280Y-46434260D01*
X71037280Y-46434260D02*
X71003947Y-46500926D01*
X71003947Y-46500926D02*
X70970614Y-46534260D01*
X70970614Y-46534260D02*
X70903947Y-46567593D01*
X70903947Y-46567593D02*
X70770614Y-46567593D01*
X70770614Y-46567593D02*
X70703947Y-46534260D01*
X70703947Y-46534260D02*
X70670614Y-46500926D01*
X70670614Y-46500926D02*
X70637280Y-46434260D01*
X70637280Y-46434260D02*
X70637280Y-46267593D01*
X70637280Y-46267593D02*
X70670614Y-46200926D01*
X70670614Y-46200926D02*
X70703947Y-46167593D01*
X70703947Y-46167593D02*
X70770614Y-46134260D01*
X70770614Y-46134260D02*
X70903947Y-46134260D01*
X70903947Y-46134260D02*
X70970614Y-46167593D01*
X70970614Y-46167593D02*
X71003947Y-46200926D01*
X71003947Y-46200926D02*
X71037280Y-46267593D01*
X71970614Y-49200926D02*
X72003947Y-49234260D01*
X72003947Y-49234260D02*
X72103947Y-49267593D01*
X72103947Y-49267593D02*
X72170614Y-49267593D01*
X72170614Y-49267593D02*
X72270614Y-49234260D01*
X72270614Y-49234260D02*
X72337281Y-49167593D01*
X72337281Y-49167593D02*
X72370614Y-49100926D01*
X72370614Y-49100926D02*
X72403947Y-48967593D01*
X72403947Y-48967593D02*
X72403947Y-48867593D01*
X72403947Y-48867593D02*
X72370614Y-48734260D01*
X72370614Y-48734260D02*
X72337281Y-48667593D01*
X72337281Y-48667593D02*
X72270614Y-48600926D01*
X72270614Y-48600926D02*
X72170614Y-48567593D01*
X72170614Y-48567593D02*
X72103947Y-48567593D01*
X72103947Y-48567593D02*
X72003947Y-48600926D01*
X72003947Y-48600926D02*
X71970614Y-48634260D01*
X71337281Y-48567593D02*
X71670614Y-48567593D01*
X71670614Y-48567593D02*
X71703947Y-48900926D01*
X71703947Y-48900926D02*
X71670614Y-48867593D01*
X71670614Y-48867593D02*
X71603947Y-48834260D01*
X71603947Y-48834260D02*
X71437281Y-48834260D01*
X71437281Y-48834260D02*
X71370614Y-48867593D01*
X71370614Y-48867593D02*
X71337281Y-48900926D01*
X71337281Y-48900926D02*
X71303947Y-48967593D01*
X71303947Y-48967593D02*
X71303947Y-49134260D01*
X71303947Y-49134260D02*
X71337281Y-49200926D01*
X71337281Y-49200926D02*
X71370614Y-49234260D01*
X71370614Y-49234260D02*
X71437281Y-49267593D01*
X71437281Y-49267593D02*
X71603947Y-49267593D01*
X71603947Y-49267593D02*
X71670614Y-49234260D01*
X71670614Y-49234260D02*
X71703947Y-49200926D01*
X71070614Y-48567593D02*
X70637280Y-48567593D01*
X70637280Y-48567593D02*
X70870614Y-48834260D01*
X70870614Y-48834260D02*
X70770614Y-48834260D01*
X70770614Y-48834260D02*
X70703947Y-48867593D01*
X70703947Y-48867593D02*
X70670614Y-48900926D01*
X70670614Y-48900926D02*
X70637280Y-48967593D01*
X70637280Y-48967593D02*
X70637280Y-49134260D01*
X70637280Y-49134260D02*
X70670614Y-49200926D01*
X70670614Y-49200926D02*
X70703947Y-49234260D01*
X70703947Y-49234260D02*
X70770614Y-49267593D01*
X70770614Y-49267593D02*
X70970614Y-49267593D01*
X70970614Y-49267593D02*
X71037280Y-49234260D01*
X71037280Y-49234260D02*
X71070614Y-49200926D01*
X71970614Y-65700926D02*
X72003947Y-65734260D01*
X72003947Y-65734260D02*
X72103947Y-65767593D01*
X72103947Y-65767593D02*
X72170614Y-65767593D01*
X72170614Y-65767593D02*
X72270614Y-65734260D01*
X72270614Y-65734260D02*
X72337281Y-65667593D01*
X72337281Y-65667593D02*
X72370614Y-65600926D01*
X72370614Y-65600926D02*
X72403947Y-65467593D01*
X72403947Y-65467593D02*
X72403947Y-65367593D01*
X72403947Y-65367593D02*
X72370614Y-65234260D01*
X72370614Y-65234260D02*
X72337281Y-65167593D01*
X72337281Y-65167593D02*
X72270614Y-65100926D01*
X72270614Y-65100926D02*
X72170614Y-65067593D01*
X72170614Y-65067593D02*
X72103947Y-65067593D01*
X72103947Y-65067593D02*
X72003947Y-65100926D01*
X72003947Y-65100926D02*
X71970614Y-65134260D01*
X71370614Y-65300926D02*
X71370614Y-65767593D01*
X71537281Y-65034260D02*
X71703947Y-65534260D01*
X71703947Y-65534260D02*
X71270614Y-65534260D01*
X70870614Y-65067593D02*
X70803947Y-65067593D01*
X70803947Y-65067593D02*
X70737280Y-65100926D01*
X70737280Y-65100926D02*
X70703947Y-65134260D01*
X70703947Y-65134260D02*
X70670614Y-65200926D01*
X70670614Y-65200926D02*
X70637280Y-65334260D01*
X70637280Y-65334260D02*
X70637280Y-65500926D01*
X70637280Y-65500926D02*
X70670614Y-65634260D01*
X70670614Y-65634260D02*
X70703947Y-65700926D01*
X70703947Y-65700926D02*
X70737280Y-65734260D01*
X70737280Y-65734260D02*
X70803947Y-65767593D01*
X70803947Y-65767593D02*
X70870614Y-65767593D01*
X70870614Y-65767593D02*
X70937280Y-65734260D01*
X70937280Y-65734260D02*
X70970614Y-65700926D01*
X70970614Y-65700926D02*
X71003947Y-65634260D01*
X71003947Y-65634260D02*
X71037280Y-65500926D01*
X71037280Y-65500926D02*
X71037280Y-65334260D01*
X71037280Y-65334260D02*
X71003947Y-65200926D01*
X71003947Y-65200926D02*
X70970614Y-65134260D01*
X70970614Y-65134260D02*
X70937280Y-65100926D01*
X70937280Y-65100926D02*
X70870614Y-65067593D01*
X71970614Y-47400926D02*
X72003947Y-47434260D01*
X72003947Y-47434260D02*
X72103947Y-47467593D01*
X72103947Y-47467593D02*
X72170614Y-47467593D01*
X72170614Y-47467593D02*
X72270614Y-47434260D01*
X72270614Y-47434260D02*
X72337281Y-47367593D01*
X72337281Y-47367593D02*
X72370614Y-47300926D01*
X72370614Y-47300926D02*
X72403947Y-47167593D01*
X72403947Y-47167593D02*
X72403947Y-47067593D01*
X72403947Y-47067593D02*
X72370614Y-46934260D01*
X72370614Y-46934260D02*
X72337281Y-46867593D01*
X72337281Y-46867593D02*
X72270614Y-46800926D01*
X72270614Y-46800926D02*
X72170614Y-46767593D01*
X72170614Y-46767593D02*
X72103947Y-46767593D01*
X72103947Y-46767593D02*
X72003947Y-46800926D01*
X72003947Y-46800926D02*
X71970614Y-46834260D01*
X71337281Y-46767593D02*
X71670614Y-46767593D01*
X71670614Y-46767593D02*
X71703947Y-47100926D01*
X71703947Y-47100926D02*
X71670614Y-47067593D01*
X71670614Y-47067593D02*
X71603947Y-47034260D01*
X71603947Y-47034260D02*
X71437281Y-47034260D01*
X71437281Y-47034260D02*
X71370614Y-47067593D01*
X71370614Y-47067593D02*
X71337281Y-47100926D01*
X71337281Y-47100926D02*
X71303947Y-47167593D01*
X71303947Y-47167593D02*
X71303947Y-47334260D01*
X71303947Y-47334260D02*
X71337281Y-47400926D01*
X71337281Y-47400926D02*
X71370614Y-47434260D01*
X71370614Y-47434260D02*
X71437281Y-47467593D01*
X71437281Y-47467593D02*
X71603947Y-47467593D01*
X71603947Y-47467593D02*
X71670614Y-47434260D01*
X71670614Y-47434260D02*
X71703947Y-47400926D01*
X70670614Y-46767593D02*
X71003947Y-46767593D01*
X71003947Y-46767593D02*
X71037280Y-47100926D01*
X71037280Y-47100926D02*
X71003947Y-47067593D01*
X71003947Y-47067593D02*
X70937280Y-47034260D01*
X70937280Y-47034260D02*
X70770614Y-47034260D01*
X70770614Y-47034260D02*
X70703947Y-47067593D01*
X70703947Y-47067593D02*
X70670614Y-47100926D01*
X70670614Y-47100926D02*
X70637280Y-47167593D01*
X70637280Y-47167593D02*
X70637280Y-47334260D01*
X70637280Y-47334260D02*
X70670614Y-47400926D01*
X70670614Y-47400926D02*
X70703947Y-47434260D01*
X70703947Y-47434260D02*
X70770614Y-47467593D01*
X70770614Y-47467593D02*
X70937280Y-47467593D01*
X70937280Y-47467593D02*
X71003947Y-47434260D01*
X71003947Y-47434260D02*
X71037280Y-47400926D01*
X71970614Y-50500926D02*
X72003947Y-50534260D01*
X72003947Y-50534260D02*
X72103947Y-50567593D01*
X72103947Y-50567593D02*
X72170614Y-50567593D01*
X72170614Y-50567593D02*
X72270614Y-50534260D01*
X72270614Y-50534260D02*
X72337281Y-50467593D01*
X72337281Y-50467593D02*
X72370614Y-50400926D01*
X72370614Y-50400926D02*
X72403947Y-50267593D01*
X72403947Y-50267593D02*
X72403947Y-50167593D01*
X72403947Y-50167593D02*
X72370614Y-50034260D01*
X72370614Y-50034260D02*
X72337281Y-49967593D01*
X72337281Y-49967593D02*
X72270614Y-49900926D01*
X72270614Y-49900926D02*
X72170614Y-49867593D01*
X72170614Y-49867593D02*
X72103947Y-49867593D01*
X72103947Y-49867593D02*
X72003947Y-49900926D01*
X72003947Y-49900926D02*
X71970614Y-49934260D01*
X71337281Y-49867593D02*
X71670614Y-49867593D01*
X71670614Y-49867593D02*
X71703947Y-50200926D01*
X71703947Y-50200926D02*
X71670614Y-50167593D01*
X71670614Y-50167593D02*
X71603947Y-50134260D01*
X71603947Y-50134260D02*
X71437281Y-50134260D01*
X71437281Y-50134260D02*
X71370614Y-50167593D01*
X71370614Y-50167593D02*
X71337281Y-50200926D01*
X71337281Y-50200926D02*
X71303947Y-50267593D01*
X71303947Y-50267593D02*
X71303947Y-50434260D01*
X71303947Y-50434260D02*
X71337281Y-50500926D01*
X71337281Y-50500926D02*
X71370614Y-50534260D01*
X71370614Y-50534260D02*
X71437281Y-50567593D01*
X71437281Y-50567593D02*
X71603947Y-50567593D01*
X71603947Y-50567593D02*
X71670614Y-50534260D01*
X71670614Y-50534260D02*
X71703947Y-50500926D01*
X71037280Y-49934260D02*
X71003947Y-49900926D01*
X71003947Y-49900926D02*
X70937280Y-49867593D01*
X70937280Y-49867593D02*
X70770614Y-49867593D01*
X70770614Y-49867593D02*
X70703947Y-49900926D01*
X70703947Y-49900926D02*
X70670614Y-49934260D01*
X70670614Y-49934260D02*
X70637280Y-50000926D01*
X70637280Y-50000926D02*
X70637280Y-50067593D01*
X70637280Y-50067593D02*
X70670614Y-50167593D01*
X70670614Y-50167593D02*
X71070614Y-50567593D01*
X71070614Y-50567593D02*
X70637280Y-50567593D01*
X71970614Y-40300926D02*
X72003947Y-40334260D01*
X72003947Y-40334260D02*
X72103947Y-40367593D01*
X72103947Y-40367593D02*
X72170614Y-40367593D01*
X72170614Y-40367593D02*
X72270614Y-40334260D01*
X72270614Y-40334260D02*
X72337281Y-40267593D01*
X72337281Y-40267593D02*
X72370614Y-40200926D01*
X72370614Y-40200926D02*
X72403947Y-40067593D01*
X72403947Y-40067593D02*
X72403947Y-39967593D01*
X72403947Y-39967593D02*
X72370614Y-39834260D01*
X72370614Y-39834260D02*
X72337281Y-39767593D01*
X72337281Y-39767593D02*
X72270614Y-39700926D01*
X72270614Y-39700926D02*
X72170614Y-39667593D01*
X72170614Y-39667593D02*
X72103947Y-39667593D01*
X72103947Y-39667593D02*
X72003947Y-39700926D01*
X72003947Y-39700926D02*
X71970614Y-39734260D01*
X71370614Y-39667593D02*
X71503947Y-39667593D01*
X71503947Y-39667593D02*
X71570614Y-39700926D01*
X71570614Y-39700926D02*
X71603947Y-39734260D01*
X71603947Y-39734260D02*
X71670614Y-39834260D01*
X71670614Y-39834260D02*
X71703947Y-39967593D01*
X71703947Y-39967593D02*
X71703947Y-40234260D01*
X71703947Y-40234260D02*
X71670614Y-40300926D01*
X71670614Y-40300926D02*
X71637281Y-40334260D01*
X71637281Y-40334260D02*
X71570614Y-40367593D01*
X71570614Y-40367593D02*
X71437281Y-40367593D01*
X71437281Y-40367593D02*
X71370614Y-40334260D01*
X71370614Y-40334260D02*
X71337281Y-40300926D01*
X71337281Y-40300926D02*
X71303947Y-40234260D01*
X71303947Y-40234260D02*
X71303947Y-40067593D01*
X71303947Y-40067593D02*
X71337281Y-40000926D01*
X71337281Y-40000926D02*
X71370614Y-39967593D01*
X71370614Y-39967593D02*
X71437281Y-39934260D01*
X71437281Y-39934260D02*
X71570614Y-39934260D01*
X71570614Y-39934260D02*
X71637281Y-39967593D01*
X71637281Y-39967593D02*
X71670614Y-40000926D01*
X71670614Y-40000926D02*
X71703947Y-40067593D01*
X71037280Y-39734260D02*
X71003947Y-39700926D01*
X71003947Y-39700926D02*
X70937280Y-39667593D01*
X70937280Y-39667593D02*
X70770614Y-39667593D01*
X70770614Y-39667593D02*
X70703947Y-39700926D01*
X70703947Y-39700926D02*
X70670614Y-39734260D01*
X70670614Y-39734260D02*
X70637280Y-39800926D01*
X70637280Y-39800926D02*
X70637280Y-39867593D01*
X70637280Y-39867593D02*
X70670614Y-39967593D01*
X70670614Y-39967593D02*
X71070614Y-40367593D01*
X71070614Y-40367593D02*
X70637280Y-40367593D01*
X71166666Y-79838855D02*
X71166666Y-80410283D01*
X71166666Y-80410283D02*
X71204761Y-80524569D01*
X71204761Y-80524569D02*
X71280952Y-80600760D01*
X71280952Y-80600760D02*
X71395237Y-80638855D01*
X71395237Y-80638855D02*
X71471428Y-80638855D01*
X70823809Y-79915045D02*
X70785713Y-79876950D01*
X70785713Y-79876950D02*
X70709523Y-79838855D01*
X70709523Y-79838855D02*
X70519047Y-79838855D01*
X70519047Y-79838855D02*
X70442856Y-79876950D01*
X70442856Y-79876950D02*
X70404761Y-79915045D01*
X70404761Y-79915045D02*
X70366666Y-79991236D01*
X70366666Y-79991236D02*
X70366666Y-80067426D01*
X70366666Y-80067426D02*
X70404761Y-80181712D01*
X70404761Y-80181712D02*
X70861904Y-80638855D01*
X70861904Y-80638855D02*
X70366666Y-80638855D01*
X71970614Y-70600926D02*
X72003947Y-70634260D01*
X72003947Y-70634260D02*
X72103947Y-70667593D01*
X72103947Y-70667593D02*
X72170614Y-70667593D01*
X72170614Y-70667593D02*
X72270614Y-70634260D01*
X72270614Y-70634260D02*
X72337281Y-70567593D01*
X72337281Y-70567593D02*
X72370614Y-70500926D01*
X72370614Y-70500926D02*
X72403947Y-70367593D01*
X72403947Y-70367593D02*
X72403947Y-70267593D01*
X72403947Y-70267593D02*
X72370614Y-70134260D01*
X72370614Y-70134260D02*
X72337281Y-70067593D01*
X72337281Y-70067593D02*
X72270614Y-70000926D01*
X72270614Y-70000926D02*
X72170614Y-69967593D01*
X72170614Y-69967593D02*
X72103947Y-69967593D01*
X72103947Y-69967593D02*
X72003947Y-70000926D01*
X72003947Y-70000926D02*
X71970614Y-70034260D01*
X71737281Y-69967593D02*
X71303947Y-69967593D01*
X71303947Y-69967593D02*
X71537281Y-70234260D01*
X71537281Y-70234260D02*
X71437281Y-70234260D01*
X71437281Y-70234260D02*
X71370614Y-70267593D01*
X71370614Y-70267593D02*
X71337281Y-70300926D01*
X71337281Y-70300926D02*
X71303947Y-70367593D01*
X71303947Y-70367593D02*
X71303947Y-70534260D01*
X71303947Y-70534260D02*
X71337281Y-70600926D01*
X71337281Y-70600926D02*
X71370614Y-70634260D01*
X71370614Y-70634260D02*
X71437281Y-70667593D01*
X71437281Y-70667593D02*
X71637281Y-70667593D01*
X71637281Y-70667593D02*
X71703947Y-70634260D01*
X71703947Y-70634260D02*
X71737281Y-70600926D01*
X70670614Y-69967593D02*
X71003947Y-69967593D01*
X71003947Y-69967593D02*
X71037280Y-70300926D01*
X71037280Y-70300926D02*
X71003947Y-70267593D01*
X71003947Y-70267593D02*
X70937280Y-70234260D01*
X70937280Y-70234260D02*
X70770614Y-70234260D01*
X70770614Y-70234260D02*
X70703947Y-70267593D01*
X70703947Y-70267593D02*
X70670614Y-70300926D01*
X70670614Y-70300926D02*
X70637280Y-70367593D01*
X70637280Y-70367593D02*
X70637280Y-70534260D01*
X70637280Y-70534260D02*
X70670614Y-70600926D01*
X70670614Y-70600926D02*
X70703947Y-70634260D01*
X70703947Y-70634260D02*
X70770614Y-70667593D01*
X70770614Y-70667593D02*
X70937280Y-70667593D01*
X70937280Y-70667593D02*
X71003947Y-70634260D01*
X71003947Y-70634260D02*
X71037280Y-70600926D01*
X71970614Y-57700926D02*
X72003947Y-57734260D01*
X72003947Y-57734260D02*
X72103947Y-57767593D01*
X72103947Y-57767593D02*
X72170614Y-57767593D01*
X72170614Y-57767593D02*
X72270614Y-57734260D01*
X72270614Y-57734260D02*
X72337281Y-57667593D01*
X72337281Y-57667593D02*
X72370614Y-57600926D01*
X72370614Y-57600926D02*
X72403947Y-57467593D01*
X72403947Y-57467593D02*
X72403947Y-57367593D01*
X72403947Y-57367593D02*
X72370614Y-57234260D01*
X72370614Y-57234260D02*
X72337281Y-57167593D01*
X72337281Y-57167593D02*
X72270614Y-57100926D01*
X72270614Y-57100926D02*
X72170614Y-57067593D01*
X72170614Y-57067593D02*
X72103947Y-57067593D01*
X72103947Y-57067593D02*
X72003947Y-57100926D01*
X72003947Y-57100926D02*
X71970614Y-57134260D01*
X71370614Y-57300926D02*
X71370614Y-57767593D01*
X71537281Y-57034260D02*
X71703947Y-57534260D01*
X71703947Y-57534260D02*
X71270614Y-57534260D01*
X70903947Y-57367593D02*
X70970614Y-57334260D01*
X70970614Y-57334260D02*
X71003947Y-57300926D01*
X71003947Y-57300926D02*
X71037280Y-57234260D01*
X71037280Y-57234260D02*
X71037280Y-57200926D01*
X71037280Y-57200926D02*
X71003947Y-57134260D01*
X71003947Y-57134260D02*
X70970614Y-57100926D01*
X70970614Y-57100926D02*
X70903947Y-57067593D01*
X70903947Y-57067593D02*
X70770614Y-57067593D01*
X70770614Y-57067593D02*
X70703947Y-57100926D01*
X70703947Y-57100926D02*
X70670614Y-57134260D01*
X70670614Y-57134260D02*
X70637280Y-57200926D01*
X70637280Y-57200926D02*
X70637280Y-57234260D01*
X70637280Y-57234260D02*
X70670614Y-57300926D01*
X70670614Y-57300926D02*
X70703947Y-57334260D01*
X70703947Y-57334260D02*
X70770614Y-57367593D01*
X70770614Y-57367593D02*
X70903947Y-57367593D01*
X70903947Y-57367593D02*
X70970614Y-57400926D01*
X70970614Y-57400926D02*
X71003947Y-57434260D01*
X71003947Y-57434260D02*
X71037280Y-57500926D01*
X71037280Y-57500926D02*
X71037280Y-57634260D01*
X71037280Y-57634260D02*
X71003947Y-57700926D01*
X71003947Y-57700926D02*
X70970614Y-57734260D01*
X70970614Y-57734260D02*
X70903947Y-57767593D01*
X70903947Y-57767593D02*
X70770614Y-57767593D01*
X70770614Y-57767593D02*
X70703947Y-57734260D01*
X70703947Y-57734260D02*
X70670614Y-57700926D01*
X70670614Y-57700926D02*
X70637280Y-57634260D01*
X70637280Y-57634260D02*
X70637280Y-57500926D01*
X70637280Y-57500926D02*
X70670614Y-57434260D01*
X70670614Y-57434260D02*
X70703947Y-57400926D01*
X70703947Y-57400926D02*
X70770614Y-57367593D01*
X62929386Y-67500926D02*
X62962719Y-67534260D01*
X62962719Y-67534260D02*
X63062719Y-67567593D01*
X63062719Y-67567593D02*
X63129386Y-67567593D01*
X63129386Y-67567593D02*
X63229386Y-67534260D01*
X63229386Y-67534260D02*
X63296053Y-67467593D01*
X63296053Y-67467593D02*
X63329386Y-67400926D01*
X63329386Y-67400926D02*
X63362719Y-67267593D01*
X63362719Y-67267593D02*
X63362719Y-67167593D01*
X63362719Y-67167593D02*
X63329386Y-67034260D01*
X63329386Y-67034260D02*
X63296053Y-66967593D01*
X63296053Y-66967593D02*
X63229386Y-66900926D01*
X63229386Y-66900926D02*
X63129386Y-66867593D01*
X63129386Y-66867593D02*
X63062719Y-66867593D01*
X63062719Y-66867593D02*
X62962719Y-66900926D01*
X62962719Y-66900926D02*
X62929386Y-66934260D01*
X62329386Y-66867593D02*
X62462719Y-66867593D01*
X62462719Y-66867593D02*
X62529386Y-66900926D01*
X62529386Y-66900926D02*
X62562719Y-66934260D01*
X62562719Y-66934260D02*
X62629386Y-67034260D01*
X62629386Y-67034260D02*
X62662719Y-67167593D01*
X62662719Y-67167593D02*
X62662719Y-67434260D01*
X62662719Y-67434260D02*
X62629386Y-67500926D01*
X62629386Y-67500926D02*
X62596053Y-67534260D01*
X62596053Y-67534260D02*
X62529386Y-67567593D01*
X62529386Y-67567593D02*
X62396053Y-67567593D01*
X62396053Y-67567593D02*
X62329386Y-67534260D01*
X62329386Y-67534260D02*
X62296053Y-67500926D01*
X62296053Y-67500926D02*
X62262719Y-67434260D01*
X62262719Y-67434260D02*
X62262719Y-67267593D01*
X62262719Y-67267593D02*
X62296053Y-67200926D01*
X62296053Y-67200926D02*
X62329386Y-67167593D01*
X62329386Y-67167593D02*
X62396053Y-67134260D01*
X62396053Y-67134260D02*
X62529386Y-67134260D01*
X62529386Y-67134260D02*
X62596053Y-67167593D01*
X62596053Y-67167593D02*
X62629386Y-67200926D01*
X62629386Y-67200926D02*
X62662719Y-67267593D01*
X71970614Y-45200926D02*
X72003947Y-45234260D01*
X72003947Y-45234260D02*
X72103947Y-45267593D01*
X72103947Y-45267593D02*
X72170614Y-45267593D01*
X72170614Y-45267593D02*
X72270614Y-45234260D01*
X72270614Y-45234260D02*
X72337281Y-45167593D01*
X72337281Y-45167593D02*
X72370614Y-45100926D01*
X72370614Y-45100926D02*
X72403947Y-44967593D01*
X72403947Y-44967593D02*
X72403947Y-44867593D01*
X72403947Y-44867593D02*
X72370614Y-44734260D01*
X72370614Y-44734260D02*
X72337281Y-44667593D01*
X72337281Y-44667593D02*
X72270614Y-44600926D01*
X72270614Y-44600926D02*
X72170614Y-44567593D01*
X72170614Y-44567593D02*
X72103947Y-44567593D01*
X72103947Y-44567593D02*
X72003947Y-44600926D01*
X72003947Y-44600926D02*
X71970614Y-44634260D01*
X71337281Y-44567593D02*
X71670614Y-44567593D01*
X71670614Y-44567593D02*
X71703947Y-44900926D01*
X71703947Y-44900926D02*
X71670614Y-44867593D01*
X71670614Y-44867593D02*
X71603947Y-44834260D01*
X71603947Y-44834260D02*
X71437281Y-44834260D01*
X71437281Y-44834260D02*
X71370614Y-44867593D01*
X71370614Y-44867593D02*
X71337281Y-44900926D01*
X71337281Y-44900926D02*
X71303947Y-44967593D01*
X71303947Y-44967593D02*
X71303947Y-45134260D01*
X71303947Y-45134260D02*
X71337281Y-45200926D01*
X71337281Y-45200926D02*
X71370614Y-45234260D01*
X71370614Y-45234260D02*
X71437281Y-45267593D01*
X71437281Y-45267593D02*
X71603947Y-45267593D01*
X71603947Y-45267593D02*
X71670614Y-45234260D01*
X71670614Y-45234260D02*
X71703947Y-45200926D01*
X71070614Y-44567593D02*
X70603947Y-44567593D01*
X70603947Y-44567593D02*
X70903947Y-45267593D01*
X71970614Y-66600926D02*
X72003947Y-66634260D01*
X72003947Y-66634260D02*
X72103947Y-66667593D01*
X72103947Y-66667593D02*
X72170614Y-66667593D01*
X72170614Y-66667593D02*
X72270614Y-66634260D01*
X72270614Y-66634260D02*
X72337281Y-66567593D01*
X72337281Y-66567593D02*
X72370614Y-66500926D01*
X72370614Y-66500926D02*
X72403947Y-66367593D01*
X72403947Y-66367593D02*
X72403947Y-66267593D01*
X72403947Y-66267593D02*
X72370614Y-66134260D01*
X72370614Y-66134260D02*
X72337281Y-66067593D01*
X72337281Y-66067593D02*
X72270614Y-66000926D01*
X72270614Y-66000926D02*
X72170614Y-65967593D01*
X72170614Y-65967593D02*
X72103947Y-65967593D01*
X72103947Y-65967593D02*
X72003947Y-66000926D01*
X72003947Y-66000926D02*
X71970614Y-66034260D01*
X71737281Y-65967593D02*
X71303947Y-65967593D01*
X71303947Y-65967593D02*
X71537281Y-66234260D01*
X71537281Y-66234260D02*
X71437281Y-66234260D01*
X71437281Y-66234260D02*
X71370614Y-66267593D01*
X71370614Y-66267593D02*
X71337281Y-66300926D01*
X71337281Y-66300926D02*
X71303947Y-66367593D01*
X71303947Y-66367593D02*
X71303947Y-66534260D01*
X71303947Y-66534260D02*
X71337281Y-66600926D01*
X71337281Y-66600926D02*
X71370614Y-66634260D01*
X71370614Y-66634260D02*
X71437281Y-66667593D01*
X71437281Y-66667593D02*
X71637281Y-66667593D01*
X71637281Y-66667593D02*
X71703947Y-66634260D01*
X71703947Y-66634260D02*
X71737281Y-66600926D01*
X70970614Y-66667593D02*
X70837280Y-66667593D01*
X70837280Y-66667593D02*
X70770614Y-66634260D01*
X70770614Y-66634260D02*
X70737280Y-66600926D01*
X70737280Y-66600926D02*
X70670614Y-66500926D01*
X70670614Y-66500926D02*
X70637280Y-66367593D01*
X70637280Y-66367593D02*
X70637280Y-66100926D01*
X70637280Y-66100926D02*
X70670614Y-66034260D01*
X70670614Y-66034260D02*
X70703947Y-66000926D01*
X70703947Y-66000926D02*
X70770614Y-65967593D01*
X70770614Y-65967593D02*
X70903947Y-65967593D01*
X70903947Y-65967593D02*
X70970614Y-66000926D01*
X70970614Y-66000926D02*
X71003947Y-66034260D01*
X71003947Y-66034260D02*
X71037280Y-66100926D01*
X71037280Y-66100926D02*
X71037280Y-66267593D01*
X71037280Y-66267593D02*
X71003947Y-66334260D01*
X71003947Y-66334260D02*
X70970614Y-66367593D01*
X70970614Y-66367593D02*
X70903947Y-66400926D01*
X70903947Y-66400926D02*
X70770614Y-66400926D01*
X70770614Y-66400926D02*
X70703947Y-66367593D01*
X70703947Y-66367593D02*
X70670614Y-66334260D01*
X70670614Y-66334260D02*
X70637280Y-66267593D01*
X62879386Y-49200926D02*
X62912719Y-49234260D01*
X62912719Y-49234260D02*
X63012719Y-49267593D01*
X63012719Y-49267593D02*
X63079386Y-49267593D01*
X63079386Y-49267593D02*
X63179386Y-49234260D01*
X63179386Y-49234260D02*
X63246053Y-49167593D01*
X63246053Y-49167593D02*
X63279386Y-49100926D01*
X63279386Y-49100926D02*
X63312719Y-48967593D01*
X63312719Y-48967593D02*
X63312719Y-48867593D01*
X63312719Y-48867593D02*
X63279386Y-48734260D01*
X63279386Y-48734260D02*
X63246053Y-48667593D01*
X63246053Y-48667593D02*
X63179386Y-48600926D01*
X63179386Y-48600926D02*
X63079386Y-48567593D01*
X63079386Y-48567593D02*
X63012719Y-48567593D01*
X63012719Y-48567593D02*
X62912719Y-48600926D01*
X62912719Y-48600926D02*
X62879386Y-48634260D01*
X62612719Y-48634260D02*
X62579386Y-48600926D01*
X62579386Y-48600926D02*
X62512719Y-48567593D01*
X62512719Y-48567593D02*
X62346053Y-48567593D01*
X62346053Y-48567593D02*
X62279386Y-48600926D01*
X62279386Y-48600926D02*
X62246053Y-48634260D01*
X62246053Y-48634260D02*
X62212719Y-48700926D01*
X62212719Y-48700926D02*
X62212719Y-48767593D01*
X62212719Y-48767593D02*
X62246053Y-48867593D01*
X62246053Y-48867593D02*
X62646053Y-49267593D01*
X62646053Y-49267593D02*
X62212719Y-49267593D01*
X61546052Y-49267593D02*
X61946052Y-49267593D01*
X61746052Y-49267593D02*
X61746052Y-48567593D01*
X61746052Y-48567593D02*
X61812719Y-48667593D01*
X61812719Y-48667593D02*
X61879386Y-48734260D01*
X61879386Y-48734260D02*
X61946052Y-48767593D01*
X62929386Y-65700926D02*
X62962719Y-65734260D01*
X62962719Y-65734260D02*
X63062719Y-65767593D01*
X63062719Y-65767593D02*
X63129386Y-65767593D01*
X63129386Y-65767593D02*
X63229386Y-65734260D01*
X63229386Y-65734260D02*
X63296053Y-65667593D01*
X63296053Y-65667593D02*
X63329386Y-65600926D01*
X63329386Y-65600926D02*
X63362719Y-65467593D01*
X63362719Y-65467593D02*
X63362719Y-65367593D01*
X63362719Y-65367593D02*
X63329386Y-65234260D01*
X63329386Y-65234260D02*
X63296053Y-65167593D01*
X63296053Y-65167593D02*
X63229386Y-65100926D01*
X63229386Y-65100926D02*
X63129386Y-65067593D01*
X63129386Y-65067593D02*
X63062719Y-65067593D01*
X63062719Y-65067593D02*
X62962719Y-65100926D01*
X62962719Y-65100926D02*
X62929386Y-65134260D01*
X62529386Y-65367593D02*
X62596053Y-65334260D01*
X62596053Y-65334260D02*
X62629386Y-65300926D01*
X62629386Y-65300926D02*
X62662719Y-65234260D01*
X62662719Y-65234260D02*
X62662719Y-65200926D01*
X62662719Y-65200926D02*
X62629386Y-65134260D01*
X62629386Y-65134260D02*
X62596053Y-65100926D01*
X62596053Y-65100926D02*
X62529386Y-65067593D01*
X62529386Y-65067593D02*
X62396053Y-65067593D01*
X62396053Y-65067593D02*
X62329386Y-65100926D01*
X62329386Y-65100926D02*
X62296053Y-65134260D01*
X62296053Y-65134260D02*
X62262719Y-65200926D01*
X62262719Y-65200926D02*
X62262719Y-65234260D01*
X62262719Y-65234260D02*
X62296053Y-65300926D01*
X62296053Y-65300926D02*
X62329386Y-65334260D01*
X62329386Y-65334260D02*
X62396053Y-65367593D01*
X62396053Y-65367593D02*
X62529386Y-65367593D01*
X62529386Y-65367593D02*
X62596053Y-65400926D01*
X62596053Y-65400926D02*
X62629386Y-65434260D01*
X62629386Y-65434260D02*
X62662719Y-65500926D01*
X62662719Y-65500926D02*
X62662719Y-65634260D01*
X62662719Y-65634260D02*
X62629386Y-65700926D01*
X62629386Y-65700926D02*
X62596053Y-65734260D01*
X62596053Y-65734260D02*
X62529386Y-65767593D01*
X62529386Y-65767593D02*
X62396053Y-65767593D01*
X62396053Y-65767593D02*
X62329386Y-65734260D01*
X62329386Y-65734260D02*
X62296053Y-65700926D01*
X62296053Y-65700926D02*
X62262719Y-65634260D01*
X62262719Y-65634260D02*
X62262719Y-65500926D01*
X62262719Y-65500926D02*
X62296053Y-65434260D01*
X62296053Y-65434260D02*
X62329386Y-65400926D01*
X62329386Y-65400926D02*
X62396053Y-65367593D01*
X62879386Y-48300926D02*
X62912719Y-48334260D01*
X62912719Y-48334260D02*
X63012719Y-48367593D01*
X63012719Y-48367593D02*
X63079386Y-48367593D01*
X63079386Y-48367593D02*
X63179386Y-48334260D01*
X63179386Y-48334260D02*
X63246053Y-48267593D01*
X63246053Y-48267593D02*
X63279386Y-48200926D01*
X63279386Y-48200926D02*
X63312719Y-48067593D01*
X63312719Y-48067593D02*
X63312719Y-47967593D01*
X63312719Y-47967593D02*
X63279386Y-47834260D01*
X63279386Y-47834260D02*
X63246053Y-47767593D01*
X63246053Y-47767593D02*
X63179386Y-47700926D01*
X63179386Y-47700926D02*
X63079386Y-47667593D01*
X63079386Y-47667593D02*
X63012719Y-47667593D01*
X63012719Y-47667593D02*
X62912719Y-47700926D01*
X62912719Y-47700926D02*
X62879386Y-47734260D01*
X62612719Y-47734260D02*
X62579386Y-47700926D01*
X62579386Y-47700926D02*
X62512719Y-47667593D01*
X62512719Y-47667593D02*
X62346053Y-47667593D01*
X62346053Y-47667593D02*
X62279386Y-47700926D01*
X62279386Y-47700926D02*
X62246053Y-47734260D01*
X62246053Y-47734260D02*
X62212719Y-47800926D01*
X62212719Y-47800926D02*
X62212719Y-47867593D01*
X62212719Y-47867593D02*
X62246053Y-47967593D01*
X62246053Y-47967593D02*
X62646053Y-48367593D01*
X62646053Y-48367593D02*
X62212719Y-48367593D01*
X61946052Y-47734260D02*
X61912719Y-47700926D01*
X61912719Y-47700926D02*
X61846052Y-47667593D01*
X61846052Y-47667593D02*
X61679386Y-47667593D01*
X61679386Y-47667593D02*
X61612719Y-47700926D01*
X61612719Y-47700926D02*
X61579386Y-47734260D01*
X61579386Y-47734260D02*
X61546052Y-47800926D01*
X61546052Y-47800926D02*
X61546052Y-47867593D01*
X61546052Y-47867593D02*
X61579386Y-47967593D01*
X61579386Y-47967593D02*
X61979386Y-48367593D01*
X61979386Y-48367593D02*
X61546052Y-48367593D01*
X71970614Y-44300926D02*
X72003947Y-44334260D01*
X72003947Y-44334260D02*
X72103947Y-44367593D01*
X72103947Y-44367593D02*
X72170614Y-44367593D01*
X72170614Y-44367593D02*
X72270614Y-44334260D01*
X72270614Y-44334260D02*
X72337281Y-44267593D01*
X72337281Y-44267593D02*
X72370614Y-44200926D01*
X72370614Y-44200926D02*
X72403947Y-44067593D01*
X72403947Y-44067593D02*
X72403947Y-43967593D01*
X72403947Y-43967593D02*
X72370614Y-43834260D01*
X72370614Y-43834260D02*
X72337281Y-43767593D01*
X72337281Y-43767593D02*
X72270614Y-43700926D01*
X72270614Y-43700926D02*
X72170614Y-43667593D01*
X72170614Y-43667593D02*
X72103947Y-43667593D01*
X72103947Y-43667593D02*
X72003947Y-43700926D01*
X72003947Y-43700926D02*
X71970614Y-43734260D01*
X71337281Y-43667593D02*
X71670614Y-43667593D01*
X71670614Y-43667593D02*
X71703947Y-44000926D01*
X71703947Y-44000926D02*
X71670614Y-43967593D01*
X71670614Y-43967593D02*
X71603947Y-43934260D01*
X71603947Y-43934260D02*
X71437281Y-43934260D01*
X71437281Y-43934260D02*
X71370614Y-43967593D01*
X71370614Y-43967593D02*
X71337281Y-44000926D01*
X71337281Y-44000926D02*
X71303947Y-44067593D01*
X71303947Y-44067593D02*
X71303947Y-44234260D01*
X71303947Y-44234260D02*
X71337281Y-44300926D01*
X71337281Y-44300926D02*
X71370614Y-44334260D01*
X71370614Y-44334260D02*
X71437281Y-44367593D01*
X71437281Y-44367593D02*
X71603947Y-44367593D01*
X71603947Y-44367593D02*
X71670614Y-44334260D01*
X71670614Y-44334260D02*
X71703947Y-44300926D01*
X70903947Y-43967593D02*
X70970614Y-43934260D01*
X70970614Y-43934260D02*
X71003947Y-43900926D01*
X71003947Y-43900926D02*
X71037280Y-43834260D01*
X71037280Y-43834260D02*
X71037280Y-43800926D01*
X71037280Y-43800926D02*
X71003947Y-43734260D01*
X71003947Y-43734260D02*
X70970614Y-43700926D01*
X70970614Y-43700926D02*
X70903947Y-43667593D01*
X70903947Y-43667593D02*
X70770614Y-43667593D01*
X70770614Y-43667593D02*
X70703947Y-43700926D01*
X70703947Y-43700926D02*
X70670614Y-43734260D01*
X70670614Y-43734260D02*
X70637280Y-43800926D01*
X70637280Y-43800926D02*
X70637280Y-43834260D01*
X70637280Y-43834260D02*
X70670614Y-43900926D01*
X70670614Y-43900926D02*
X70703947Y-43934260D01*
X70703947Y-43934260D02*
X70770614Y-43967593D01*
X70770614Y-43967593D02*
X70903947Y-43967593D01*
X70903947Y-43967593D02*
X70970614Y-44000926D01*
X70970614Y-44000926D02*
X71003947Y-44034260D01*
X71003947Y-44034260D02*
X71037280Y-44100926D01*
X71037280Y-44100926D02*
X71037280Y-44234260D01*
X71037280Y-44234260D02*
X71003947Y-44300926D01*
X71003947Y-44300926D02*
X70970614Y-44334260D01*
X70970614Y-44334260D02*
X70903947Y-44367593D01*
X70903947Y-44367593D02*
X70770614Y-44367593D01*
X70770614Y-44367593D02*
X70703947Y-44334260D01*
X70703947Y-44334260D02*
X70670614Y-44300926D01*
X70670614Y-44300926D02*
X70637280Y-44234260D01*
X70637280Y-44234260D02*
X70637280Y-44100926D01*
X70637280Y-44100926D02*
X70670614Y-44034260D01*
X70670614Y-44034260D02*
X70703947Y-44000926D01*
X70703947Y-44000926D02*
X70770614Y-43967593D01*
X62879386Y-44300926D02*
X62912719Y-44334260D01*
X62912719Y-44334260D02*
X63012719Y-44367593D01*
X63012719Y-44367593D02*
X63079386Y-44367593D01*
X63079386Y-44367593D02*
X63179386Y-44334260D01*
X63179386Y-44334260D02*
X63246053Y-44267593D01*
X63246053Y-44267593D02*
X63279386Y-44200926D01*
X63279386Y-44200926D02*
X63312719Y-44067593D01*
X63312719Y-44067593D02*
X63312719Y-43967593D01*
X63312719Y-43967593D02*
X63279386Y-43834260D01*
X63279386Y-43834260D02*
X63246053Y-43767593D01*
X63246053Y-43767593D02*
X63179386Y-43700926D01*
X63179386Y-43700926D02*
X63079386Y-43667593D01*
X63079386Y-43667593D02*
X63012719Y-43667593D01*
X63012719Y-43667593D02*
X62912719Y-43700926D01*
X62912719Y-43700926D02*
X62879386Y-43734260D01*
X62612719Y-43734260D02*
X62579386Y-43700926D01*
X62579386Y-43700926D02*
X62512719Y-43667593D01*
X62512719Y-43667593D02*
X62346053Y-43667593D01*
X62346053Y-43667593D02*
X62279386Y-43700926D01*
X62279386Y-43700926D02*
X62246053Y-43734260D01*
X62246053Y-43734260D02*
X62212719Y-43800926D01*
X62212719Y-43800926D02*
X62212719Y-43867593D01*
X62212719Y-43867593D02*
X62246053Y-43967593D01*
X62246053Y-43967593D02*
X62646053Y-44367593D01*
X62646053Y-44367593D02*
X62212719Y-44367593D01*
X61612719Y-43667593D02*
X61746052Y-43667593D01*
X61746052Y-43667593D02*
X61812719Y-43700926D01*
X61812719Y-43700926D02*
X61846052Y-43734260D01*
X61846052Y-43734260D02*
X61912719Y-43834260D01*
X61912719Y-43834260D02*
X61946052Y-43967593D01*
X61946052Y-43967593D02*
X61946052Y-44234260D01*
X61946052Y-44234260D02*
X61912719Y-44300926D01*
X61912719Y-44300926D02*
X61879386Y-44334260D01*
X61879386Y-44334260D02*
X61812719Y-44367593D01*
X61812719Y-44367593D02*
X61679386Y-44367593D01*
X61679386Y-44367593D02*
X61612719Y-44334260D01*
X61612719Y-44334260D02*
X61579386Y-44300926D01*
X61579386Y-44300926D02*
X61546052Y-44234260D01*
X61546052Y-44234260D02*
X61546052Y-44067593D01*
X61546052Y-44067593D02*
X61579386Y-44000926D01*
X61579386Y-44000926D02*
X61612719Y-43967593D01*
X61612719Y-43967593D02*
X61679386Y-43934260D01*
X61679386Y-43934260D02*
X61812719Y-43934260D01*
X61812719Y-43934260D02*
X61879386Y-43967593D01*
X61879386Y-43967593D02*
X61912719Y-44000926D01*
X61912719Y-44000926D02*
X61946052Y-44067593D01*
X62929386Y-61700926D02*
X62962719Y-61734260D01*
X62962719Y-61734260D02*
X63062719Y-61767593D01*
X63062719Y-61767593D02*
X63129386Y-61767593D01*
X63129386Y-61767593D02*
X63229386Y-61734260D01*
X63229386Y-61734260D02*
X63296053Y-61667593D01*
X63296053Y-61667593D02*
X63329386Y-61600926D01*
X63329386Y-61600926D02*
X63362719Y-61467593D01*
X63362719Y-61467593D02*
X63362719Y-61367593D01*
X63362719Y-61367593D02*
X63329386Y-61234260D01*
X63329386Y-61234260D02*
X63296053Y-61167593D01*
X63296053Y-61167593D02*
X63229386Y-61100926D01*
X63229386Y-61100926D02*
X63129386Y-61067593D01*
X63129386Y-61067593D02*
X63062719Y-61067593D01*
X63062719Y-61067593D02*
X62962719Y-61100926D01*
X62962719Y-61100926D02*
X62929386Y-61134260D01*
X62262719Y-61767593D02*
X62662719Y-61767593D01*
X62462719Y-61767593D02*
X62462719Y-61067593D01*
X62462719Y-61067593D02*
X62529386Y-61167593D01*
X62529386Y-61167593D02*
X62596053Y-61234260D01*
X62596053Y-61234260D02*
X62662719Y-61267593D01*
X61996052Y-61134260D02*
X61962719Y-61100926D01*
X61962719Y-61100926D02*
X61896052Y-61067593D01*
X61896052Y-61067593D02*
X61729386Y-61067593D01*
X61729386Y-61067593D02*
X61662719Y-61100926D01*
X61662719Y-61100926D02*
X61629386Y-61134260D01*
X61629386Y-61134260D02*
X61596052Y-61200926D01*
X61596052Y-61200926D02*
X61596052Y-61267593D01*
X61596052Y-61267593D02*
X61629386Y-61367593D01*
X61629386Y-61367593D02*
X62029386Y-61767593D01*
X62029386Y-61767593D02*
X61596052Y-61767593D01*
X62929386Y-72400926D02*
X62962719Y-72434260D01*
X62962719Y-72434260D02*
X63062719Y-72467593D01*
X63062719Y-72467593D02*
X63129386Y-72467593D01*
X63129386Y-72467593D02*
X63229386Y-72434260D01*
X63229386Y-72434260D02*
X63296053Y-72367593D01*
X63296053Y-72367593D02*
X63329386Y-72300926D01*
X63329386Y-72300926D02*
X63362719Y-72167593D01*
X63362719Y-72167593D02*
X63362719Y-72067593D01*
X63362719Y-72067593D02*
X63329386Y-71934260D01*
X63329386Y-71934260D02*
X63296053Y-71867593D01*
X63296053Y-71867593D02*
X63229386Y-71800926D01*
X63229386Y-71800926D02*
X63129386Y-71767593D01*
X63129386Y-71767593D02*
X63062719Y-71767593D01*
X63062719Y-71767593D02*
X62962719Y-71800926D01*
X62962719Y-71800926D02*
X62929386Y-71834260D01*
X62262719Y-72467593D02*
X62662719Y-72467593D01*
X62462719Y-72467593D02*
X62462719Y-71767593D01*
X62462719Y-71767593D02*
X62529386Y-71867593D01*
X62529386Y-71867593D02*
X62596053Y-71934260D01*
X62596053Y-71934260D02*
X62662719Y-71967593D01*
X71970614Y-72400926D02*
X72003947Y-72434260D01*
X72003947Y-72434260D02*
X72103947Y-72467593D01*
X72103947Y-72467593D02*
X72170614Y-72467593D01*
X72170614Y-72467593D02*
X72270614Y-72434260D01*
X72270614Y-72434260D02*
X72337281Y-72367593D01*
X72337281Y-72367593D02*
X72370614Y-72300926D01*
X72370614Y-72300926D02*
X72403947Y-72167593D01*
X72403947Y-72167593D02*
X72403947Y-72067593D01*
X72403947Y-72067593D02*
X72370614Y-71934260D01*
X72370614Y-71934260D02*
X72337281Y-71867593D01*
X72337281Y-71867593D02*
X72270614Y-71800926D01*
X72270614Y-71800926D02*
X72170614Y-71767593D01*
X72170614Y-71767593D02*
X72103947Y-71767593D01*
X72103947Y-71767593D02*
X72003947Y-71800926D01*
X72003947Y-71800926D02*
X71970614Y-71834260D01*
X71737281Y-71767593D02*
X71303947Y-71767593D01*
X71303947Y-71767593D02*
X71537281Y-72034260D01*
X71537281Y-72034260D02*
X71437281Y-72034260D01*
X71437281Y-72034260D02*
X71370614Y-72067593D01*
X71370614Y-72067593D02*
X71337281Y-72100926D01*
X71337281Y-72100926D02*
X71303947Y-72167593D01*
X71303947Y-72167593D02*
X71303947Y-72334260D01*
X71303947Y-72334260D02*
X71337281Y-72400926D01*
X71337281Y-72400926D02*
X71370614Y-72434260D01*
X71370614Y-72434260D02*
X71437281Y-72467593D01*
X71437281Y-72467593D02*
X71637281Y-72467593D01*
X71637281Y-72467593D02*
X71703947Y-72434260D01*
X71703947Y-72434260D02*
X71737281Y-72400926D01*
X71070614Y-71767593D02*
X70637280Y-71767593D01*
X70637280Y-71767593D02*
X70870614Y-72034260D01*
X70870614Y-72034260D02*
X70770614Y-72034260D01*
X70770614Y-72034260D02*
X70703947Y-72067593D01*
X70703947Y-72067593D02*
X70670614Y-72100926D01*
X70670614Y-72100926D02*
X70637280Y-72167593D01*
X70637280Y-72167593D02*
X70637280Y-72334260D01*
X70637280Y-72334260D02*
X70670614Y-72400926D01*
X70670614Y-72400926D02*
X70703947Y-72434260D01*
X70703947Y-72434260D02*
X70770614Y-72467593D01*
X70770614Y-72467593D02*
X70970614Y-72467593D01*
X70970614Y-72467593D02*
X71037280Y-72434260D01*
X71037280Y-72434260D02*
X71070614Y-72400926D01*
X71970614Y-58600926D02*
X72003947Y-58634260D01*
X72003947Y-58634260D02*
X72103947Y-58667593D01*
X72103947Y-58667593D02*
X72170614Y-58667593D01*
X72170614Y-58667593D02*
X72270614Y-58634260D01*
X72270614Y-58634260D02*
X72337281Y-58567593D01*
X72337281Y-58567593D02*
X72370614Y-58500926D01*
X72370614Y-58500926D02*
X72403947Y-58367593D01*
X72403947Y-58367593D02*
X72403947Y-58267593D01*
X72403947Y-58267593D02*
X72370614Y-58134260D01*
X72370614Y-58134260D02*
X72337281Y-58067593D01*
X72337281Y-58067593D02*
X72270614Y-58000926D01*
X72270614Y-58000926D02*
X72170614Y-57967593D01*
X72170614Y-57967593D02*
X72103947Y-57967593D01*
X72103947Y-57967593D02*
X72003947Y-58000926D01*
X72003947Y-58000926D02*
X71970614Y-58034260D01*
X71370614Y-58200926D02*
X71370614Y-58667593D01*
X71537281Y-57934260D02*
X71703947Y-58434260D01*
X71703947Y-58434260D02*
X71270614Y-58434260D01*
X71070614Y-57967593D02*
X70603947Y-57967593D01*
X70603947Y-57967593D02*
X70903947Y-58667593D01*
X62879386Y-45200926D02*
X62912719Y-45234260D01*
X62912719Y-45234260D02*
X63012719Y-45267593D01*
X63012719Y-45267593D02*
X63079386Y-45267593D01*
X63079386Y-45267593D02*
X63179386Y-45234260D01*
X63179386Y-45234260D02*
X63246053Y-45167593D01*
X63246053Y-45167593D02*
X63279386Y-45100926D01*
X63279386Y-45100926D02*
X63312719Y-44967593D01*
X63312719Y-44967593D02*
X63312719Y-44867593D01*
X63312719Y-44867593D02*
X63279386Y-44734260D01*
X63279386Y-44734260D02*
X63246053Y-44667593D01*
X63246053Y-44667593D02*
X63179386Y-44600926D01*
X63179386Y-44600926D02*
X63079386Y-44567593D01*
X63079386Y-44567593D02*
X63012719Y-44567593D01*
X63012719Y-44567593D02*
X62912719Y-44600926D01*
X62912719Y-44600926D02*
X62879386Y-44634260D01*
X62612719Y-44634260D02*
X62579386Y-44600926D01*
X62579386Y-44600926D02*
X62512719Y-44567593D01*
X62512719Y-44567593D02*
X62346053Y-44567593D01*
X62346053Y-44567593D02*
X62279386Y-44600926D01*
X62279386Y-44600926D02*
X62246053Y-44634260D01*
X62246053Y-44634260D02*
X62212719Y-44700926D01*
X62212719Y-44700926D02*
X62212719Y-44767593D01*
X62212719Y-44767593D02*
X62246053Y-44867593D01*
X62246053Y-44867593D02*
X62646053Y-45267593D01*
X62646053Y-45267593D02*
X62212719Y-45267593D01*
X61579386Y-44567593D02*
X61912719Y-44567593D01*
X61912719Y-44567593D02*
X61946052Y-44900926D01*
X61946052Y-44900926D02*
X61912719Y-44867593D01*
X61912719Y-44867593D02*
X61846052Y-44834260D01*
X61846052Y-44834260D02*
X61679386Y-44834260D01*
X61679386Y-44834260D02*
X61612719Y-44867593D01*
X61612719Y-44867593D02*
X61579386Y-44900926D01*
X61579386Y-44900926D02*
X61546052Y-44967593D01*
X61546052Y-44967593D02*
X61546052Y-45134260D01*
X61546052Y-45134260D02*
X61579386Y-45200926D01*
X61579386Y-45200926D02*
X61612719Y-45234260D01*
X61612719Y-45234260D02*
X61679386Y-45267593D01*
X61679386Y-45267593D02*
X61846052Y-45267593D01*
X61846052Y-45267593D02*
X61912719Y-45234260D01*
X61912719Y-45234260D02*
X61946052Y-45200926D01*
X71970614Y-62600926D02*
X72003947Y-62634260D01*
X72003947Y-62634260D02*
X72103947Y-62667593D01*
X72103947Y-62667593D02*
X72170614Y-62667593D01*
X72170614Y-62667593D02*
X72270614Y-62634260D01*
X72270614Y-62634260D02*
X72337281Y-62567593D01*
X72337281Y-62567593D02*
X72370614Y-62500926D01*
X72370614Y-62500926D02*
X72403947Y-62367593D01*
X72403947Y-62367593D02*
X72403947Y-62267593D01*
X72403947Y-62267593D02*
X72370614Y-62134260D01*
X72370614Y-62134260D02*
X72337281Y-62067593D01*
X72337281Y-62067593D02*
X72270614Y-62000926D01*
X72270614Y-62000926D02*
X72170614Y-61967593D01*
X72170614Y-61967593D02*
X72103947Y-61967593D01*
X72103947Y-61967593D02*
X72003947Y-62000926D01*
X72003947Y-62000926D02*
X71970614Y-62034260D01*
X71370614Y-62200926D02*
X71370614Y-62667593D01*
X71537281Y-61934260D02*
X71703947Y-62434260D01*
X71703947Y-62434260D02*
X71270614Y-62434260D01*
X71070614Y-61967593D02*
X70637280Y-61967593D01*
X70637280Y-61967593D02*
X70870614Y-62234260D01*
X70870614Y-62234260D02*
X70770614Y-62234260D01*
X70770614Y-62234260D02*
X70703947Y-62267593D01*
X70703947Y-62267593D02*
X70670614Y-62300926D01*
X70670614Y-62300926D02*
X70637280Y-62367593D01*
X70637280Y-62367593D02*
X70637280Y-62534260D01*
X70637280Y-62534260D02*
X70670614Y-62600926D01*
X70670614Y-62600926D02*
X70703947Y-62634260D01*
X70703947Y-62634260D02*
X70770614Y-62667593D01*
X70770614Y-62667593D02*
X70970614Y-62667593D01*
X70970614Y-62667593D02*
X71037280Y-62634260D01*
X71037280Y-62634260D02*
X71070614Y-62600926D01*
X71970614Y-61700926D02*
X72003947Y-61734260D01*
X72003947Y-61734260D02*
X72103947Y-61767593D01*
X72103947Y-61767593D02*
X72170614Y-61767593D01*
X72170614Y-61767593D02*
X72270614Y-61734260D01*
X72270614Y-61734260D02*
X72337281Y-61667593D01*
X72337281Y-61667593D02*
X72370614Y-61600926D01*
X72370614Y-61600926D02*
X72403947Y-61467593D01*
X72403947Y-61467593D02*
X72403947Y-61367593D01*
X72403947Y-61367593D02*
X72370614Y-61234260D01*
X72370614Y-61234260D02*
X72337281Y-61167593D01*
X72337281Y-61167593D02*
X72270614Y-61100926D01*
X72270614Y-61100926D02*
X72170614Y-61067593D01*
X72170614Y-61067593D02*
X72103947Y-61067593D01*
X72103947Y-61067593D02*
X72003947Y-61100926D01*
X72003947Y-61100926D02*
X71970614Y-61134260D01*
X71370614Y-61300926D02*
X71370614Y-61767593D01*
X71537281Y-61034260D02*
X71703947Y-61534260D01*
X71703947Y-61534260D02*
X71270614Y-61534260D01*
X70703947Y-61300926D02*
X70703947Y-61767593D01*
X70870614Y-61034260D02*
X71037280Y-61534260D01*
X71037280Y-61534260D02*
X70603947Y-61534260D01*
X62929386Y-70600926D02*
X62962719Y-70634260D01*
X62962719Y-70634260D02*
X63062719Y-70667593D01*
X63062719Y-70667593D02*
X63129386Y-70667593D01*
X63129386Y-70667593D02*
X63229386Y-70634260D01*
X63229386Y-70634260D02*
X63296053Y-70567593D01*
X63296053Y-70567593D02*
X63329386Y-70500926D01*
X63329386Y-70500926D02*
X63362719Y-70367593D01*
X63362719Y-70367593D02*
X63362719Y-70267593D01*
X63362719Y-70267593D02*
X63329386Y-70134260D01*
X63329386Y-70134260D02*
X63296053Y-70067593D01*
X63296053Y-70067593D02*
X63229386Y-70000926D01*
X63229386Y-70000926D02*
X63129386Y-69967593D01*
X63129386Y-69967593D02*
X63062719Y-69967593D01*
X63062719Y-69967593D02*
X62962719Y-70000926D01*
X62962719Y-70000926D02*
X62929386Y-70034260D01*
X62696053Y-69967593D02*
X62262719Y-69967593D01*
X62262719Y-69967593D02*
X62496053Y-70234260D01*
X62496053Y-70234260D02*
X62396053Y-70234260D01*
X62396053Y-70234260D02*
X62329386Y-70267593D01*
X62329386Y-70267593D02*
X62296053Y-70300926D01*
X62296053Y-70300926D02*
X62262719Y-70367593D01*
X62262719Y-70367593D02*
X62262719Y-70534260D01*
X62262719Y-70534260D02*
X62296053Y-70600926D01*
X62296053Y-70600926D02*
X62329386Y-70634260D01*
X62329386Y-70634260D02*
X62396053Y-70667593D01*
X62396053Y-70667593D02*
X62596053Y-70667593D01*
X62596053Y-70667593D02*
X62662719Y-70634260D01*
X62662719Y-70634260D02*
X62696053Y-70600926D01*
X62879386Y-40300926D02*
X62912719Y-40334260D01*
X62912719Y-40334260D02*
X63012719Y-40367593D01*
X63012719Y-40367593D02*
X63079386Y-40367593D01*
X63079386Y-40367593D02*
X63179386Y-40334260D01*
X63179386Y-40334260D02*
X63246053Y-40267593D01*
X63246053Y-40267593D02*
X63279386Y-40200926D01*
X63279386Y-40200926D02*
X63312719Y-40067593D01*
X63312719Y-40067593D02*
X63312719Y-39967593D01*
X63312719Y-39967593D02*
X63279386Y-39834260D01*
X63279386Y-39834260D02*
X63246053Y-39767593D01*
X63246053Y-39767593D02*
X63179386Y-39700926D01*
X63179386Y-39700926D02*
X63079386Y-39667593D01*
X63079386Y-39667593D02*
X63012719Y-39667593D01*
X63012719Y-39667593D02*
X62912719Y-39700926D01*
X62912719Y-39700926D02*
X62879386Y-39734260D01*
X62646053Y-39667593D02*
X62212719Y-39667593D01*
X62212719Y-39667593D02*
X62446053Y-39934260D01*
X62446053Y-39934260D02*
X62346053Y-39934260D01*
X62346053Y-39934260D02*
X62279386Y-39967593D01*
X62279386Y-39967593D02*
X62246053Y-40000926D01*
X62246053Y-40000926D02*
X62212719Y-40067593D01*
X62212719Y-40067593D02*
X62212719Y-40234260D01*
X62212719Y-40234260D02*
X62246053Y-40300926D01*
X62246053Y-40300926D02*
X62279386Y-40334260D01*
X62279386Y-40334260D02*
X62346053Y-40367593D01*
X62346053Y-40367593D02*
X62546053Y-40367593D01*
X62546053Y-40367593D02*
X62612719Y-40334260D01*
X62612719Y-40334260D02*
X62646053Y-40300926D01*
X61779386Y-39667593D02*
X61712719Y-39667593D01*
X61712719Y-39667593D02*
X61646052Y-39700926D01*
X61646052Y-39700926D02*
X61612719Y-39734260D01*
X61612719Y-39734260D02*
X61579386Y-39800926D01*
X61579386Y-39800926D02*
X61546052Y-39934260D01*
X61546052Y-39934260D02*
X61546052Y-40100926D01*
X61546052Y-40100926D02*
X61579386Y-40234260D01*
X61579386Y-40234260D02*
X61612719Y-40300926D01*
X61612719Y-40300926D02*
X61646052Y-40334260D01*
X61646052Y-40334260D02*
X61712719Y-40367593D01*
X61712719Y-40367593D02*
X61779386Y-40367593D01*
X61779386Y-40367593D02*
X61846052Y-40334260D01*
X61846052Y-40334260D02*
X61879386Y-40300926D01*
X61879386Y-40300926D02*
X61912719Y-40234260D01*
X61912719Y-40234260D02*
X61946052Y-40100926D01*
X61946052Y-40100926D02*
X61946052Y-39934260D01*
X61946052Y-39934260D02*
X61912719Y-39800926D01*
X61912719Y-39800926D02*
X61879386Y-39734260D01*
X61879386Y-39734260D02*
X61846052Y-39700926D01*
X61846052Y-39700926D02*
X61779386Y-39667593D01*
X62879386Y-39400926D02*
X62912719Y-39434260D01*
X62912719Y-39434260D02*
X63012719Y-39467593D01*
X63012719Y-39467593D02*
X63079386Y-39467593D01*
X63079386Y-39467593D02*
X63179386Y-39434260D01*
X63179386Y-39434260D02*
X63246053Y-39367593D01*
X63246053Y-39367593D02*
X63279386Y-39300926D01*
X63279386Y-39300926D02*
X63312719Y-39167593D01*
X63312719Y-39167593D02*
X63312719Y-39067593D01*
X63312719Y-39067593D02*
X63279386Y-38934260D01*
X63279386Y-38934260D02*
X63246053Y-38867593D01*
X63246053Y-38867593D02*
X63179386Y-38800926D01*
X63179386Y-38800926D02*
X63079386Y-38767593D01*
X63079386Y-38767593D02*
X63012719Y-38767593D01*
X63012719Y-38767593D02*
X62912719Y-38800926D01*
X62912719Y-38800926D02*
X62879386Y-38834260D01*
X62646053Y-38767593D02*
X62212719Y-38767593D01*
X62212719Y-38767593D02*
X62446053Y-39034260D01*
X62446053Y-39034260D02*
X62346053Y-39034260D01*
X62346053Y-39034260D02*
X62279386Y-39067593D01*
X62279386Y-39067593D02*
X62246053Y-39100926D01*
X62246053Y-39100926D02*
X62212719Y-39167593D01*
X62212719Y-39167593D02*
X62212719Y-39334260D01*
X62212719Y-39334260D02*
X62246053Y-39400926D01*
X62246053Y-39400926D02*
X62279386Y-39434260D01*
X62279386Y-39434260D02*
X62346053Y-39467593D01*
X62346053Y-39467593D02*
X62546053Y-39467593D01*
X62546053Y-39467593D02*
X62612719Y-39434260D01*
X62612719Y-39434260D02*
X62646053Y-39400926D01*
X61546052Y-39467593D02*
X61946052Y-39467593D01*
X61746052Y-39467593D02*
X61746052Y-38767593D01*
X61746052Y-38767593D02*
X61812719Y-38867593D01*
X61812719Y-38867593D02*
X61879386Y-38934260D01*
X61879386Y-38934260D02*
X61946052Y-38967593D01*
X71970614Y-68400926D02*
X72003947Y-68434260D01*
X72003947Y-68434260D02*
X72103947Y-68467593D01*
X72103947Y-68467593D02*
X72170614Y-68467593D01*
X72170614Y-68467593D02*
X72270614Y-68434260D01*
X72270614Y-68434260D02*
X72337281Y-68367593D01*
X72337281Y-68367593D02*
X72370614Y-68300926D01*
X72370614Y-68300926D02*
X72403947Y-68167593D01*
X72403947Y-68167593D02*
X72403947Y-68067593D01*
X72403947Y-68067593D02*
X72370614Y-67934260D01*
X72370614Y-67934260D02*
X72337281Y-67867593D01*
X72337281Y-67867593D02*
X72270614Y-67800926D01*
X72270614Y-67800926D02*
X72170614Y-67767593D01*
X72170614Y-67767593D02*
X72103947Y-67767593D01*
X72103947Y-67767593D02*
X72003947Y-67800926D01*
X72003947Y-67800926D02*
X71970614Y-67834260D01*
X71737281Y-67767593D02*
X71303947Y-67767593D01*
X71303947Y-67767593D02*
X71537281Y-68034260D01*
X71537281Y-68034260D02*
X71437281Y-68034260D01*
X71437281Y-68034260D02*
X71370614Y-68067593D01*
X71370614Y-68067593D02*
X71337281Y-68100926D01*
X71337281Y-68100926D02*
X71303947Y-68167593D01*
X71303947Y-68167593D02*
X71303947Y-68334260D01*
X71303947Y-68334260D02*
X71337281Y-68400926D01*
X71337281Y-68400926D02*
X71370614Y-68434260D01*
X71370614Y-68434260D02*
X71437281Y-68467593D01*
X71437281Y-68467593D02*
X71637281Y-68467593D01*
X71637281Y-68467593D02*
X71703947Y-68434260D01*
X71703947Y-68434260D02*
X71737281Y-68400926D01*
X71070614Y-67767593D02*
X70603947Y-67767593D01*
X70603947Y-67767593D02*
X70903947Y-68467593D01*
D12*
%TO.C,C17*%
X64457836Y-52540000D02*
X64242164Y-52540000D01*
X64457836Y-53260000D02*
X64242164Y-53260000D01*
%TO.C,C14*%
X64507836Y-58890000D02*
X64292164Y-58890000D01*
X64507836Y-59610000D02*
X64292164Y-59610000D01*
%TO.C,C32*%
X64457836Y-37890000D02*
X64242164Y-37890000D01*
X64457836Y-38610000D02*
X64242164Y-38610000D01*
%TO.C,C16*%
X64507836Y-57090000D02*
X64292164Y-57090000D01*
X64507836Y-57810000D02*
X64292164Y-57810000D01*
%TO.C,C2*%
X64507836Y-70890000D02*
X64292164Y-70890000D01*
X64507836Y-71610000D02*
X64292164Y-71610000D01*
%TO.C,C11*%
X64507836Y-61990000D02*
X64292164Y-61990000D01*
X64507836Y-62710000D02*
X64292164Y-62710000D01*
%TO.C,C64*%
X69492164Y-37890000D02*
X69707836Y-37890000D01*
X69492164Y-38610000D02*
X69707836Y-38610000D01*
%TO.C,C20*%
X64457836Y-49840000D02*
X64242164Y-49840000D01*
X64457836Y-50560000D02*
X64242164Y-50560000D01*
%TO.C,C10*%
X64507836Y-62890000D02*
X64292164Y-62890000D01*
X64507836Y-63610000D02*
X64292164Y-63610000D01*
%TO.C,C4*%
X64507836Y-69090000D02*
X64292164Y-69090000D01*
X64507836Y-69810000D02*
X64292164Y-69810000D01*
%TO.C,C38*%
X69492164Y-66890000D02*
X69707836Y-66890000D01*
X69492164Y-67610000D02*
X69707836Y-67610000D01*
%TO.C,C5*%
X64507836Y-67790000D02*
X64292164Y-67790000D01*
X64507836Y-68510000D02*
X64292164Y-68510000D01*
%TO.C,C63*%
X69492164Y-38790000D02*
X69707836Y-38790000D01*
X69492164Y-39510000D02*
X69707836Y-39510000D01*
%TO.C,C7*%
X64507836Y-65990000D02*
X64292164Y-65990000D01*
X64507836Y-66710000D02*
X64292164Y-66710000D01*
%TO.C,C59*%
X69492164Y-42790000D02*
X69707836Y-42790000D01*
X69492164Y-43510000D02*
X69707836Y-43510000D01*
%TO.C,C61*%
X69492164Y-40590000D02*
X69707836Y-40590000D01*
X69492164Y-41310000D02*
X69707836Y-41310000D01*
%TO.C,C50*%
X69492164Y-51690000D02*
X69707836Y-51690000D01*
X69492164Y-52410000D02*
X69707836Y-52410000D01*
%TO.C,C18*%
X64457836Y-51640000D02*
X64242164Y-51640000D01*
X64457836Y-52360000D02*
X64242164Y-52360000D01*
%TO.C,C13*%
X64507836Y-59790000D02*
X64292164Y-59790000D01*
X64507836Y-60510000D02*
X64292164Y-60510000D01*
%TO.C,C34*%
X69492164Y-70890000D02*
X69707836Y-70890000D01*
X69492164Y-71610000D02*
X69707836Y-71610000D01*
%TO.C,C19*%
X64457836Y-50740000D02*
X64242164Y-50740000D01*
X64457836Y-51460000D02*
X64242164Y-51460000D01*
%TO.C,C54*%
X69492164Y-47690000D02*
X69707836Y-47690000D01*
X69492164Y-48410000D02*
X69707836Y-48410000D01*
%TO.C,C24*%
X64457836Y-45890000D02*
X64242164Y-45890000D01*
X64457836Y-46610000D02*
X64242164Y-46610000D01*
%TO.C,C51*%
X69492164Y-50790000D02*
X69707836Y-50790000D01*
X69492164Y-51510000D02*
X69707836Y-51510000D01*
%TO.C,C15*%
X64507836Y-57990000D02*
X64292164Y-57990000D01*
X64507836Y-58710000D02*
X64292164Y-58710000D01*
%TO.C,C42*%
X69492164Y-62890000D02*
X69707836Y-62890000D01*
X69492164Y-63610000D02*
X69707836Y-63610000D01*
%TO.C,C60*%
X69492164Y-41890000D02*
X69707836Y-41890000D01*
X69492164Y-42610000D02*
X69707836Y-42610000D01*
D13*
%TO.C,G\u002A\u002A\u002A*%
G36*
X67077577Y-32393044D02*
G01*
X67158427Y-32396558D01*
X67228805Y-32401933D01*
X67284326Y-32409168D01*
X67309550Y-32413715D01*
X67509163Y-32459236D01*
X67699052Y-32519815D01*
X67877359Y-32594870D01*
X68009674Y-32663636D01*
X68181123Y-32771001D01*
X68340299Y-32892586D01*
X68486533Y-33027469D01*
X68619155Y-33174730D01*
X68737495Y-33333444D01*
X68840883Y-33502691D01*
X68928649Y-33681547D01*
X69000124Y-33869091D01*
X69054637Y-34064400D01*
X69091519Y-34266552D01*
X69096709Y-34313803D01*
X69101952Y-34392872D01*
X69104775Y-34481510D01*
X69105176Y-34574100D01*
X69103151Y-34665022D01*
X69098697Y-34748657D01*
X69091812Y-34819386D01*
X69061869Y-34993558D01*
X69010137Y-35189763D01*
X68940466Y-35380282D01*
X68853490Y-35563412D01*
X68749842Y-35737453D01*
X68745286Y-35744327D01*
X68709933Y-35796383D01*
X68681997Y-35834168D01*
X68659329Y-35859825D01*
X68639780Y-35875497D01*
X68621201Y-35883329D01*
X68601443Y-35885464D01*
X68584697Y-35882632D01*
X68556626Y-35866677D01*
X68535226Y-35841816D01*
X68526712Y-35813991D01*
X68526883Y-35812005D01*
X68534139Y-35792172D01*
X68550920Y-35760132D01*
X68575610Y-35718775D01*
X68606595Y-35670990D01*
X68609514Y-35666633D01*
X68702502Y-35515740D01*
X68778859Y-35365171D01*
X68840599Y-35210490D01*
X68889736Y-35047260D01*
X68902672Y-34994406D01*
X68930728Y-34848454D01*
X68946832Y-34701931D01*
X68951979Y-34546841D01*
X68951978Y-34545436D01*
X68942448Y-34348284D01*
X68914391Y-34154971D01*
X68868202Y-33966626D01*
X68804277Y-33784380D01*
X68723012Y-33609364D01*
X68624804Y-33442707D01*
X68510047Y-33285540D01*
X68488637Y-33260055D01*
X68440458Y-33206991D01*
X68383961Y-33148779D01*
X68323284Y-33089420D01*
X68262563Y-33032916D01*
X68205933Y-32983268D01*
X68157530Y-32944478D01*
X68015230Y-32847073D01*
X67843082Y-32750742D01*
X67662490Y-32671745D01*
X67473230Y-32609985D01*
X67275076Y-32565367D01*
X67238709Y-32559824D01*
X67165994Y-32552218D01*
X67082901Y-32546784D01*
X66994965Y-32543685D01*
X66907721Y-32543087D01*
X66826704Y-32545152D01*
X66757449Y-32550045D01*
X66600578Y-32573335D01*
X66426511Y-32614560D01*
X66253835Y-32670835D01*
X66087074Y-32740669D01*
X65930751Y-32822571D01*
X65894713Y-32843071D01*
X65853776Y-32863486D01*
X65823230Y-32873334D01*
X65799913Y-32873006D01*
X65780666Y-32862894D01*
X65762328Y-32843386D01*
X65746468Y-32817029D01*
X65743078Y-32791898D01*
X65753481Y-32766671D01*
X65778778Y-32739743D01*
X65820071Y-32709510D01*
X65878463Y-32674370D01*
X66039851Y-32591749D01*
X66228236Y-32514835D01*
X66425097Y-32453679D01*
X66627926Y-32409168D01*
X66669671Y-32403380D01*
X66737126Y-32397592D01*
X66816028Y-32393664D01*
X66901993Y-32391597D01*
X66990637Y-32391390D01*
X67077577Y-32393044D01*
G37*
G36*
X64904949Y-32166799D02*
G01*
X64905960Y-32167599D01*
X64922701Y-32188288D01*
X64943227Y-32224513D01*
X64966369Y-32273356D01*
X64990957Y-32331898D01*
X65015821Y-32397218D01*
X65039791Y-32466398D01*
X65061699Y-32536519D01*
X65080374Y-32604660D01*
X65096879Y-32677033D01*
X65123433Y-32850777D01*
X65133127Y-33027949D01*
X65126025Y-33205214D01*
X65102195Y-33379239D01*
X65061701Y-33546688D01*
X65053129Y-33579720D01*
X65042606Y-33640413D01*
X65037221Y-33702756D01*
X65037114Y-33761720D01*
X65042425Y-33812273D01*
X65053293Y-33849385D01*
X65055019Y-33853041D01*
X65062105Y-33871176D01*
X65063620Y-33888048D01*
X65059247Y-33910143D01*
X65048669Y-33943948D01*
X65030376Y-34003348D01*
X64991629Y-34170630D01*
X64968356Y-34348438D01*
X64960462Y-34537429D01*
X64963711Y-34665069D01*
X64981454Y-34846640D01*
X65015264Y-35021483D01*
X65065841Y-35192941D01*
X65133888Y-35364357D01*
X65181791Y-35463776D01*
X65277117Y-35627637D01*
X65387680Y-35781554D01*
X65512164Y-35924427D01*
X65649252Y-36055155D01*
X65797629Y-36172637D01*
X65955979Y-36275774D01*
X66122985Y-36363464D01*
X66297331Y-36434607D01*
X66477701Y-36488103D01*
X66558731Y-36506547D01*
X66642911Y-36522261D01*
X66724028Y-36532924D01*
X66807627Y-36539085D01*
X66899253Y-36541290D01*
X67004452Y-36540086D01*
X67091014Y-36537162D01*
X67186063Y-36531081D01*
X67271329Y-36521597D01*
X67352056Y-36507947D01*
X67433490Y-36489370D01*
X67520876Y-36465104D01*
X67528884Y-36462748D01*
X67582735Y-36448773D01*
X67622273Y-36443093D01*
X67650399Y-36445940D01*
X67670015Y-36457546D01*
X67684020Y-36478142D01*
X67692843Y-36502886D01*
X67691828Y-36536103D01*
X67673067Y-36564653D01*
X67636107Y-36589114D01*
X67580494Y-36610062D01*
X67467725Y-36640395D01*
X67305341Y-36672278D01*
X67138082Y-36690950D01*
X66960705Y-36697147D01*
X66907567Y-36696806D01*
X66774289Y-36691568D01*
X66651135Y-36679278D01*
X66532022Y-36658981D01*
X66410871Y-36629721D01*
X66281598Y-36590545D01*
X66280035Y-36590031D01*
X66092900Y-36518482D01*
X65915168Y-36430673D01*
X65747633Y-36327630D01*
X65591088Y-36210378D01*
X65446326Y-36079943D01*
X65314140Y-35937349D01*
X65195323Y-35783623D01*
X65090668Y-35619790D01*
X65000970Y-35446875D01*
X64927020Y-35265903D01*
X64869612Y-35077901D01*
X64829539Y-34883893D01*
X64807595Y-34684905D01*
X64800799Y-34576559D01*
X64733143Y-34672470D01*
X64649120Y-34779708D01*
X64543076Y-34891891D01*
X64424524Y-34997580D01*
X64296992Y-35093897D01*
X64164008Y-35177961D01*
X64029103Y-35246895D01*
X63977330Y-35267096D01*
X63937134Y-35275236D01*
X63905939Y-35271329D01*
X63880817Y-35255544D01*
X63877157Y-35251776D01*
X63861816Y-35222478D01*
X63859520Y-35188820D01*
X63871119Y-35159232D01*
X63878720Y-35152675D01*
X63901820Y-35138139D01*
X63935267Y-35119928D01*
X63974711Y-35100506D01*
X63987433Y-35094480D01*
X64140232Y-35011228D01*
X64282362Y-34913381D01*
X64412590Y-34802225D01*
X64529684Y-34679045D01*
X64632411Y-34545127D01*
X64719539Y-34401757D01*
X64789835Y-34250220D01*
X64795874Y-34234236D01*
X64808644Y-34196962D01*
X64822146Y-34154068D01*
X64835257Y-34109553D01*
X64846855Y-34067417D01*
X64855819Y-34031658D01*
X64861026Y-34006277D01*
X64861356Y-33995272D01*
X64859466Y-33996057D01*
X64848654Y-34007859D01*
X64830880Y-34030758D01*
X64808824Y-34061385D01*
X64790189Y-34087415D01*
X64697676Y-34202019D01*
X64590704Y-34314173D01*
X64473136Y-34420062D01*
X64348835Y-34515867D01*
X64329759Y-34529138D01*
X64277847Y-34563333D01*
X64223319Y-34596953D01*
X64169283Y-34628289D01*
X64118842Y-34655636D01*
X64075102Y-34677283D01*
X64041169Y-34691524D01*
X64020147Y-34696651D01*
X63999372Y-34693278D01*
X63971360Y-34675741D01*
X63952769Y-34647706D01*
X63946438Y-34614254D01*
X63955207Y-34580467D01*
X63958974Y-34575762D01*
X63977921Y-34560559D01*
X64007709Y-34541359D01*
X64043796Y-34521200D01*
X64067319Y-34508495D01*
X64115822Y-34480529D01*
X64167743Y-34448887D01*
X64215244Y-34418275D01*
X64358617Y-34312710D01*
X64495215Y-34189980D01*
X64616163Y-34056051D01*
X64721310Y-33911091D01*
X64810507Y-33755268D01*
X64830685Y-33714678D01*
X64851973Y-33668250D01*
X64865334Y-33630486D01*
X64871519Y-33596499D01*
X64871276Y-33561400D01*
X64865356Y-33520301D01*
X64854508Y-33468314D01*
X64829488Y-33370908D01*
X64773749Y-33214357D01*
X64699902Y-33063161D01*
X64607657Y-32916757D01*
X64496723Y-32774582D01*
X64468288Y-32740732D01*
X64441089Y-32704924D01*
X64425592Y-32677575D01*
X64420686Y-32655676D01*
X64425260Y-32636221D01*
X64438203Y-32616202D01*
X64463152Y-32594068D01*
X64497074Y-32584489D01*
X64532783Y-32593331D01*
X64538343Y-32596832D01*
X64560730Y-32616354D01*
X64591739Y-32648527D01*
X64629386Y-32691135D01*
X64671685Y-32741958D01*
X64716651Y-32798778D01*
X64740001Y-32831092D01*
X64776378Y-32887192D01*
X64814684Y-32951555D01*
X64851755Y-33018611D01*
X64884430Y-33082790D01*
X64909546Y-33138523D01*
X64921050Y-33166689D01*
X64936673Y-33204950D01*
X64948891Y-33234886D01*
X64955753Y-33251712D01*
X64956033Y-33252384D01*
X64962071Y-33258336D01*
X64967231Y-33247636D01*
X64971455Y-33222835D01*
X64974691Y-33186484D01*
X64976881Y-33141133D01*
X64977972Y-33089333D01*
X64977908Y-33033634D01*
X64976634Y-32976588D01*
X64974095Y-32920745D01*
X64970237Y-32868655D01*
X64965004Y-32822870D01*
X64935444Y-32664682D01*
X64885111Y-32489253D01*
X64816210Y-32315708D01*
X64796592Y-32266467D01*
X64787829Y-32226951D01*
X64790910Y-32197055D01*
X64805631Y-32174048D01*
X64813181Y-32167939D01*
X64843072Y-32156626D01*
X64876818Y-32156016D01*
X64904949Y-32166799D01*
G37*
G36*
X67637519Y-33051312D02*
G01*
X67702957Y-33096694D01*
X67816535Y-33176346D01*
X67915208Y-33246810D01*
X67998683Y-33307868D01*
X68066665Y-33359305D01*
X68118860Y-33400902D01*
X68154974Y-33432445D01*
X68180520Y-33457964D01*
X68234341Y-33525865D01*
X68270293Y-33597532D01*
X68289430Y-33675490D01*
X68292809Y-33762264D01*
X68289916Y-33826416D01*
X68198354Y-33756529D01*
X68181922Y-33743935D01*
X68147654Y-33716809D01*
X68125153Y-33696655D01*
X68111585Y-33680301D01*
X68104117Y-33664575D01*
X68099916Y-33646305D01*
X68095771Y-33625970D01*
X68080358Y-33583334D01*
X68054404Y-33545191D01*
X68014267Y-33505555D01*
X68006841Y-33499294D01*
X67973957Y-33474609D01*
X67931601Y-33446032D01*
X67882628Y-33415167D01*
X67829890Y-33383615D01*
X67776241Y-33352980D01*
X67724535Y-33324864D01*
X67677624Y-33300868D01*
X67638363Y-33282597D01*
X67609605Y-33271652D01*
X67594203Y-33269637D01*
X67586301Y-33274259D01*
X67567571Y-33297120D01*
X67550497Y-33332759D01*
X67536405Y-33376540D01*
X67526623Y-33423825D01*
X67522479Y-33469977D01*
X67525298Y-33510360D01*
X67528944Y-33525143D01*
X67536242Y-33537801D01*
X67550486Y-33549096D01*
X67575355Y-33561853D01*
X67614523Y-33578895D01*
X67653105Y-33596026D01*
X67746866Y-33644452D01*
X67844307Y-33704562D01*
X67949026Y-33778505D01*
X67966221Y-33791477D01*
X68054866Y-33865307D01*
X68126170Y-33938516D01*
X68181641Y-34013078D01*
X68222783Y-34090964D01*
X68251104Y-34174148D01*
X68252904Y-34181534D01*
X68259649Y-34218020D01*
X68264873Y-34259797D01*
X68268264Y-34301991D01*
X68269513Y-34339726D01*
X68268310Y-34368126D01*
X68264345Y-34382318D01*
X68258893Y-34382277D01*
X68239012Y-34375743D01*
X68208613Y-34362840D01*
X68171650Y-34345153D01*
X68085197Y-34301734D01*
X68074661Y-34238148D01*
X68061125Y-34179800D01*
X68027159Y-34098990D01*
X67978050Y-34029507D01*
X67914766Y-33972363D01*
X67838276Y-33928568D01*
X67749548Y-33899130D01*
X67716300Y-33893356D01*
X67681072Y-33890365D01*
X67649557Y-33890293D01*
X67626886Y-33893149D01*
X67618189Y-33898940D01*
X67620271Y-33904140D01*
X67629000Y-33923728D01*
X67642968Y-33954302D01*
X67660465Y-33992100D01*
X67692658Y-34065420D01*
X67737870Y-34191236D01*
X67767858Y-34312335D01*
X67778049Y-34374474D01*
X67788371Y-34453178D01*
X67798455Y-34544497D01*
X67808039Y-34645057D01*
X67816864Y-34751482D01*
X67824669Y-34860399D01*
X67831194Y-34968432D01*
X67836178Y-35072207D01*
X67839360Y-35168349D01*
X67840481Y-35253484D01*
X67840487Y-35380218D01*
X67910089Y-35431975D01*
X67922215Y-35441225D01*
X67964580Y-35475949D01*
X68009593Y-35515635D01*
X68049350Y-35553390D01*
X68052483Y-35556526D01*
X68070510Y-35574897D01*
X68086229Y-35592137D01*
X68100846Y-35610299D01*
X68115561Y-35631437D01*
X68131577Y-35657605D01*
X68150098Y-35690857D01*
X68172326Y-35733246D01*
X68199463Y-35786826D01*
X68232713Y-35853652D01*
X68273278Y-35935776D01*
X68302277Y-35994488D01*
X68337941Y-36066260D01*
X68367050Y-36123958D01*
X68390732Y-36169541D01*
X68410114Y-36204966D01*
X68426324Y-36232191D01*
X68440488Y-36253175D01*
X68453735Y-36269875D01*
X68467192Y-36284249D01*
X68481985Y-36298255D01*
X68513324Y-36324694D01*
X68575908Y-36365059D01*
X68647471Y-36395298D01*
X68732775Y-36417681D01*
X68735254Y-36418192D01*
X68790350Y-36431899D01*
X68833946Y-36448660D01*
X68873579Y-36471348D01*
X68918669Y-36504399D01*
X68983818Y-36561466D01*
X69048336Y-36627755D01*
X69107238Y-36698421D01*
X69116131Y-36709914D01*
X69178391Y-36781659D01*
X69241402Y-36838108D01*
X69308758Y-36882546D01*
X69334637Y-36897859D01*
X69359988Y-36914809D01*
X69374165Y-36926780D01*
X69376724Y-36930307D01*
X69381018Y-36949100D01*
X69370980Y-36972595D01*
X69345578Y-37003562D01*
X69319818Y-37025920D01*
X69280319Y-37049331D01*
X69237100Y-37066446D01*
X69194904Y-37075872D01*
X69158476Y-37076217D01*
X69132562Y-37066087D01*
X69125868Y-37057977D01*
X69113092Y-37034104D01*
X69101228Y-37003460D01*
X69071910Y-36933802D01*
X69020718Y-36852657D01*
X68952405Y-36773285D01*
X68868143Y-36697229D01*
X68802291Y-36649041D01*
X68698591Y-36591304D01*
X68587520Y-36550464D01*
X68533355Y-36539284D01*
X68465474Y-36531858D01*
X68391088Y-36528552D01*
X68316472Y-36529462D01*
X68247900Y-36534686D01*
X68191647Y-36544322D01*
X68132038Y-36559067D01*
X68125622Y-36524301D01*
X68124068Y-36516874D01*
X68108716Y-36470376D01*
X68083902Y-36417293D01*
X68052855Y-36363908D01*
X68018803Y-36316500D01*
X67999823Y-36294650D01*
X67931672Y-36232477D01*
X67851143Y-36178367D01*
X67761960Y-36133738D01*
X67667845Y-36100008D01*
X67572522Y-36078592D01*
X67479714Y-36070908D01*
X67393144Y-36078373D01*
X67373517Y-36082537D01*
X67305648Y-36106344D01*
X67250431Y-36143227D01*
X67205347Y-36194748D01*
X67196603Y-36206949D01*
X67161424Y-36245213D01*
X67120434Y-36271869D01*
X67061632Y-36291989D01*
X66990391Y-36299572D01*
X66913206Y-36293480D01*
X66833719Y-36274015D01*
X66755574Y-36241481D01*
X66742141Y-36234725D01*
X66721828Y-36224394D01*
X66710457Y-36216705D01*
X66709666Y-36210455D01*
X66721097Y-36204442D01*
X66746388Y-36197461D01*
X66787181Y-36188311D01*
X66845114Y-36175788D01*
X66888100Y-36165599D01*
X66936768Y-36150349D01*
X66971567Y-36133107D01*
X66995726Y-36112135D01*
X67012474Y-36085696D01*
X67023125Y-36053215D01*
X67028445Y-36001843D01*
X67023709Y-35949338D01*
X67009081Y-35904395D01*
X67002566Y-35890909D01*
X66989466Y-35857578D01*
X66978523Y-35818648D01*
X66969249Y-35771372D01*
X66961159Y-35713005D01*
X66953765Y-35640802D01*
X66946579Y-35552016D01*
X66938292Y-35448572D01*
X66927491Y-35338517D01*
X66915217Y-35240905D01*
X66900849Y-35151973D01*
X66883766Y-35067956D01*
X66863347Y-34985092D01*
X66838972Y-34899619D01*
X66828268Y-34865638D01*
X66810280Y-34816859D01*
X66789758Y-34773816D01*
X66764298Y-34732817D01*
X66731496Y-34690171D01*
X66688949Y-34642186D01*
X66634253Y-34585168D01*
X66615501Y-34565868D01*
X66550696Y-34495619D01*
X66499623Y-34433982D01*
X66463329Y-34382200D01*
X66451201Y-34362625D01*
X66417388Y-34310501D01*
X66388397Y-34270945D01*
X66361193Y-34240430D01*
X66332740Y-34215428D01*
X66300004Y-34192413D01*
X66272130Y-34175118D01*
X66236087Y-34155796D01*
X66199431Y-34140763D01*
X66159044Y-34129354D01*
X66111806Y-34120902D01*
X66054597Y-34114743D01*
X65984299Y-34110213D01*
X65897793Y-34106645D01*
X65871931Y-34105716D01*
X65793925Y-34102271D01*
X65731219Y-34098068D01*
X65680686Y-34092597D01*
X65639200Y-34085348D01*
X65603636Y-34075810D01*
X65570867Y-34063472D01*
X65537766Y-34047824D01*
X65501522Y-34029363D01*
X65501522Y-34081198D01*
X65500050Y-34108459D01*
X65485055Y-34164477D01*
X65453340Y-34211260D01*
X65404246Y-34249955D01*
X65400851Y-34251953D01*
X65373600Y-34265944D01*
X65339653Y-34281049D01*
X65303854Y-34295409D01*
X65271044Y-34307164D01*
X65246064Y-34314455D01*
X65233756Y-34315424D01*
X65233959Y-34308698D01*
X65236346Y-34286299D01*
X65240628Y-34251992D01*
X65246336Y-34209716D01*
X65255753Y-34155060D01*
X65273277Y-34080603D01*
X65294056Y-34013659D01*
X65295144Y-34010652D01*
X65309736Y-33969214D01*
X65318165Y-33940976D01*
X65321157Y-33921368D01*
X65319439Y-33905819D01*
X65313737Y-33889760D01*
X65303840Y-33863352D01*
X65284298Y-33787053D01*
X65273067Y-33701269D01*
X65271085Y-33612098D01*
X65272803Y-33571281D01*
X65276002Y-33535511D01*
X65281727Y-33507800D01*
X65291317Y-33482024D01*
X65306113Y-33452062D01*
X65316105Y-33432130D01*
X65327968Y-33403297D01*
X65336208Y-33372724D01*
X65342261Y-33334552D01*
X65347563Y-33282922D01*
X65355721Y-33203114D01*
X65365185Y-33135650D01*
X65375747Y-33085243D01*
X65387722Y-33050725D01*
X65401427Y-33030926D01*
X65417175Y-33024675D01*
X65421032Y-33025116D01*
X65443054Y-33032239D01*
X65474323Y-33045947D01*
X65509248Y-33063480D01*
X65542243Y-33082079D01*
X65567717Y-33098986D01*
X65593640Y-33124406D01*
X65618532Y-33170547D01*
X65627169Y-33224886D01*
X65628916Y-33256453D01*
X65637981Y-33294974D01*
X65656885Y-33334321D01*
X65687962Y-33380469D01*
X65710934Y-33415279D01*
X65737161Y-33462466D01*
X65757027Y-33506213D01*
X65758777Y-33510795D01*
X65775778Y-33554334D01*
X65789510Y-33582447D01*
X65803623Y-33597433D01*
X65821772Y-33601591D01*
X65847607Y-33597219D01*
X65884781Y-33586615D01*
X65912746Y-33577273D01*
X65957841Y-33560157D01*
X66012036Y-33538109D01*
X66070840Y-33512964D01*
X66129756Y-33486558D01*
X66160777Y-33472344D01*
X66251812Y-33431478D01*
X66329287Y-33398520D01*
X66395967Y-33372729D01*
X66454617Y-33353363D01*
X66508001Y-33339677D01*
X66558883Y-33330931D01*
X66610028Y-33326381D01*
X66664200Y-33325286D01*
X66724163Y-33326902D01*
X66769632Y-33329717D01*
X66855765Y-33340993D01*
X66938738Y-33361018D01*
X67024254Y-33391336D01*
X67118017Y-33433491D01*
X67137409Y-33442849D01*
X67177505Y-33461246D01*
X67203567Y-33471262D01*
X67217677Y-33473608D01*
X67221918Y-33468995D01*
X67223897Y-33449039D01*
X67233145Y-33408817D01*
X67248424Y-33360201D01*
X67268038Y-33308407D01*
X67290293Y-33258648D01*
X67313262Y-33216759D01*
X67366011Y-33142242D01*
X67428444Y-33075141D01*
X67495416Y-33021409D01*
X67545700Y-32987852D01*
X67637519Y-33051312D01*
G37*
D12*
%TO.C,C45*%
X69492164Y-59790000D02*
X69707836Y-59790000D01*
X69492164Y-60510000D02*
X69707836Y-60510000D01*
%TO.C,C23*%
X64457836Y-46790000D02*
X64242164Y-46790000D01*
X64457836Y-47510000D02*
X64242164Y-47510000D01*
%TO.C,C41*%
X69492164Y-63790000D02*
X69707836Y-63790000D01*
X69492164Y-64510000D02*
X69707836Y-64510000D01*
%TO.C,C28*%
X64457836Y-41890000D02*
X64242164Y-41890000D01*
X64457836Y-42610000D02*
X64242164Y-42610000D01*
%TO.C,C46*%
X69492164Y-58890000D02*
X69707836Y-58890000D01*
X69492164Y-59610000D02*
X69707836Y-59610000D01*
%TO.C,C29*%
X64457836Y-40590000D02*
X64242164Y-40590000D01*
X64457836Y-41310000D02*
X64242164Y-41310000D01*
%TO.C,C9*%
X64507836Y-63790000D02*
X64292164Y-63790000D01*
X64507836Y-64510000D02*
X64292164Y-64510000D01*
%TO.C,C27*%
X64457836Y-42790000D02*
X64242164Y-42790000D01*
X64457836Y-43510000D02*
X64242164Y-43510000D01*
%TO.C,C36*%
X69492164Y-69090000D02*
X69707836Y-69090000D01*
X69492164Y-69810000D02*
X69707836Y-69810000D01*
%TO.C,C49*%
X69492164Y-52610000D02*
X69707836Y-52610000D01*
X69492164Y-53330000D02*
X69707836Y-53330000D01*
%TO.C,R1*%
X67962742Y-74177500D02*
X68437258Y-74177500D01*
X67962742Y-75222500D02*
X68437258Y-75222500D01*
%TO.C,C56*%
X69492164Y-45890000D02*
X69707836Y-45890000D01*
X69492164Y-46610000D02*
X69707836Y-46610000D01*
%TO.C,C53*%
X69492164Y-48590000D02*
X69707836Y-48590000D01*
X69492164Y-49310000D02*
X69707836Y-49310000D01*
%TO.C,C40*%
X69492164Y-65090000D02*
X69707836Y-65090000D01*
X69492164Y-65810000D02*
X69707836Y-65810000D01*
%TO.C,C55*%
X69492164Y-46790000D02*
X69707836Y-46790000D01*
X69492164Y-47510000D02*
X69707836Y-47510000D01*
%TO.C,C52*%
X69492164Y-49890000D02*
X69707836Y-49890000D01*
X69492164Y-50610000D02*
X69707836Y-50610000D01*
%TO.C,C62*%
X69492164Y-39690000D02*
X69707836Y-39690000D01*
X69492164Y-40410000D02*
X69707836Y-40410000D01*
%TO.C,C35*%
X69492164Y-69990000D02*
X69707836Y-69990000D01*
X69492164Y-70710000D02*
X69707836Y-70710000D01*
%TO.C,C48*%
X69492164Y-57090000D02*
X69707836Y-57090000D01*
X69492164Y-57810000D02*
X69707836Y-57810000D01*
%TO.C,C6*%
X64507836Y-66890000D02*
X64292164Y-66890000D01*
X64507836Y-67610000D02*
X64292164Y-67610000D01*
%TO.C,C57*%
X69492164Y-44590000D02*
X69707836Y-44590000D01*
X69492164Y-45310000D02*
X69707836Y-45310000D01*
%TO.C,C39*%
X69492164Y-65990000D02*
X69707836Y-65990000D01*
X69492164Y-66710000D02*
X69707836Y-66710000D01*
%TO.C,C21*%
X64457836Y-48590000D02*
X64242164Y-48590000D01*
X64457836Y-49310000D02*
X64242164Y-49310000D01*
%TO.C,C8*%
X64507836Y-65090000D02*
X64292164Y-65090000D01*
X64507836Y-65810000D02*
X64292164Y-65810000D01*
%TO.C,C22*%
X64457836Y-47690000D02*
X64242164Y-47690000D01*
X64457836Y-48410000D02*
X64242164Y-48410000D01*
%TO.C,C58*%
X69492164Y-43690000D02*
X69707836Y-43690000D01*
X69492164Y-44410000D02*
X69707836Y-44410000D01*
%TO.C,C26*%
X64457836Y-43690000D02*
X64242164Y-43690000D01*
X64457836Y-44410000D02*
X64242164Y-44410000D01*
%TO.C,C12*%
X64507836Y-61090000D02*
X64292164Y-61090000D01*
X64507836Y-61810000D02*
X64292164Y-61810000D01*
%TO.C,C1*%
X64507836Y-71790000D02*
X64292164Y-71790000D01*
X64507836Y-72510000D02*
X64292164Y-72510000D01*
%TO.C,C33*%
X69492164Y-71790000D02*
X69707836Y-71790000D01*
X69492164Y-72510000D02*
X69707836Y-72510000D01*
%TO.C,C47*%
X69492164Y-57990000D02*
X69707836Y-57990000D01*
X69492164Y-58710000D02*
X69707836Y-58710000D01*
%TO.C,C25*%
X64457836Y-44590000D02*
X64242164Y-44590000D01*
X64457836Y-45310000D02*
X64242164Y-45310000D01*
%TO.C,C43*%
X69492164Y-61990000D02*
X69707836Y-61990000D01*
X69492164Y-62710000D02*
X69707836Y-62710000D01*
%TO.C,C44*%
X69492164Y-61090000D02*
X69707836Y-61090000D01*
X69492164Y-61810000D02*
X69707836Y-61810000D01*
%TO.C,C3*%
X64507836Y-69990000D02*
X64292164Y-69990000D01*
X64507836Y-70710000D02*
X64292164Y-70710000D01*
%TO.C,C30*%
X64457836Y-39690000D02*
X64242164Y-39690000D01*
X64457836Y-40410000D02*
X64242164Y-40410000D01*
%TO.C,C31*%
X64457836Y-38790000D02*
X64242164Y-38790000D01*
X64457836Y-39510000D02*
X64242164Y-39510000D01*
%TO.C,C37*%
X69492164Y-67790000D02*
X69707836Y-67790000D01*
X69492164Y-68510000D02*
X69707836Y-68510000D01*
%TD*%
M02*
